<svg width="1883" height="1340" xmlns="http://www.w3.org/2000/svg" xmlns:xlink="http://www.w3.org/1999/xlink" xml:space="preserve" overflow="hidden"><defs><clipPath id="clip0"><rect x="1888" y="867" width="1883" height="1340"/></clipPath></defs><g clip-path="url(#clip0)" transform="translate(-1888 -867)"><rect x="1888" y="1373" width="1883" height="677" fill="#807EDE" fill-opacity="0.2"/><rect x="1914" y="1737" width="461" height="129" fill="#9694E4"/><rect x="2400" y="1579" width="428" height="277" fill="#9694E4"/><rect x="3307" y="1579" width="429" height="277" fill="#9694E4"/><rect x="1914" y="1579" width="461" height="129" fill="#9694E4"/><rect x="1888" y="2086" width="1883" height="121" fill="#2A289D"/><path d="M3067.28 2156.99C3057.51 2156.99 3052.62 2160.35 3052.62 2167.07 3052.62 2173.1 3054.91 2176.12 3059.49 2176.12 3062.95 2176.12 3065.52 2174.63 3067.19 2171.64 3068.49 2169.28 3069.14 2166.26 3069.14 2162.59L3069.14 2156.99ZM2792.35 2156.99C2782.57 2156.99 2777.69 2160.35 2777.69 2167.07 2777.69 2173.1 2779.98 2176.12 2784.55 2176.12 2788.02 2176.12 2790.59 2174.63 2792.26 2171.64 2793.55 2169.28 2794.2 2166.26 2794.2 2162.59L2794.2 2156.99ZM2685.81 2156.99C2676.04 2156.99 2671.15 2160.35 2671.15 2167.07 2671.15 2173.1 2673.44 2176.12 2678.02 2176.12 2681.48 2176.12 2684.05 2174.63 2685.72 2171.64 2687.02 2169.28 2687.67 2166.26 2687.67 2162.59L2687.67 2156.99ZM2967.63 2148.87 2967.63 2174.44 2974.74 2174.44C2979.42 2174.44 2982.75 2173.66 2984.72 2172.11 2987 2170.3 2988.14 2166.91 2988.14 2161.93 2988.14 2157.52 2987.2 2154.23 2985.32 2152.09 2983.44 2149.94 2980.35 2148.87 2976.04 2148.87ZM3131 2138.13C3127.36 2138.13 3124.88 2140.19 3123.58 2144.29 3122.72 2146.97 3122.28 2151.14 3122.28 2156.8 3122.28 2162.96 3122.78 2167.47 3123.77 2170.33 3125.07 2174.19 3127.39 2176.12 3130.73 2176.12 3134.69 2176.12 3137.31 2174.16 3138.61 2170.24 3139.48 2167.69 3139.91 2163.52 3139.91 2157.73 3139.91 2151.32 3139.45 2146.75 3138.52 2144.01 3137.22 2140.09 3134.72 2138.13 3131 2138.13ZM3021.31 2138.04C3017.29 2138.04 3014.63 2140.06 3013.33 2144.11 3012.65 2146.22 3012.31 2149.86 3012.31 2155.03L3012.31 2161.75C3012.31 2166.29 3012.68 2169.52 3013.42 2171.45 3014.72 2174.75 3017.26 2176.4 3021.03 2176.4 3024.68 2176.4 3027.16 2174.81 3028.45 2171.64 3029.32 2169.52 3029.75 2166.32 3029.75 2162.03L3029.75 2154.84C3029.75 2149.49 3029.44 2145.79 3028.83 2143.73 3027.65 2139.94 3025.15 2138.04 3021.31 2138.04ZM2876.97 2138.04C2872.95 2138.04 2870.29 2140.06 2868.99 2144.11 2868.31 2146.22 2867.97 2149.86 2867.97 2155.03L2867.97 2161.75C2867.97 2166.29 2868.34 2169.52 2869.08 2171.45 2870.38 2174.75 2872.92 2176.4 2876.69 2176.4 2880.34 2176.4 2882.81 2174.81 2884.11 2171.64 2884.98 2169.52 2885.41 2166.32 2885.41 2162.03L2885.41 2154.84C2885.41 2149.49 2885.1 2145.79 2884.49 2143.73 2883.31 2139.94 2880.8 2138.04 2876.97 2138.04ZM3216.29 2133.75 3223.62 2133.75 3223.62 2180.79 3216.29 2180.79ZM2841.69 2133.75 2849.02 2133.75 2849.02 2180.79 2841.69 2180.79ZM2728.28 2133.75 2735.61 2133.75 2735.61 2163.8C2735.61 2167.66 2735.92 2170.4 2736.54 2172.01 2737.59 2174.69 2739.75 2176.03 2743.03 2176.03 2749.16 2176.03 2752.22 2171.45 2752.22 2162.31L2752.22 2133.75 2759.64 2133.75 2759.64 2170.43C2759.64 2174.1 2759.76 2177.55 2760.01 2180.79L2752.68 2180.79 2752.59 2174.81C2749.74 2179.29 2745.82 2181.53 2740.8 2181.53 2732.45 2181.53 2728.28 2176.71 2728.28 2167.07ZM2623.79 2133.75 2631.68 2133.75 2641.23 2173.32 2651.07 2133.75 2658.21 2133.75 2645.13 2180.79 2636.78 2180.79ZM3107.87 2132.81C3108.37 2132.81 3108.61 2135.18 3108.61 2139.91 3107.87 2139.78 3107.35 2139.72 3107.04 2139.72 3103.51 2139.72 3100.87 2140.81 3099.1 2142.99 3097.34 2145.16 3096.46 2148.06 3096.46 2151.67L3096.46 2180.79 3089.04 2180.79 3089.04 2142.33C3089.04 2139.16 3088.94 2136.3 3088.76 2133.75L3096 2133.75 3096 2139.91C3098.53 2135.18 3102.49 2132.81 3107.87 2132.81ZM3062.18 2132.72C3067.56 2132.72 3071.3 2134.03 3073.41 2136.64 3075.39 2139 3076.38 2142.92 3076.38 2148.4L3076.38 2165.76C3076.38 2171.42 3076.53 2176.43 3076.84 2180.79L3069.69 2180.79 3069.6 2174.63C3066.45 2179.23 3062.27 2181.53 3057.07 2181.53 3053.12 2181.53 3050.05 2180.23 3047.89 2177.61 3045.97 2175.12 3045.01 2171.83 3045.01 2167.72 3045.01 2161.06 3047.55 2156.58 3052.62 2154.28 3055.96 2152.72 3061.47 2151.92 3069.14 2151.85L3069.14 2149.8C3069.14 2145.94 3068.83 2143.27 3068.21 2141.77 3067.22 2139.28 3065.12 2138.04 3061.9 2138.04 3059.67 2138.04 3057.82 2138.66 3056.33 2139.91 3054.85 2141.15 3054.11 2142.89 3054.11 2145.13L3054.11 2145.6 3046.78 2145.6 3046.78 2145.13C3046.78 2140.84 3048.32 2137.64 3051.42 2135.52 3054.07 2133.65 3057.66 2132.72 3062.18 2132.72ZM3021.5 2132.72C3028.24 2132.72 3032.72 2134.99 3034.95 2139.53 3036.56 2142.71 3037.36 2148.52 3037.36 2156.99 3037.36 2165.57 3036.4 2171.64 3034.49 2175.19 3032.07 2179.54 3027.56 2181.72 3020.94 2181.72 3014.2 2181.72 3009.68 2179.54 3007.39 2175.19 3005.66 2171.89 3004.79 2166.04 3004.79 2157.64 3004.79 2149.55 3005.72 2143.7 3007.58 2140.09 3010.05 2135.18 3014.69 2132.72 3021.5 2132.72ZM2922.57 2132.72C2930.8 2132.72 2934.91 2137.6 2934.91 2147.37L2934.91 2180.79 2927.58 2180.79 2927.58 2150.73C2927.58 2146.69 2927.3 2143.92 2926.75 2142.43 2925.69 2139.69 2923.56 2138.32 2920.34 2138.32 2917.19 2138.32 2914.75 2139.88 2913.01 2142.99 2911.59 2145.66 2910.88 2148.84 2910.88 2152.51L2910.88 2180.79 2903.55 2180.79 2903.55 2144.01C2903.55 2139.84 2903.42 2136.42 2903.18 2133.75L2910.41 2133.75 2910.41 2140.19C2913.01 2135.21 2917.06 2132.72 2922.57 2132.72ZM2877.15 2132.72C2883.9 2132.72 2888.38 2134.99 2890.61 2139.53 2892.22 2142.71 2893.02 2148.52 2893.02 2156.99 2893.02 2165.57 2892.06 2171.64 2890.15 2175.19 2887.73 2179.54 2883.22 2181.72 2876.6 2181.72 2869.86 2181.72 2865.34 2179.54 2863.05 2175.19 2861.32 2171.89 2860.45 2166.04 2860.45 2157.64 2860.45 2149.55 2861.38 2143.7 2863.24 2140.09 2865.71 2135.18 2870.35 2132.72 2877.15 2132.72ZM2787.24 2132.72C2792.63 2132.72 2796.37 2134.03 2798.47 2136.64 2800.45 2139 2801.44 2142.92 2801.44 2148.4L2801.44 2165.76C2801.44 2171.42 2801.6 2176.43 2801.91 2180.79L2794.76 2180.79 2794.67 2174.63C2791.51 2179.23 2787.34 2181.53 2782.14 2181.53 2778.18 2181.53 2775.12 2180.23 2772.95 2177.61 2771.04 2175.12 2770.08 2171.83 2770.08 2167.72 2770.08 2161.06 2772.61 2156.58 2777.69 2154.28 2781.03 2152.72 2786.53 2151.92 2794.2 2151.85L2794.2 2149.8C2794.2 2145.94 2793.89 2143.27 2793.28 2141.77 2792.29 2139.28 2790.18 2138.04 2786.97 2138.04 2784.74 2138.04 2782.88 2138.66 2781.4 2139.91 2779.91 2141.15 2779.17 2142.89 2779.17 2145.13L2779.17 2145.6 2771.84 2145.6 2771.84 2145.13C2771.84 2140.84 2773.39 2137.64 2776.48 2135.52 2779.14 2133.65 2782.73 2132.72 2787.24 2132.72ZM2680.71 2132.72C2686.09 2132.72 2689.83 2134.03 2691.94 2136.64 2693.91 2139 2694.9 2142.92 2694.9 2148.4L2694.9 2165.76C2694.9 2171.42 2695.06 2176.43 2695.37 2180.79L2688.22 2180.79 2688.13 2174.63C2684.98 2179.23 2680.8 2181.53 2675.6 2181.53 2671.65 2181.53 2668.58 2180.23 2666.42 2177.61 2664.5 2175.12 2663.54 2171.83 2663.54 2167.72 2663.54 2161.06 2666.08 2156.58 2671.15 2154.28 2674.49 2152.72 2680 2151.92 2687.67 2151.85L2687.67 2149.8C2687.67 2145.94 2687.36 2143.27 2686.74 2141.77 2685.75 2139.28 2683.65 2138.04 2680.43 2138.04 2678.2 2138.04 2676.35 2138.66 2674.86 2139.91 2673.38 2141.15 2672.63 2142.89 2672.63 2145.13L2672.63 2145.6 2665.3 2145.6 2665.3 2145.13C2665.3 2140.84 2666.85 2137.64 2669.94 2135.52 2672.6 2133.65 2676.19 2132.72 2680.71 2132.72ZM3246.37 2121.8 3246.37 2133.75 3254.72 2133.75 3254.72 2139.16 3246.37 2139.16 3246.37 2168.67C3246.37 2171.28 3246.74 2173.03 3247.48 2173.93 3248.23 2174.83 3249.62 2175.28 3251.66 2175.28 3252.03 2175.28 3253.14 2175.16 3255 2174.91L3255 2180.78C3252.71 2181.03 3250.92 2181.16 3249.62 2181.16 3245.41 2181.16 3242.54 2180.26 3240.99 2178.45 3239.69 2176.84 3239.04 2173.88 3239.04 2169.59L3239.04 2139.16 3232.08 2139.16 3232.08 2133.75 3239.04 2133.75 3239.04 2125.07ZM2823.66 2121.8 2823.66 2133.75 2832.01 2133.75 2832.01 2139.16 2823.66 2139.16 2823.66 2168.67C2823.66 2171.28 2824.03 2173.03 2824.77 2173.93 2825.52 2174.83 2826.91 2175.28 2828.95 2175.28 2829.32 2175.28 2830.43 2175.16 2832.29 2174.91L2832.29 2180.78C2830 2181.03 2828.21 2181.16 2826.91 2181.16 2822.7 2181.16 2819.82 2180.26 2818.28 2178.45 2816.98 2176.84 2816.33 2173.88 2816.33 2169.59L2816.33 2139.16 2809.37 2139.16 2809.37 2133.75 2816.33 2133.75 2816.33 2125.07ZM2967.63 2119.65 2967.63 2142.71 2975.85 2142.71C2983.36 2142.71 2987.11 2138.69 2987.11 2130.67 2987.11 2126.5 2986.1 2123.57 2984.07 2121.89 2982.28 2120.4 2979.39 2119.65 2975.39 2119.65ZM2410.89 2119.65 2410.89 2142.99 2417.48 2142.99C2422.49 2142.99 2425.93 2142.12 2427.82 2140.37 2429.71 2138.63 2430.65 2135.27 2430.65 2130.29 2430.65 2126.37 2429.79 2123.62 2428.05 2122.03 2426.32 2120.45 2423.57 2119.65 2419.79 2119.65ZM3215.91 2114.24 3223.99 2114.24 3223.99 2122.27 3215.91 2122.27ZM2841.32 2114.24 2849.39 2114.24 2849.39 2122.27 2841.32 2122.27ZM3201.49 2113.31 3210.58 2113.31 3189.33 2144.39 3211.32 2180.79 3202.04 2180.79 3181.07 2144.57ZM3172.82 2113.31 3180.7 2113.31 3180.7 2180.79 3172.82 2180.79ZM3139.63 2113.31 3147.06 2113.31 3147.06 2171.92C3147.06 2173.6 3147.18 2176.56 3147.43 2180.79L3140.28 2180.79 3140.19 2175.37C3137.53 2179.48 3133.88 2181.53 3129.24 2181.53 3123.24 2181.53 3119.13 2178.83 3116.9 2173.41 3115.48 2169.8 3114.77 2164.2 3114.77 2156.61 3114.77 2149.46 3115.6 2144.04 3117.27 2140.37 3119.5 2135.27 3123.43 2132.72 3129.06 2132.72 3133.76 2132.72 3137.28 2134.56 3139.63 2138.23ZM2959.74 2113.31 2977.56 2113.31C2983.56 2113.31 2987.97 2114.61 2990.78 2117.23 2993.59 2119.84 2995 2124.16 2995 2130.2 2995 2134.43 2994.29 2137.67 2992.87 2139.91 2991.38 2142.46 2988.75 2144.32 2984.98 2145.51 2989.31 2146.56 2992.31 2148.52 2993.98 2151.39 2995.47 2153.88 2996.21 2157.52 2996.21 2162.31 2996.21 2169.15 2994.51 2174 2991.1 2176.87 2988.01 2179.48 2983.03 2180.79 2976.17 2180.79L2959.74 2180.79ZM2707.66 2113.31 2714.99 2113.31 2714.99 2180.79 2707.66 2180.79ZM2588.58 2113.31 2619.48 2113.31 2619.48 2119.75 2596.47 2119.75 2596.47 2142.89 2618.27 2142.89 2618.27 2149.15 2596.47 2149.15 2596.47 2174.35 2620.13 2174.35 2620.13 2180.79 2588.58 2180.79ZM2513.63 2113.31 2521.98 2113.31 2536.09 2173.41 2550.47 2113.31 2558.35 2113.31 2540.6 2180.79 2531.11 2180.79ZM2447.87 2113.31 2482.85 2113.31 2482.85 2120.68 2454.55 2174.35 2483.03 2174.35 2483.03 2180.79 2446.2 2180.79 2446.2 2173.79 2474.68 2119.75 2447.87 2119.75ZM2403 2113.31 2420.91 2113.31C2426.97 2113.31 2431.39 2114.49 2434.18 2116.85 2437.21 2119.4 2438.72 2123.76 2438.72 2129.92 2438.72 2134.4 2438.04 2137.85 2436.68 2140.28 2435.01 2143.14 2432.2 2145.1 2428.24 2146.16 2431.64 2146.47 2434.02 2147.59 2435.38 2149.52 2436.5 2151.01 2437.21 2153.47 2437.52 2156.89 2437.52 2157.14 2437.67 2160.91 2437.98 2168.19 2438.11 2170.24 2438.26 2173.01 2438.45 2176.49 2438.57 2177.43 2438.76 2178.86 2439 2180.79L2430.75 2180.79C2430.31 2178.3 2430.09 2175.96 2430.09 2173.79 2430.09 2172.67 2429.97 2169.71 2429.72 2164.92 2429.41 2158.2 2428.89 2154.16 2428.15 2152.79 2426.91 2150.42 2423.79 2149.24 2418.77 2149.24L2410.89 2149.24 2410.89 2180.79 2403 2180.79ZM2507.01 2112 2512.95 2112 2491.33 2182 2485.3 2182Z" fill="#FFFFFF" fill-rule="evenodd"/><rect x="1914" y="1896" width="1841" height="122" fill="#5B58D4"/><path d="M2984.26 1944.75 2992.89 1944.75 3000.31 1961.83 3008 1944.75 3015.7 1944.75 3004.02 1966.77 3017 1991.79 3008.47 1991.79 2999.52 1972.09 2990.38 1991.79 2982.5 1991.79 2995.58 1966.87ZM2943.32 1944.75 2950.65 1944.75 2950.65 1974.8C2950.65 1978.66 2950.96 1981.4 2951.57 1983.01 2952.62 1985.69 2954.79 1987.03 2958.07 1987.03 2964.19 1987.03 2967.25 1982.45 2967.25 1973.31L2967.25 1944.75 2974.67 1944.75 2974.67 1981.43C2974.67 1985.1 2974.79 1988.55 2975.04 1991.79L2967.71 1991.79 2967.62 1985.81C2964.77 1990.29 2960.85 1992.53 2955.84 1992.53 2947.49 1992.53 2943.32 1987.71 2943.32 1978.07ZM2878.06 1944.75 2885.38 1944.75 2885.38 1991.79 2878.06 1991.79ZM2917.68 1943.72C2925.9 1943.72 2930.01 1948.6 2930.01 1958.37L2930.01 1991.79 2922.69 1991.79 2922.69 1961.73C2922.69 1957.69 2922.41 1954.92 2921.85 1953.43 2920.8 1950.69 2918.67 1949.32 2915.45 1949.32 2912.3 1949.32 2909.86 1950.88 2908.13 1953.99 2906.7 1956.66 2905.99 1959.84 2905.99 1963.51L2905.99 1991.79 2898.67 1991.79 2898.67 1955.01C2898.67 1950.84 2898.54 1947.42 2898.3 1944.75L2905.53 1944.75 2905.53 1951.19C2908.13 1946.21 2912.18 1943.72 2917.68 1943.72ZM2663.88 1930.65 2663.88 1953.99 2670.47 1953.99C2675.48 1953.99 2678.92 1953.12 2680.81 1951.37 2682.69 1949.63 2683.64 1946.27 2683.64 1941.29 2683.64 1937.37 2682.77 1934.62 2681.04 1933.03 2679.31 1931.45 2676.56 1930.65 2672.79 1930.65ZM2877.69 1925.24 2885.76 1925.24 2885.76 1933.27 2877.69 1933.27ZM2841.48 1924.31 2849.36 1924.31 2849.36 1985.35 2870.42 1985.35 2870.42 1991.79 2841.48 1991.79ZM2766.57 1924.31 2774.92 1924.31 2789.01 1984.41 2803.39 1924.31 2811.27 1924.31 2793.52 1991.79 2784.04 1991.79ZM2700.84 1924.31 2735.8 1924.31 2735.8 1931.68 2707.52 1985.35 2735.99 1985.35 2735.99 1991.79 2699.17 1991.79 2699.17 1984.79 2727.64 1930.75 2700.84 1930.75ZM2656 1924.31 2673.9 1924.31C2679.96 1924.31 2684.38 1925.49 2687.16 1927.85 2690.19 1930.4 2691.71 1934.76 2691.71 1940.92 2691.71 1945.4 2691.02 1948.85 2689.67 1951.28 2688 1954.14 2685.18 1956.1 2681.23 1957.16 2684.63 1957.47 2687.01 1958.59 2688.37 1960.52 2689.48 1962.01 2690.19 1964.47 2690.5 1967.89 2690.5 1968.14 2690.65 1971.91 2690.96 1979.19 2691.09 1981.24 2691.24 1984.01 2691.43 1987.49 2691.55 1988.43 2691.74 1989.86 2691.98 1991.79L2683.74 1991.79C2683.3 1989.3 2683.08 1986.96 2683.08 1984.79 2683.08 1983.67 2682.96 1980.71 2682.71 1975.92 2682.4 1969.2 2681.87 1965.16 2681.13 1963.79 2679.9 1961.42 2676.77 1960.24 2671.77 1960.24L2663.88 1960.24 2663.88 1991.79 2656 1991.79ZM2759.96 1923 2765.89 1923 2744.29 1993 2738.26 1993Z" fill="#FFFFFF" fill-rule="evenodd"/><rect x="1888" y="1116" width="1883" height="234" fill="#807EDE" fill-opacity="0.2"/><path d="M1914 1234 1952 1156 2066 1156 2104 1234 2066 1312 1952 1312Z" fill="#7C909B" fill-rule="evenodd"/><g><g><g><path d="M50.2124 30.5019C52.5826 30.5019 54.504 28.5804 54.504 26.2102 54.504 23.84 52.5826 21.9186 50.2124 21.9186 47.8422 21.9186 45.9207 23.84 45.9207 26.2102 45.9348 28.5746 47.848 30.4878 50.2124 30.5019ZM50.2124 24.0644C51.3975 24.0644 52.3582 25.0251 52.3582 26.2102 52.3582 27.3954 51.3975 28.3561 50.2124 28.3561 49.0272 28.3561 48.0666 27.3954 48.0666 26.2102 48.0816 25.0314 49.0336 24.0794 50.2124 24.0644Z" fill="#FFFFFF" transform="matrix(1 0 0 1.09709 1962 1162)"/><path d="M37.3374 51.2445C39.7076 51.2445 41.6291 49.323 41.6291 46.9529 41.6291 44.5827 39.7076 42.6612 37.3374 42.6612 34.9672 42.6612 33.0458 44.5827 33.0458 46.9529 33.0458 49.323 34.9672 51.2445 37.3374 51.2445ZM37.3374 44.807C38.5226 44.807 39.4832 45.7677 39.4832 46.9529 39.4832 48.138 38.5226 49.0987 37.3374 49.0987 36.1523 49.0987 35.1916 48.138 35.1916 46.9529 35.1916 45.7677 36.1523 44.807 37.3374 44.807Z" fill="#FFFFFF" transform="matrix(1 0 0 1.09709 1962 1162)"/><path d="M28.6575 51.6533 27.7381 54.3098 29.7766 56.3537 32.4331 55.5362C33.1371 55.9472 33.8956 56.2569 34.6862 56.4557L35.9104 59.0103 38.7708 59.0103 39.8952 56.5576C40.6859 56.3588 41.4443 56.0491 42.1484 55.6381L44.8038 56.5576 46.8424 54.5191 46.028 51.8572C46.4384 51.1547 46.7478 50.3981 46.9475 49.6094L49.501 48.3831 49.603 45.3177 47.0462 44.0968C46.8469 43.3064 46.5373 42.5478 46.1267 41.8437L47.0462 39.1871 45.0077 37.1432 42.3511 38.0627C41.6486 37.6525 40.892 37.343 40.1034 37.1432L38.8781 34.5886 35.9104 34.5886 34.6852 37.1432C33.8948 37.3426 33.1362 37.6521 32.4321 38.0627L29.7755 37.1432 27.737 39.1871 28.6575 41.8437C28.2469 42.546 27.9374 43.3027 27.7381 44.0914L25.1845 45.3177 25.1845 48.1792 27.7381 49.4056C27.9374 50.1943 28.2469 50.951 28.6575 51.6533ZM27.3303 46.6718 28.6672 46.028 29.576 45.5924 29.8195 44.6139C29.971 44.0154 30.2073 43.4417 30.5212 42.9101L31.004 42.0647 30.6821 41.1441 30.2015 39.7568 30.3452 39.6131 31.7325 40.0927 32.6531 40.4145 33.4985 39.9317C34.0302 39.618 34.604 39.3817 35.2023 39.23L36.1797 38.9854 36.6164 38.0767 37.2602 36.7398 37.522 36.7398 38.1657 38.0767 38.6024 38.9854 39.5798 39.23C40.1782 39.3817 40.752 39.618 41.2836 39.9317L42.1291 40.4145 43.0496 40.0927 44.4369 39.6131 44.5796 39.7568 44.0968 41.142 43.7749 42.0625 44.2577 42.908C44.571 43.4398 44.8073 44.0135 44.9594 44.6118L45.2029 45.5903 46.1117 46.0259 47.3992 46.646 47.3874 47.0119 46.0055 47.6749 45.0967 48.1116 44.8521 49.089C44.7013 49.6875 44.4653 50.2613 44.1515 50.7928L43.6901 51.5997 43.9637 52.488 44.4015 53.9107 44.2212 54.091 42.835 53.6103 41.9145 53.2884 41.0679 53.7723C40.5365 54.0855 39.9632 54.3213 39.3652 54.4729L38.3642 54.7229 37.935 55.6606 37.3943 56.8645 37.2612 56.8645 36.6175 55.5276 36.1808 54.6188 35.2034 54.3742C34.6049 54.2227 34.0311 53.9865 33.4996 53.6725L32.6928 53.2112 31.8044 53.4848 30.3828 53.9225 30.2025 53.7423 30.6853 52.3582 31.0072 51.4377 30.5244 50.5922C30.2107 50.0606 29.9744 49.4868 29.8227 48.8884L29.5792 47.9099 28.6704 47.4743 27.3336 46.8306Z" fill="#FFFFFF" transform="matrix(1 0 0 1.09709 1962 1162)"/><path d="M41.4274 31.0126 40.5079 33.6691 42.5464 35.713 45.2029 34.7935C45.9055 35.2037 46.6621 35.5132 47.4507 35.713L48.676 38.2676 51.5364 38.2676 52.7627 35.8149C53.5531 35.6156 54.3117 35.3061 55.0158 34.8955L57.6713 35.8149 59.7152 33.771 58.7957 31.1145C59.2382 30.4159 59.5819 29.6595 59.8171 28.8668L62.3707 27.6404 62.3707 24.5751 59.8171 23.3488C59.6174 22.5601 59.308 21.8034 58.8976 21.101L59.8171 18.4434 57.7786 16.4049 55.122 17.3243C54.4197 16.9137 53.663 16.6042 52.8743 16.4049L51.6437 13.9479 48.7833 13.9479 47.5569 16.5025C46.7663 16.7013 46.0077 17.0109 45.3038 17.422L42.6483 16.5025 40.6098 18.5464 41.4274 21.2029C41.0172 21.9055 40.7077 22.6621 40.5079 23.4507L37.9543 24.677 37.9543 27.5385 40.5079 28.7648C40.7079 29.5533 41.0174 30.3099 41.4274 31.0126ZM40.1002 26.0268 41.437 25.383 42.3458 24.9474 42.5893 23.9689C42.7413 23.3705 42.9775 22.797 43.291 22.2651L43.7513 21.4583 43.4788 20.5699 43.041 19.1472 43.2213 18.9681 44.6075 19.4476 45.528 19.7695 46.3746 19.2867C46.9058 18.9728 47.4791 18.7365 48.0773 18.585L49.0558 18.3404 49.4914 17.4316 50.1351 16.0948 50.3197 16.0948 50.9527 17.3608 51.3926 18.2395 52.3496 18.4788C52.9479 18.6303 53.5216 18.8662 54.0534 19.1794L54.8989 19.6633 55.8194 19.3414 57.2067 18.8608 57.3494 19.0045 56.8645 20.3993 56.5426 21.3188 57.0254 22.1653C57.3391 22.6971 57.5754 23.2708 57.7271 23.8691L57.9706 24.8465 58.8794 25.2832 60.2162 25.927 60.2162 26.2864 58.8794 26.9301 57.9706 27.3658 57.7271 28.3442C57.5341 28.9445 57.264 29.5173 56.9235 30.048L56.4407 30.8935 56.7625 31.8141 57.2421 33.2013 57.0983 33.3451 55.7121 32.8655 54.7916 32.5436 53.9451 33.0264C53.4139 33.3404 52.8405 33.5766 52.2423 33.7281L51.2842 33.9674 50.8433 34.8504 50.2102 36.1164 50.0268 36.1164 49.383 34.7785 48.9463 33.8698 47.9689 33.6251C47.3704 33.4741 46.7968 33.2381 46.2651 32.9245L45.4197 32.4417 44.4991 32.7636 43.1118 33.2432 42.9691 33.0994 43.4487 31.7121 43.7706 30.7916 43.2878 29.9461C42.9745 29.4143 42.7383 28.8406 42.5861 28.2423L42.3426 27.2638 41.4338 26.8282 40.097 26.1845Z" fill="#FFFFFF" transform="matrix(1 0 0 1.09709 1962 1162)"/><path d="M27.6812 65.466 27.6812 92.6182 61.5853 92.6182 61.5853 79.7433 66.8426 79.7433C70.226 79.7372 73.4682 78.3861 75.855 75.9881 78.2087 73.5369 79.5169 70.2665 79.5029 66.8683L79.5029 60.4308 84.2238 60.4308C87.0133 60.1089 89.481 56.8902 86.9061 52.9204L79.5029 40.0455 79.5029 39.509C80.1998 21.7027 66.3298 6.70305 48.5235 6.00624 30.7173 5.30943 15.7177 19.1794 15.0208 36.9856 14.9879 37.8264 14.9879 38.6681 15.0208 39.509 14.9838 49.6573 19.6613 59.2474 27.6812 65.466ZM31.8827 12.3664C46.1847 3.87118 64.6655 8.5785 73.1607 22.8804 76.1258 27.8724 77.585 33.6148 77.3625 39.4167L77.3625 40.6034 77.6479 41.1001 85.051 53.9751 85.0799 54.0245 85.1111 54.0727C85.8077 54.9136 86.0136 56.0576 85.654 57.0887 85.3497 57.711 84.7657 58.1499 84.0832 58.2689L77.3571 58.2689 77.3571 66.8522C77.3686 69.682 76.2866 72.407 74.3369 74.4581 72.3583 76.4631 69.6594 77.5925 66.8426 77.5942L59.4394 77.5942 59.4394 90.4692 29.827 90.4692 29.827 64.4135 28.9944 63.7697C21.482 57.9649 17.1079 48.9875 17.1666 39.494L17.1666 39.4553 17.1666 39.4167C16.731 28.381 22.3816 17.9952 31.8838 12.3664Z" fill="#FFFFFF" transform="matrix(1 0 0 1.09709 1962 1162)"/></g></g></g><path d="M2039.45 1278.64C2041.7 1278.64 2043.32 1279.09 2044.32 1280 2045.31 1280.91 2045.81 1282.37 2045.81 1284.39L2041.25 1284.39 2041.25 1283.43C2041.15 1282 2040.5 1281.29 2039.29 1281.29 2038.05 1281.29 2037.43 1281.94 2037.43 1283.25 2037.43 1284.01 2037.77 1284.62 2038.43 1285.09 2038.56 1285.19 2038.86 1285.37 2039.34 1285.62 2039.82 1285.88 2040.5 1286.25 2041.36 1286.71 2043.08 1287.57 2044.22 1288.27 2044.77 1288.82 2045.59 1289.68 2046 1290.83 2046 1292.28 2046 1296.09 2043.69 1298 2039.08 1298 2034.84 1298 2032.68 1296.24 2032.61 1292.73L2032.61 1291.73 2037.25 1291.73 2037.25 1292.32C2037.27 1294.16 2037.96 1295.09 2039.32 1295.09 2040.71 1295.09 2041.4 1294.36 2041.4 1292.91 2041.4 1292.1 2041.12 1291.45 2040.55 1290.96 2040.37 1290.83 2040.05 1290.64 2039.57 1290.36 2039.08 1290.09 2038.45 1289.75 2037.66 1289.33 2036.7 1288.84 2035.92 1288.41 2035.3 1288.04 2034.69 1287.67 2034.24 1287.35 2033.96 1287.08 2033.19 1286.34 2032.8 1285.29 2032.8 1283.91 2032.8 1282.14 2033.46 1280.79 2034.78 1279.85 2035.93 1279.04 2037.48 1278.64 2039.45 1278.64ZM1981.62 1274.95 1978.56 1287.93 1984.69 1287.93ZM2019.67 1274.61 2019.67 1282.88 2021.32 1282.88C2022.17 1282.88 2022.89 1282.81 2023.49 1282.67 2024.09 1282.54 2024.58 1282.31 2024.97 1281.99 2025.35 1281.67 2025.63 1281.24 2025.81 1280.68 2025.98 1280.13 2026.07 1279.45 2026.07 1278.64 2026.07 1277.09 2025.68 1276 2024.91 1275.39 2024.24 1274.87 2023.09 1274.61 2021.47 1274.61ZM2000.08 1274.61 2000.08 1282.88 2001.73 1282.88C2002.57 1282.88 2003.3 1282.81 2003.9 1282.67 2004.49 1282.54 2004.99 1282.31 2005.37 1281.99 2005.76 1281.67 2006.04 1281.24 2006.21 1280.68 2006.39 1280.13 2006.48 1279.45 2006.48 1278.64 2006.48 1277.09 2006.09 1276 2005.32 1275.39 2004.64 1274.87 2003.5 1274.61 2001.88 1274.61ZM2014.66 1271 2022.7 1271C2025.6 1271 2027.7 1271.54 2029.03 1272.62 2030.4 1273.75 2031.08 1275.75 2031.08 1278.6 2031.08 1281.84 2030.23 1284.05 2028.54 1285.2 2027.29 1286.06 2025.11 1286.49 2021.99 1286.49L2019.67 1286.49 2019.67 1297.67 2014.66 1297.67ZM1995.07 1271 2003.11 1271C2006 1271 2008.11 1271.54 2009.43 1272.62 2010.8 1273.75 2011.49 1275.75 2011.49 1278.6 2011.49 1281.84 2010.64 1284.05 2008.95 1285.2 2007.7 1286.06 2005.52 1286.49 2002.4 1286.49L2000.08 1286.49 2000.08 1297.67 1995.07 1297.67ZM1978.56 1271 1985.03 1271 1992.43 1297.67 1987.31 1297.67 1985.7 1291.55 1977.55 1291.55 1975.94 1297.67 1971 1297.67Z" fill="#FFFFFF" fill-rule="evenodd"/><path d="M1934 1429C1947.81 1429 1959 1417.81 1959 1404L2065 1404C2065 1417.81 2076.19 1429 2090 1429L2090 1529C2076.19 1529 2065 1540.19 2065 1554L1959 1554C1959 1540.19 1947.81 1529 1934 1529Z" fill="#2A289D" fill-rule="evenodd"/><g><g><g><path d="M11.8594 59.5126C11.3563 60.0157 10.7094 60.1595 10.0625 59.872 9.41564 59.5845 9.05626 59.0095 9.05626 58.3626 9.05626 57.7157 9.48751 57.0688 10.0625 56.8532 10.7094 56.5657 11.3563 56.7095 11.8594 57.2126 12.5063 57.7876 12.5063 58.8657 11.8594 59.5126ZM62.6032 12.1469 56.7813 17.9688 52.1813 16.7469 51.0313 12.2188 56.8532 6.39688C53.4032 5.10313 49.5219 5.89376 46.7907 8.33751 44.0594 10.8531 42.9813 14.5906 43.9157 18.1844L7.25939 54.8407C5.96563 56.0626 5.46251 57.9313 5.89376 59.6563 6.32501 61.3813 7.69064 62.747 9.41564 63.1782 11.1406 63.6095 12.9375 63.1063 14.2313 61.8126L50.8876 25.1563C54.4813 26.0907 58.2188 25.0125 60.7345 22.2813 63.1782 19.55 63.9688 15.5969 62.6032 12.1469Z" fill="#FFFFFF" transform="matrix(1 0 0 1.08695 2009 1465)"/><path d="M62.3157 54.8407 43.7719 36.2969 36.2969 43.7719 54.2657 61.7407 54.9126 62.3876 54.9845 62.3157C57.0688 63.8251 59.9438 63.5376 61.7407 61.7407 63.5376 59.872 63.7532 56.997 62.3157 54.8407L62.3157 54.8407Z" fill="#FFFFFF" transform="matrix(1 0 0 1.08695 2009 1465)"/><path d="M16.2438 14.2313 16.3156 14.1594 14.4469 10.7094 8.26564 5.75001 5.75001 8.26564 10.7094 14.4469 14.1594 16.3156 14.2313 16.2438 27.9594 29.9719 29.9719 27.9594Z" fill="#FFFFFF" transform="matrix(1 0 0 1.08695 2009 1465)"/></g></g></g><g><g><g><path d="M82.2603 42.4121C83.0433 41.0504 83.6728 39.6062 84.1374 38.1059L88.9957 35.6767 88.9957 30.1559 84.1374 27.7267C83.7313 26.2229 83.1378 24.7761 82.3707 23.4205L84.1374 18.2309 80.1624 14.2559 74.9728 16.0225C73.6178 15.2512 72.171 14.6536 70.6666 14.2437L68.2374 9.38541 62.7166 9.38541 60.2874 14.2437C58.7836 14.6495 57.3368 15.243 55.9812 16.0104L50.7916 14.2437 46.8166 18.2187 48.5833 23.4083C47.8162 24.764 47.2227 26.2108 46.8166 27.7146L41.9583 30.1437 41.9583 35.6645 46.8166 38.0937C47.2228 39.5975 47.8164 41.0441 48.5833 42.3999L46.8166 47.5895 50.6812 51.4541 55.8708 49.6874C57.2265 50.4545 58.6732 51.048 60.177 51.4541L62.6062 56.3124 68.127 56.3124 70.5562 51.4541C72.0599 51.0481 73.5067 50.4546 74.8624 49.6874L80.052 51.4541 84.027 47.5895ZM80.169 43.1232 81.4874 46.9933 79.4833 48.9421 75.5746 47.6105 74.6206 47.2859 73.7494 47.7938C72.5537 48.4695 71.277 48.9908 69.95 49.3451L69.0159 49.6124 68.5808 50.4813 66.7623 54.1251 63.9742 54.1251 62.1557 50.4813 61.7206 49.6124 60.7865 49.3451C59.4592 48.9908 58.1821 48.4695 56.986 47.7938L56.1159 47.2859 55.1619 47.6105 51.273 48.9355 49.3518 47.0143 50.6768 43.1243 51.0014 42.1703 50.4935 41.3002C49.8193 40.1036 49.2998 38.8261 48.9477 37.4986L48.6804 36.5644 47.8126 36.1305 44.1666 34.3097 44.1666 31.5173 47.8104 29.702 48.6782 29.267 48.9454 28.3329C49.2978 27.0057 49.8172 25.7287 50.4913 24.5323L50.9992 23.6612 50.6746 22.7083 49.3496 18.8172 51.3812 16.7855 55.2701 18.1105 56.2241 18.4418 57.0942 17.9327C58.2905 17.2589 59.5676 16.7395 60.8947 16.3869L61.8333 16.1043 62.2683 15.2353 64.0869 11.5915 66.8782 11.5915 68.6967 15.2353 69.1318 16.1043 70.0648 16.3715C71.392 16.7238 72.669 17.2432 73.8653 17.9173L74.7365 18.4263 75.6905 18.0951 79.5783 16.7701 81.61 18.8017 80.285 22.6928 79.9603 23.6457 80.4683 24.5169C81.1438 25.7131 81.6651 26.9902 82.0196 28.3174L82.2857 29.2515 83.1547 29.6866 86.7984 31.5063 86.7984 34.2987 83.1547 36.1184 82.31 36.5412 82.0318 37.4445C81.6166 38.7859 81.0549 40.0774 80.3567 41.2958L79.8488 42.1659Z" fill="#FFFFFF" transform="matrix(1 0 0 1.09434 1938 1407)"/><path d="M17.0041 70.2448 17.0041 75.7656 21.8625 78.1948C22.2686 79.6985 22.8621 81.1453 23.6291 82.501L21.9729 87.6906 25.8375 91.5552 31.027 89.8989C32.3826 90.6662 33.8294 91.2597 35.3333 91.6656L37.7625 96.5239 43.2833 96.5239 45.7124 91.6656C47.2162 91.2596 48.663 90.666 50.0187 89.8989L55.2083 91.6656 59.0728 87.6906 57.4166 82.6114C58.1837 81.2558 58.7771 79.809 59.1833 78.3052L64.0416 75.876 64.0416 70.3552 59.1833 67.926C58.7771 66.4223 58.1837 64.9755 57.4166 63.6198L59.1833 58.4302 55.2083 54.4552 50.0187 56.2219C48.6539 55.4737 47.2095 54.8811 45.7124 54.4552L43.2833 49.5969 37.7625 49.5969 35.3333 54.4552C33.8294 54.8611 32.3826 55.4546 31.027 56.2219L25.8375 54.4552 21.9729 58.3198 23.6291 63.5094C22.8811 64.8742 22.2885 66.3186 21.8625 67.8156ZM23.6954 69.3615 23.9736 68.4583C24.3536 67.1241 24.8778 65.8352 25.5371 64.6147L26.0318 63.7655 25.7326 62.8303 24.486 58.9205 26.4271 56.9782 30.316 58.3032 31.27 58.629 32.14 58.1211C33.336 57.4449 34.613 56.9235 35.9406 56.5697L36.8791 56.3124 37.3142 55.4435 39.1327 51.7997 41.9241 51.7997 43.7426 55.4435 44.1655 56.2892 45.0687 56.5664C46.4024 56.9472 47.6908 57.4719 48.9112 58.131L49.7824 58.6389 50.7364 58.3132 54.6242 56.9882 56.6558 59.0209 55.3308 62.9109 55.0062 63.8638 55.5141 64.735C56.1899 65.9316 56.7111 67.2089 57.0655 68.5366L57.3316 69.4697 58.2006 69.9047 61.8333 71.72 61.8333 74.5124 58.1895 76.332 57.3205 76.7671 57.0544 77.7001C56.7001 79.0278 56.1788 80.3052 55.5031 81.5018L55.004 82.3575 55.311 83.2993 56.5542 87.112 54.601 89.1304 50.7364 87.8132 49.7824 87.4885 48.9112 87.9965C47.7144 88.6731 46.4361 89.1945 45.1074 89.5478L44.1732 89.815 43.7393 90.684 41.9207 94.3277 39.1294 94.3277 37.3109 90.684 36.8758 89.815 35.9417 89.5478C34.6141 89.194 33.3371 88.6727 32.1411 87.9965L31.2931 87.5018 30.3568 87.7999 26.4492 89.0476 24.4871 87.0855 25.7337 83.1757 26.0329 82.2404 25.5382 81.3913C24.8622 80.1953 24.3409 78.9182 23.9869 77.5908L23.7197 76.6567 22.8518 76.2216 19.2081 74.402 19.2081 71.6095 22.8518 69.7899Z" fill="#FFFFFF" transform="matrix(1 0 0 1.09434 1938 1407)"/><path d="M65.477 24.6295C60.9034 24.6295 57.1958 28.3372 57.1958 32.9108 57.1958 37.4843 60.9034 41.192 65.477 41.192 70.0506 41.192 73.7582 37.4843 73.7582 32.9108 73.724 28.3514 70.0363 24.6637 65.477 24.6295ZM65.477 38.9837C62.1251 38.9788 59.409 36.2627 59.4041 32.9108 59.4487 29.5754 62.1417 26.8825 65.477 26.8378 68.8289 26.8427 71.5451 29.5588 71.5499 32.9108 71.5083 36.2481 68.8142 38.944 65.477 38.9881Z" fill="#FFFFFF" transform="matrix(1 0 0 1.09434 1938 1407)"/><path d="M40.5229 81.4002C45.0964 81.4002 48.8041 77.6925 48.8041 73.1189 48.8041 68.5454 45.0964 64.8377 40.5229 64.8377 35.9493 64.8377 32.2416 68.5454 32.2416 73.1189 32.2361 77.6871 35.9348 81.3947 40.503 81.4002 40.5096 81.4002 40.5162 81.4002 40.5229 81.4002ZM40.5229 67.0405C43.8769 67.0405 46.5958 69.7594 46.5958 73.1134 46.5958 76.4674 43.8769 79.1863 40.5229 79.1863 37.1689 79.1863 34.45 76.4674 34.45 73.1134 34.4548 69.7615 37.171 67.0454 40.5229 67.0405Z" fill="#FFFFFF" transform="matrix(1 0 0 1.09434 1938 1407)"/></g></g></g><rect x="2854" y="1579" width="428" height="277" fill="#9694E4"/><rect x="1888" y="867" width="1883" height="233" fill="#7C909B" fill-opacity="0.2"/><path d="M2966.21 993.056C2963.35 993.056 2961.3 993.629 2960.07 994.775 2958.83 995.921 2958.21 997.886 2958.21 1000.67 2958.21 1002.36 2958.54 1003.75 2959.2 1004.85 2959.86 1005.94 2961.04 1006.48 2962.75 1006.48 2964.73 1006.48 2966.1 1005.64 2966.87 1003.95 2967.64 1002.25 2968.03 1000.21 2968.03 997.804L2968.03 993.056ZM3056.53 978.563C3055.32 978.563 3054.37 978.85 3053.68 979.423 3052.99 979.996 3052.49 980.774 3052.16 981.757 3051.83 982.739 3051.62 983.872 3051.54 985.155 3051.45 986.437 3051.41 987.761 3051.41 989.126L3051.41 996.658C3051.41 997.968 3051.47 999.224 3051.58 1000.42 3051.69 1001.63 3051.91 1002.68 3052.24 1003.58 3052.57 1004.48 3053.06 1005.2 3053.72 1005.75 3054.38 1006.29 3055.29 1006.57 3056.44 1006.57 3057.6 1006.57 3058.52 1006.29 3059.21 1005.75 3059.9 1005.2 3060.4 1004.48 3060.73 1003.58 3061.06 1002.68 3061.27 1001.63 3061.35 1000.42 3061.44 999.224 3061.48 997.968 3061.48 996.658L3061.48 989.126C3061.48 987.706 3061.44 986.355 3061.35 985.073 3061.27 983.79 3061.06 982.671 3060.73 981.715 3060.4 980.76 3059.91 979.996 3059.25 979.423 3058.59 978.85 3057.68 978.563 3056.53 978.563ZM2838.81 978.236C2837.6 978.236 2836.63 978.577 2835.92 979.259 2835.2 979.941 2834.67 980.911 2834.31 982.166 2833.95 983.421 2833.72 984.922 2833.61 986.669 2833.5 988.416 2833.44 990.354 2833.44 992.482 2833.44 997.122 2833.76 1000.66 2834.39 1003.09 2835.02 1005.51 2836.44 1006.73 2838.64 1006.73 2839.85 1006.73 2840.8 1006.36 2841.49 1005.62 2842.17 1004.89 2842.68 1003.86 2843.01 1002.55 2843.34 1001.24 2843.55 999.674 2843.63 997.846 2843.71 996.017 2843.75 994.011 2843.75 991.828 2843.75 989.644 2843.71 987.706 2843.63 986.014 2843.55 984.322 2843.34 982.903 2843.01 981.757 2842.68 980.61 2842.19 979.737 2841.53 979.137 2840.87 978.536 2839.96 978.236 2838.81 978.236ZM2794.13 978.236C2792.92 978.236 2791.96 978.577 2791.24 979.259 2790.53 979.941 2789.99 980.911 2789.63 982.166 2789.28 983.421 2789.04 984.922 2788.93 986.669 2788.82 988.416 2788.77 990.354 2788.77 992.482 2788.77 997.122 2789.08 1000.66 2789.72 1003.09 2790.35 1005.51 2791.76 1006.73 2793.96 1006.73 2795.17 1006.73 2796.12 1006.36 2796.81 1005.62 2797.5 1004.89 2798 1003.86 2798.33 1002.55 2798.66 1001.24 2798.87 999.674 2798.95 997.846 2799.04 996.017 2799.08 994.011 2799.08 991.828 2799.08 989.644 2799.04 987.706 2798.95 986.014 2798.87 984.322 2798.66 982.903 2798.33 981.757 2798 980.61 2797.51 979.737 2796.85 979.137 2796.19 978.536 2795.28 978.236 2794.13 978.236ZM2647.52 978.072C2646.02 978.072 2644.94 978.509 2644.27 979.382 2643.61 980.255 2643.14 981.374 2642.86 982.739 2642.75 983.503 2642.67 984.254 2642.61 984.99 2642.56 985.728 2642.53 986.478 2642.53 987.242L2652.18 987.242C2652.18 986.424 2652.18 985.578 2652.18 984.704 2652.18 983.831 2652.09 982.985 2651.93 982.166 2651.71 980.965 2651.28 979.983 2650.64 979.218 2650 978.454 2648.96 978.072 2647.52 978.072ZM3018.75 971.931 3032.61 971.931 3032.61 1013.2 3018.75 1013.2ZM2884.72 971.931 2898.58 971.931 2898.58 1013.2 2884.72 1013.2ZM3109.37 970.949C3113.49 970.949 3116.46 971.918 3118.28 973.855 3120.09 975.793 3121 978.945 3121 983.312L3121 1013.2 3107.23 1013.2 3107.23 985.932C3107.23 983.476 3106.98 981.593 3106.48 980.283 3105.99 978.973 3104.78 978.318 3102.85 978.318 3101.09 978.318 3099.83 979.068 3099.06 980.569 3098.29 982.07 3097.91 984.104 3097.91 986.669L3097.91 1013.2 3084.05 1013.2 3084.05 978.399C3084.05 978.181 3084.05 977.758 3084.05 977.13 3084.05 976.503 3084.03 975.847 3084.01 975.165 3083.98 974.483 3083.95 973.828 3083.92 973.2 3083.9 972.572 3083.88 972.149 3083.88 971.931L3097.74 971.931 3097.74 976.271C3099.17 974.36 3100.85 972.996 3102.77 972.177 3104.7 971.358 3106.9 970.949 3109.37 970.949ZM3056.53 970.949C3060.43 970.949 3063.61 971.413 3066.05 972.341 3068.5 973.269 3070.41 974.633 3071.79 976.435 3073.16 978.236 3074.1 980.487 3074.59 983.189 3075.09 985.891 3075.33 989.016 3075.33 992.564 3075.33 995.621 3075.14 998.459 3074.76 1001.08 3074.37 1003.7 3073.52 1005.98 3072.2 1007.92 3070.88 1009.85 3068.97 1011.38 3066.47 1012.5 3063.96 1013.62 3060.62 1014.18 3056.44 1014.18 3052.71 1014.18 3049.63 1013.72 3047.21 1012.79 3044.79 1011.86 3042.86 1010.48 3041.43 1008.65 3040 1006.82 3039 1004.56 3038.42 1001.86 3037.85 999.155 3037.56 996.058 3037.56 992.564 3037.56 989.289 3037.82 986.314 3038.34 983.64 3038.86 980.965 3039.82 978.686 3041.23 976.803 3042.63 974.92 3044.57 973.473 3047.04 972.464 3049.52 971.453 3052.68 970.949 3056.53 970.949ZM2963.9 970.949C2966.76 970.949 2969.29 971.167 2971.49 971.604 2973.69 972.041 2975.54 972.818 2977.06 973.937 2978.57 975.056 2979.71 976.557 2980.48 978.44 2981.25 980.324 2981.63 982.685 2981.63 985.523L2981.63 1001.49C2981.63 1003.4 2981.7 1005.35 2981.84 1007.34 2981.98 1009.34 2982.18 1011.29 2982.46 1013.2L2969.1 1013.2 2968.6 1007.88C2967.17 1010.28 2965.55 1011.91 2963.74 1012.79 2961.92 1013.66 2959.69 1014.1 2957.06 1014.1 2952.93 1014.1 2949.8 1013.01 2947.65 1010.82 2945.51 1008.64 2944.44 1005.36 2944.44 1001 2944.44 997.941 2945.01 995.471 2946.17 993.588 2947.32 991.705 2948.85 990.258 2950.75 989.248 2952.64 988.238 2954.84 987.57 2957.34 987.242 2959.85 986.915 2962.42 986.751 2965.06 986.751L2968.03 986.751 2968.03 984.459C2968.03 982.439 2967.79 980.815 2967.32 979.587 2966.86 978.359 2965.66 977.744 2963.74 977.744 2962.31 977.744 2961.23 978.195 2960.52 979.095 2959.8 979.996 2959.45 981.211 2959.45 982.739L2959.45 983.721 2945.76 983.721 2945.76 982.903C2945.76 980.392 2946.37 978.345 2947.61 976.762 2948.85 975.179 2950.37 973.965 2952.19 973.118 2954 972.272 2955.97 971.699 2958.09 971.399 2960.2 971.099 2962.14 970.949 2963.9 970.949ZM2922.41 970.949C2925.22 970.949 2927.73 971.181 2929.96 971.645 2932.19 972.109 2934.08 972.941 2935.65 974.142 2937.22 975.343 2938.43 976.939 2939.28 978.932 2940.13 980.924 2940.56 983.421 2940.56 986.424L2927.36 986.424C2927.31 985.605 2927.24 984.732 2927.16 983.804 2927.07 982.875 2926.88 982.029 2926.58 981.265 2926.28 980.501 2925.81 979.86 2925.18 979.341 2924.54 978.822 2923.68 978.563 2922.58 978.563 2921.31 978.563 2920.32 978.904 2919.61 979.587 2918.89 980.269 2918.37 981.252 2918.04 982.534 2917.71 983.817 2917.51 985.4 2917.42 987.283 2917.34 989.166 2917.3 991.282 2917.3 993.629 2917.3 995.376 2917.33 997.04 2917.38 998.623 2917.44 1000.21 2917.63 1001.58 2917.96 1002.76 2918.29 1003.93 2918.8 1004.86 2919.49 1005.54 2920.17 1006.22 2921.15 1006.57 2922.41 1006.57 2923.57 1006.57 2924.48 1006.29 2925.14 1005.75 2925.79 1005.2 2926.29 1004.5 2926.62 1003.66 2926.95 1002.81 2927.17 1001.9 2927.28 1000.92 2927.39 999.933 2927.44 999.033 2927.44 998.214L2940.64 998.214C2940.59 1000.78 2940.22 1003.04 2939.53 1005.01 2938.84 1006.97 2937.75 1008.64 2936.27 1010 2934.79 1011.37 2932.89 1012.41 2930.58 1013.12 2928.27 1013.83 2925.47 1014.18 2922.17 1014.18 2918.54 1014.18 2915.53 1013.74 2913.13 1012.87 2910.74 1012 2908.83 1010.7 2907.4 1008.98 2905.97 1007.26 2904.97 1005.11 2904.39 1002.51 2903.81 999.92 2903.53 996.931 2903.53 993.547 2903.53 989.999 2903.79 986.833 2904.31 984.049 2904.83 981.265 2905.79 978.904 2907.2 976.967 2908.6 975.029 2910.52 973.542 2912.97 972.504 2915.42 971.467 2918.56 970.949 2922.41 970.949ZM2844 970.949C2847.08 970.949 2849.53 971.467 2851.34 972.504 2853.16 973.542 2854.52 974.974 2855.43 976.803 2856.33 978.632 2856.91 980.829 2857.16 983.394 2857.4 985.96 2857.53 988.798 2857.53 991.909 2857.53 994.802 2857.42 997.586 2857.2 1000.26 2856.98 1002.94 2856.39 1005.3 2855.43 1007.34 2854.46 1009.39 2853.01 1011.03 2851.05 1012.26 2849.1 1013.48 2846.42 1014.1 2843.01 1014.1 2840.76 1014.1 2838.85 1013.73 2837.28 1012.99 2835.71 1012.26 2834.35 1011.04 2833.2 1009.35L2833.2 1029 2819.42 1029 2819.42 979.955C2819.42 979.901 2819.41 979.464 2819.38 978.645 2819.35 977.826 2819.34 976.926 2819.34 975.943 2819.34 974.961 2819.33 974.06 2819.3 973.241 2819.27 972.422 2819.26 971.986 2819.26 971.931L2832.87 971.931 2832.87 976.598C2834.13 974.524 2835.73 973.064 2837.65 972.218 2839.57 971.372 2841.69 970.949 2844 970.949ZM2799.32 970.949C2802.4 970.949 2804.85 971.467 2806.67 972.504 2808.48 973.542 2809.84 974.974 2810.75 976.803 2811.66 978.632 2812.23 980.829 2812.48 983.394 2812.73 985.96 2812.85 988.798 2812.85 991.909 2812.85 994.802 2812.74 997.586 2812.52 1000.26 2812.3 1002.94 2811.71 1005.3 2810.75 1007.34 2809.79 1009.39 2808.33 1011.03 2806.38 1012.26 2804.42 1013.48 2801.74 1014.1 2798.33 1014.1 2796.08 1014.1 2794.17 1013.73 2792.6 1012.99 2791.04 1012.26 2789.67 1011.04 2788.52 1009.35L2788.52 1029 2774.74 1029 2774.74 979.955C2774.74 979.901 2774.73 979.464 2774.7 978.645 2774.68 977.826 2774.66 976.926 2774.66 975.943 2774.66 974.961 2774.65 974.06 2774.62 973.241 2774.59 972.422 2774.58 971.986 2774.58 971.931L2788.19 971.931 2788.19 976.598C2789.45 974.524 2791.05 973.064 2792.97 972.218 2794.9 971.372 2797.01 970.949 2799.32 970.949ZM2699.25 970.949 2699.25 982.002C2698.81 982.002 2698.52 981.988 2698.38 981.961 2698.24 981.934 2697.74 981.92 2696.86 981.92 2695.15 981.92 2693.78 982.166 2692.73 982.657 2691.69 983.148 2690.88 983.817 2690.3 984.663 2689.72 985.509 2689.34 986.533 2689.14 987.734 2688.95 988.934 2688.85 990.272 2688.85 991.746L2688.85 1013.2 2675.08 1013.2 2675.08 980.201C2675.08 980.146 2675.07 979.696 2675.04 978.85 2675.01 978.004 2675 977.076 2675 976.066 2675 975.056 2674.98 974.128 2674.96 973.282 2674.93 972.436 2674.92 971.986 2674.92 971.931L2688.2 971.931 2688.28 977.171C2689.49 974.715 2690.96 973.064 2692.69 972.218 2694.42 971.372 2696.61 970.949 2699.25 970.949ZM2647.89 970.949C2651.74 970.949 2654.86 971.453 2657.25 972.464 2659.64 973.473 2661.5 974.933 2662.82 976.844 2664.14 978.754 2665.03 981.074 2665.5 983.804 2665.97 986.533 2666.2 989.617 2666.2 993.056L2666.2 994.202 2642.36 994.202 2642.36 997.723C2642.36 1000.83 2642.71 1003.17 2643.39 1004.72 2644.08 1006.28 2645.44 1007.06 2647.48 1007.06 2648.52 1007.06 2649.37 1006.84 2650.03 1006.4 2650.69 1005.96 2651.19 1005.38 2651.52 1004.64 2651.85 1003.9 2652.07 1003.09 2652.18 1002.18 2652.29 1001.28 2652.34 1000.37 2652.34 999.442L2665.87 999.442C2665.87 1004.57 2664.3 1008.31 2661.17 1010.66 2658.03 1013.01 2653.53 1014.18 2647.64 1014.18 2643.85 1014.18 2640.73 1013.73 2638.28 1012.83 2635.83 1011.93 2633.88 1010.58 2632.42 1008.78 2630.97 1006.97 2629.96 1004.74 2629.41 1002.06 2628.86 999.387 2628.59 996.276 2628.59 992.728 2628.59 989.126 2628.92 985.973 2629.58 983.271 2630.24 980.569 2631.32 978.304 2632.84 976.475 2634.35 974.647 2636.34 973.269 2638.82 972.341 2641.29 971.413 2644.32 970.949 2647.89 970.949ZM2605.33 970.949C2610.66 970.949 2614.76 971.863 2617.62 973.692 2620.48 975.52 2621.96 978.318 2622.07 982.084L2622.07 983.476 2608.96 983.476 2608.96 982.166C2608.9 980.911 2608.59 979.805 2608.01 978.85 2607.43 977.894 2606.29 977.417 2604.59 977.417 2603.38 977.417 2602.39 977.717 2601.62 978.318 2600.85 978.918 2600.46 979.846 2600.46 981.102 2600.46 981.975 2600.72 982.725 2601.25 983.353 2601.77 983.981 2602.5 984.568 2603.43 985.113 2604.37 985.659 2605.48 986.205 2606.77 986.751 2608.06 987.297 2609.48 987.897 2611.02 988.552 2613 989.426 2614.73 990.217 2616.22 990.927 2617.7 991.636 2618.92 992.455 2619.89 993.383 2620.85 994.311 2621.56 995.416 2622.03 996.699 2622.5 997.982 2622.73 999.606 2622.73 1001.57 2622.73 1004.03 2622.2 1006.06 2621.12 1007.67 2620.05 1009.28 2618.64 1010.56 2616.88 1011.52 2615.12 1012.47 2613.12 1013.14 2610.9 1013.53 2608.67 1013.91 2606.37 1014.1 2604.01 1014.1 2601.92 1014.1 2599.86 1013.91 2597.82 1013.53 2595.79 1013.14 2593.96 1012.47 2592.34 1011.52 2590.72 1010.56 2589.41 1009.28 2588.42 1007.67 2587.43 1006.06 2586.94 1004.03 2586.94 1001.57L2586.94 1000.26 2600.05 1000.26 2600.05 1001.33C2600.05 1003.07 2600.41 1004.45 2601.12 1005.46 2601.84 1006.47 2603.07 1006.97 2604.83 1006.97 2606.1 1006.97 2607.16 1006.63 2608.01 1005.95 2608.86 1005.27 2609.29 1004.3 2609.29 1003.04 2609.29 1002.23 2609.15 1001.53 2608.88 1000.96 2608.6 1000.38 2608.08 999.838 2607.31 999.319 2606.54 998.801 2605.47 998.241 2604.09 997.641 2602.72 997.04 2600.9 996.249 2598.65 995.266 2596.56 994.393 2594.8 993.588 2593.37 992.851 2591.94 992.114 2590.77 991.309 2589.86 990.435 2588.96 989.562 2588.3 988.552 2587.88 987.406 2587.47 986.26 2587.27 984.813 2587.27 983.066 2587.27 980.61 2587.83 978.604 2588.96 977.048 2590.08 975.493 2591.53 974.265 2593.29 973.364 2595.05 972.464 2596.98 971.836 2599.1 971.481 2601.22 971.126 2603.29 970.949 2605.33 970.949ZM2744.64 964.48 2738.62 991.254 2750.83 991.254ZM3006.43 960.059 3006.43 971.931 3012.62 971.931 3012.62 979.546 3006.43 979.546 3006.43 1001.73C3006.43 1003.43 3006.67 1004.61 3007.14 1005.3 3007.6 1005.98 3008.69 1006.32 3010.39 1006.32 3010.83 1006.32 3011.19 1006.31 3011.47 1006.28 3011.74 1006.25 3012.1 1006.18 3012.54 1006.07L3012.54 1013.2C3011.44 1013.47 3010.28 1013.66 3009.07 1013.77 3007.86 1013.88 3006.49 1013.93 3004.95 1013.93 3000.66 1013.93 2997.53 1013.16 2995.55 1011.6 2993.57 1010.05 2992.58 1007.14 2992.58 1002.88L2992.58 979.546 2987.63 979.546 2987.63 971.931 2992.58 971.931 2992.58 964.89ZM3018.75 954.246 3032.61 954.246 3032.61 964.235 3018.75 964.235ZM2884.72 954.246 2898.58 954.246 2898.58 964.235 2884.72 964.235ZM2864.1 954 2877.96 954 2877.96 1013.2 2864.1 1013.2ZM2734.91 954 2755.36 954 2771.36 1013.2 2755.86 1013.2 2752.89 1000.83 2736.97 1000.83 2734 1013.2 2718.99 1013.2ZM2535 954 2549.76 954 2549.76 993.056C2549.76 994.748 2549.85 996.303 2550.01 997.723 2550.18 999.142 2550.53 1000.37 2551.08 1001.41 2551.63 1002.44 2552.4 1003.26 2553.39 1003.86 2554.38 1004.46 2555.68 1004.76 2557.27 1004.76 2558.92 1004.76 2560.25 1004.46 2561.27 1003.86 2562.29 1003.26 2563.06 1002.44 2563.58 1001.41 2564.1 1000.37 2564.45 999.155 2564.61 997.763 2564.78 996.372 2564.86 994.857 2564.86 993.219L2564.86 954 2579.38 954 2579.38 993.383C2579.38 997.313 2578.92 1000.62 2578.01 1003.29 2577.11 1005.96 2575.72 1008.15 2573.85 1009.84 2571.98 1011.53 2569.66 1012.75 2566.88 1013.48 2564.1 1014.22 2560.87 1014.59 2557.19 1014.59 2549.38 1014.59 2543.73 1012.87 2540.24 1009.43 2536.75 1005.99 2535 1000.59 2535 993.219Z" fill="#2D2D2C" fill-rule="evenodd"/><path d="M2904.7 1242.06C2901.84 1242.06 2899.79 1242.63 2898.55 1243.78 2897.31 1244.92 2896.69 1246.89 2896.69 1249.67 2896.69 1251.36 2897.02 1252.75 2897.68 1253.85 2898.34 1254.94 2899.53 1255.48 2901.24 1255.48 2903.22 1255.48 2904.59 1254.64 2905.36 1252.95 2906.13 1251.25 2906.52 1249.21 2906.52 1246.8L2906.52 1242.06ZM2995.12 1227.56C2993.91 1227.56 2992.96 1227.85 2992.27 1228.42 2991.58 1229 2991.07 1229.77 2990.74 1230.76 2990.41 1231.74 2990.2 1232.87 2990.12 1234.15 2990.04 1235.44 2990 1236.76 2990 1238.13L2990 1245.66C2990 1246.97 2990.05 1248.22 2990.16 1249.42 2990.27 1250.63 2990.49 1251.68 2990.82 1252.58 2991.15 1253.48 2991.65 1254.2 2992.31 1254.75 2992.97 1255.29 2993.88 1255.57 2995.03 1255.57 2996.19 1255.57 2997.11 1255.29 2997.8 1254.75 2998.49 1254.2 2999 1253.48 2999.33 1252.58 2999.66 1251.68 2999.87 1250.63 2999.95 1249.42 3000.03 1248.22 3000.07 1246.97 3000.07 1245.66L3000.07 1238.13C3000.07 1236.71 3000.03 1235.36 2999.95 1234.07 2999.87 1232.79 2999.66 1231.67 2999.33 1230.72 2999 1229.76 2998.5 1229 2997.84 1228.42 2997.18 1227.85 2996.27 1227.56 2995.12 1227.56ZM2777.16 1227.24C2775.95 1227.24 2774.99 1227.58 2774.27 1228.26 2773.55 1228.94 2773.02 1229.91 2772.66 1231.17 2772.3 1232.42 2772.07 1233.92 2771.96 1235.67 2771.85 1237.42 2771.79 1239.35 2771.79 1241.48 2771.79 1246.12 2772.11 1249.66 2772.74 1252.09 2773.38 1254.51 2774.79 1255.73 2776.99 1255.73 2778.21 1255.73 2779.16 1255.36 2779.84 1254.62 2780.53 1253.89 2781.04 1252.86 2781.37 1251.55 2781.7 1250.24 2781.91 1248.67 2781.99 1246.85 2782.07 1245.02 2782.11 1243.01 2782.11 1240.83 2782.11 1238.64 2782.07 1236.71 2781.99 1235.01 2781.91 1233.32 2781.7 1231.9 2781.37 1230.76 2781.04 1229.61 2780.54 1228.74 2779.88 1228.14 2779.22 1227.54 2778.32 1227.24 2777.16 1227.24ZM2732.43 1227.24C2731.22 1227.24 2730.26 1227.58 2729.54 1228.26 2728.83 1228.94 2728.29 1229.91 2727.93 1231.17 2727.58 1232.42 2727.34 1233.92 2727.23 1235.67 2727.12 1237.42 2727.07 1239.35 2727.07 1241.48 2727.07 1246.12 2727.38 1249.66 2728.02 1252.09 2728.65 1254.51 2730.07 1255.73 2732.27 1255.73 2733.48 1255.73 2734.43 1255.36 2735.12 1254.62 2735.81 1253.89 2736.31 1252.86 2736.65 1251.55 2736.98 1250.24 2737.18 1248.67 2737.26 1246.85 2737.35 1245.02 2737.39 1243.01 2737.39 1240.83 2737.39 1238.64 2737.35 1236.71 2737.26 1235.01 2737.18 1233.32 2736.98 1231.9 2736.65 1230.76 2736.31 1229.61 2735.82 1228.74 2735.16 1228.14 2734.5 1227.54 2733.59 1227.24 2732.43 1227.24ZM2957.3 1220.93 2971.17 1220.93 2971.17 1262.2 2957.3 1262.2ZM2823.12 1220.93 2837 1220.93 2837 1262.2 2823.12 1262.2ZM3083.58 1219.95C3088.92 1219.95 3093.02 1220.86 3095.88 1222.69 3098.74 1224.52 3100.23 1227.32 3100.34 1231.08L3100.34 1232.48 3087.21 1232.48 3087.21 1231.17C3087.16 1229.91 3086.84 1228.81 3086.26 1227.85 3085.68 1226.89 3084.54 1226.42 3082.83 1226.42 3081.62 1226.42 3080.63 1226.72 3079.86 1227.32 3079.09 1227.92 3078.71 1228.85 3078.71 1230.1 3078.71 1230.98 3078.97 1231.73 3079.49 1232.35 3080.01 1232.98 3080.74 1233.57 3081.68 1234.11 3082.61 1234.66 3083.73 1235.21 3085.02 1235.75 3086.32 1236.3 3087.73 1236.9 3089.27 1237.55 3091.26 1238.43 3092.99 1239.22 3094.48 1239.93 3095.96 1240.64 3097.19 1241.46 3098.15 1242.38 3099.11 1243.31 3099.83 1244.42 3100.3 1245.7 3100.77 1246.98 3101 1248.61 3101 1250.57 3101 1253.03 3100.46 1255.06 3099.39 1256.67 3098.32 1258.28 3096.9 1259.56 3095.14 1260.52 3093.38 1261.47 3091.38 1262.14 3089.15 1262.53 3086.92 1262.91 3084.62 1263.1 3082.26 1263.1 3080.16 1263.1 3078.1 1262.91 3076.06 1262.53 3074.03 1262.14 3072.2 1261.47 3070.57 1260.52 3068.95 1259.56 3067.64 1258.28 3066.65 1256.67 3065.66 1255.06 3065.16 1253.03 3065.16 1250.57L3065.16 1249.26 3078.29 1249.26 3078.29 1250.33C3078.29 1252.07 3078.65 1253.45 3079.37 1254.46 3080.08 1255.47 3081.32 1255.98 3083.08 1255.98 3084.35 1255.98 3085.41 1255.63 3086.26 1254.95 3087.11 1254.27 3087.54 1253.3 3087.54 1252.04 3087.54 1251.23 3087.4 1250.53 3087.13 1249.96 3086.85 1249.38 3086.33 1248.84 3085.56 1248.32 3084.79 1247.8 3083.72 1247.24 3082.34 1246.64 3080.96 1246.04 3079.15 1245.25 3076.89 1244.27 3074.8 1243.39 3073.04 1242.59 3071.6 1241.85 3070.17 1241.11 3069 1240.31 3068.1 1239.44 3067.19 1238.56 3066.53 1237.55 3066.11 1236.41 3065.7 1235.26 3065.49 1233.81 3065.49 1232.07 3065.49 1229.61 3066.06 1227.6 3067.19 1226.05 3068.32 1224.49 3069.76 1223.26 3071.52 1222.36 3073.28 1221.46 3075.22 1220.84 3077.34 1220.48 3079.46 1220.13 3081.54 1219.95 3083.58 1219.95ZM3048.02 1219.95C3052.15 1219.95 3055.12 1220.92 3056.93 1222.86 3058.75 1224.79 3059.66 1227.95 3059.66 1232.31L3059.66 1262.2 3045.87 1262.2 3045.87 1234.93C3045.87 1232.48 3045.62 1230.59 3045.13 1229.28 3044.63 1227.97 3043.42 1227.32 3041.49 1227.32 3039.73 1227.32 3038.47 1228.07 3037.7 1229.57 3036.93 1231.07 3036.54 1233.1 3036.54 1235.67L3036.54 1262.2 3022.67 1262.2 3022.67 1227.4C3022.67 1227.18 3022.67 1226.76 3022.67 1226.13 3022.67 1225.5 3022.65 1224.85 3022.63 1224.17 3022.6 1223.48 3022.57 1222.83 3022.54 1222.2 3022.52 1221.57 3022.5 1221.15 3022.5 1220.93L3036.37 1220.93 3036.37 1225.27C3037.81 1223.36 3039.48 1222 3041.41 1221.18 3043.34 1220.36 3045.54 1219.95 3048.02 1219.95ZM2995.12 1219.95C2999.03 1219.95 3002.2 1220.41 3004.65 1221.34 3007.1 1222.27 3009.02 1223.63 3010.39 1225.43 3011.77 1227.24 3012.7 1229.49 3013.2 1232.19 3013.7 1234.89 3013.94 1238.02 3013.94 1241.56 3013.94 1244.62 3013.75 1247.46 3013.37 1250.08 3012.98 1252.7 3012.13 1254.98 3010.81 1256.92 3009.48 1258.85 3007.57 1260.38 3005.07 1261.5 3002.56 1262.62 2999.22 1263.18 2995.03 1263.18 2991.29 1263.18 2988.21 1262.72 2985.79 1261.79 2983.36 1260.86 2981.44 1259.48 2980.01 1257.65 2978.58 1255.82 2977.57 1253.56 2976.99 1250.86 2976.42 1248.16 2976.13 1245.06 2976.13 1241.56 2976.13 1238.29 2976.39 1235.31 2976.91 1232.64 2977.43 1229.96 2978.4 1227.69 2979.8 1225.8 2981.2 1223.92 2983.14 1222.47 2985.62 1221.46 2988.1 1220.45 2991.26 1219.95 2995.12 1219.95ZM2902.39 1219.95C2905.25 1219.95 2907.79 1220.17 2909.99 1220.6 2912.19 1221.04 2914.05 1221.82 2915.56 1222.94 2917.07 1224.06 2918.22 1225.56 2918.99 1227.44 2919.76 1229.32 2920.14 1231.68 2920.14 1234.52L2920.14 1250.49C2920.14 1252.4 2920.21 1254.35 2920.35 1256.34 2920.49 1258.34 2920.69 1260.29 2920.97 1262.2L2907.59 1262.2 2907.1 1256.88C2905.67 1259.28 2904.04 1260.91 2902.23 1261.79 2900.41 1262.66 2898.18 1263.1 2895.54 1263.1 2891.41 1263.1 2888.27 1262.01 2886.12 1259.82 2883.98 1257.64 2882.9 1254.36 2882.9 1250 2882.9 1246.94 2883.48 1244.47 2884.64 1242.59 2885.79 1240.7 2887.32 1239.26 2889.22 1238.25 2891.12 1237.24 2893.32 1236.57 2895.83 1236.24 2898.33 1235.91 2900.9 1235.75 2903.55 1235.75L2906.52 1235.75 2906.52 1233.46C2906.52 1231.44 2906.29 1229.81 2905.82 1228.59 2905.35 1227.36 2904.15 1226.74 2902.23 1226.74 2900.79 1226.74 2899.72 1227.19 2899.01 1228.1 2898.29 1229 2897.93 1230.21 2897.93 1231.74L2897.93 1232.72 2884.23 1232.72 2884.23 1231.9C2884.23 1229.39 2884.84 1227.34 2886.08 1225.76 2887.32 1224.18 2888.85 1222.96 2890.67 1222.12 2892.48 1221.27 2894.45 1220.7 2896.57 1220.4 2898.69 1220.1 2900.63 1219.95 2902.39 1219.95ZM2860.86 1219.95C2863.67 1219.95 2866.18 1220.18 2868.41 1220.64 2870.64 1221.11 2872.54 1221.94 2874.11 1223.14 2875.68 1224.34 2876.89 1225.94 2877.74 1227.93 2878.6 1229.92 2879.02 1232.42 2879.02 1235.42L2865.81 1235.42C2865.76 1234.6 2865.69 1233.73 2865.61 1232.8 2865.52 1231.88 2865.33 1231.03 2865.03 1230.27 2864.73 1229.5 2864.26 1228.86 2863.62 1228.34 2862.99 1227.82 2862.12 1227.56 2861.02 1227.56 2859.76 1227.56 2858.77 1227.9 2858.05 1228.59 2857.34 1229.27 2856.81 1230.25 2856.48 1231.53 2856.15 1232.82 2855.95 1234.4 2855.86 1236.28 2855.78 1238.17 2855.74 1240.28 2855.74 1242.63 2855.74 1244.38 2855.77 1246.04 2855.82 1247.62 2855.88 1249.21 2856.07 1250.58 2856.4 1251.76 2856.73 1252.93 2857.24 1253.86 2857.93 1254.54 2858.61 1255.22 2859.59 1255.57 2860.86 1255.57 2862.01 1255.57 2862.92 1255.29 2863.58 1254.75 2864.24 1254.2 2864.74 1253.51 2865.07 1252.66 2865.4 1251.81 2865.62 1250.9 2865.73 1249.92 2865.84 1248.93 2865.9 1248.03 2865.9 1247.21L2879.11 1247.21C2879.05 1249.78 2878.68 1252.04 2877.99 1254.01 2877.3 1255.98 2876.22 1257.64 2874.73 1259 2873.24 1260.37 2871.34 1261.41 2869.03 1262.12 2866.72 1262.83 2863.91 1263.18 2860.61 1263.18 2856.98 1263.18 2853.96 1262.74 2851.57 1261.87 2849.17 1261 2847.26 1259.7 2845.83 1257.98 2844.4 1256.26 2843.39 1254.11 2842.82 1251.51 2842.24 1248.92 2841.95 1245.93 2841.95 1242.55 2841.95 1239 2842.21 1235.83 2842.73 1233.05 2843.26 1230.27 2844.22 1227.9 2845.62 1225.97 2847.03 1224.03 2848.95 1222.54 2851.4 1221.5 2853.85 1220.47 2857 1219.95 2860.86 1219.95ZM2782.36 1219.95C2785.44 1219.95 2787.89 1220.47 2789.71 1221.5 2791.53 1222.54 2792.89 1223.97 2793.8 1225.8 2794.71 1227.63 2795.28 1229.83 2795.53 1232.39 2795.78 1234.96 2795.9 1237.8 2795.9 1240.91 2795.9 1243.8 2795.79 1246.59 2795.57 1249.26 2795.35 1251.94 2794.76 1254.3 2793.8 1256.34 2792.83 1258.39 2791.38 1260.03 2789.42 1261.26 2787.47 1262.48 2784.78 1263.1 2781.37 1263.1 2779.11 1263.1 2777.2 1262.73 2775.63 1261.99 2774.06 1261.26 2772.7 1260.04 2771.54 1258.35L2771.54 1278 2757.76 1278 2757.76 1228.96C2757.76 1228.9 2757.74 1228.46 2757.71 1227.65 2757.69 1226.83 2757.67 1225.93 2757.67 1224.94 2757.67 1223.96 2757.66 1223.06 2757.63 1222.24 2757.6 1221.42 2757.59 1220.99 2757.59 1220.93L2771.21 1220.93 2771.21 1225.6C2772.48 1223.52 2774.08 1222.06 2776 1221.22 2777.93 1220.37 2780.05 1219.95 2782.36 1219.95ZM2737.64 1219.95C2740.72 1219.95 2743.17 1220.47 2744.98 1221.5 2746.8 1222.54 2748.16 1223.97 2749.07 1225.8 2749.98 1227.63 2750.56 1229.83 2750.81 1232.39 2751.05 1234.96 2751.18 1237.8 2751.18 1240.91 2751.18 1243.8 2751.07 1246.59 2750.85 1249.26 2750.63 1251.94 2750.04 1254.3 2749.07 1256.34 2748.11 1258.39 2746.65 1260.03 2744.7 1261.26 2742.74 1262.48 2740.06 1263.1 2736.65 1263.1 2734.39 1263.1 2732.48 1262.73 2730.91 1261.99 2729.34 1261.26 2727.98 1260.04 2726.82 1258.35L2726.82 1278 2713.03 1278 2713.03 1228.96C2713.03 1228.9 2713.02 1228.46 2712.99 1227.65 2712.96 1226.83 2712.95 1225.93 2712.95 1224.94 2712.95 1223.96 2712.93 1223.06 2712.91 1222.24 2712.88 1221.42 2712.86 1220.99 2712.86 1220.93L2726.49 1220.93 2726.49 1225.6C2727.75 1223.52 2729.35 1222.06 2731.28 1221.22 2733.2 1220.37 2735.32 1219.95 2737.64 1219.95ZM2682.89 1213.48 2676.86 1240.25 2689.08 1240.25ZM2579.68 1213.48 2573.65 1240.25 2585.87 1240.25ZM2944.97 1209.06 2944.97 1220.93 2951.16 1220.93 2951.16 1228.55 2944.97 1228.55 2944.97 1250.73C2944.97 1252.43 2945.2 1253.61 2945.67 1254.3 2946.14 1254.98 2947.23 1255.32 2948.93 1255.32 2949.37 1255.32 2949.73 1255.31 2950.01 1255.28 2950.28 1255.25 2950.64 1255.18 2951.08 1255.07L2951.08 1262.2C2949.98 1262.47 2948.82 1262.66 2947.61 1262.77 2946.4 1262.88 2945.02 1262.93 2943.48 1262.93 2939.19 1262.93 2936.05 1262.16 2934.07 1260.6 2932.09 1259.05 2931.1 1256.14 2931.1 1251.88L2931.1 1228.55 2926.14 1228.55 2926.14 1220.93 2931.1 1220.93 2931.1 1213.89ZM2957.3 1203.25 2971.17 1203.25 2971.17 1213.23 2957.3 1213.23ZM2823.12 1203.25 2837 1203.25 2837 1213.23 2823.12 1213.23ZM2802.48 1203 2816.35 1203 2816.35 1262.2 2802.48 1262.2ZM2673.15 1203 2693.63 1203 2709.64 1262.2 2694.12 1262.2 2691.15 1249.83 2675.21 1249.83 2672.24 1262.2 2657.21 1262.2ZM2610.89 1203 2625.75 1203 2625.75 1262.2 2610.89 1262.2ZM2569.94 1203 2590.41 1203 2606.43 1262.2 2590.91 1262.2 2587.94 1249.83 2572 1249.83 2569.03 1262.2 2554 1262.2Z" fill="#2D2D2C" fill-rule="evenodd"/><path d="M2727.7 1451.88 2721.67 1478.66 2733.9 1478.66ZM2873.6 1451.22 2873.6 1490.78 2877.82 1490.78C2880.19 1490.78 2882.03 1490.3 2883.35 1489.35 2884.68 1488.39 2885.65 1487.03 2886.29 1485.25 2886.92 1483.48 2887.31 1481.36 2887.44 1478.9 2887.58 1476.45 2887.65 1473.69 2887.65 1470.63 2887.65 1467.19 2887.55 1464.24 2887.36 1461.79 2887.17 1459.33 2886.73 1457.32 2886.04 1455.77 2885.35 1454.21 2884.35 1453.06 2883.02 1452.33 2881.7 1451.59 2879.94 1451.22 2877.73 1451.22ZM2938.07 1441.39 2954.68 1441.39 2940.21 1467.52 2956 1500.61 2939.06 1500.61 2925.5 1468.17ZM2910.46 1441.39 2925.34 1441.39 2925.34 1500.61 2910.46 1500.61ZM2858.81 1441.39 2878.31 1441.39C2883.82 1441.39 2888.19 1441.91 2891.41 1442.95 2894.64 1443.99 2897.07 1445.62 2898.73 1447.86 2900.38 1450.1 2901.44 1453 2901.91 1456.54 2902.38 1460.09 2902.61 1464.38 2902.61 1469.4 2902.61 1474.81 2902.43 1479.48 2902.07 1483.41 2901.72 1487.34 2900.72 1490.57 2899.1 1493.11 2897.47 1495.65 2895.03 1497.54 2891.78 1498.77 2888.53 1499.99 2884.01 1500.61 2878.23 1500.61L2858.81 1500.61ZM2758.94 1441.39 2773.82 1441.39 2773.82 1500.61 2758.94 1500.61ZM2717.95 1441.39 2738.45 1441.39 2754.48 1500.61 2738.94 1500.61 2735.97 1488.24 2720.02 1488.24 2717.04 1500.61 2702 1500.61ZM2829.4 1440C2832.53 1440 2835.28 1440.29 2837.65 1440.86 2840.01 1441.43 2842 1442.38 2843.62 1443.69 2845.25 1445 2846.47 1446.72 2847.29 1448.85 2848.12 1450.98 2848.53 1453.6 2848.53 1456.71L2848.53 1458.35 2834.07 1458.35 2834.07 1456.87C2834.07 1456 2834.01 1455.14 2833.9 1454.29 2833.79 1453.45 2833.56 1452.69 2833.2 1452.04 2832.84 1451.38 2832.32 1450.85 2831.63 1450.44 2830.94 1450.03 2829.99 1449.83 2828.78 1449.83 2827.02 1449.83 2825.65 1450.28 2824.69 1451.18 2823.72 1452.08 2823.24 1453.35 2823.24 1454.99 2823.24 1456.35 2823.64 1457.55 2824.44 1458.59 2825.24 1459.63 2826.23 1460.56 2827.42 1461.38 2828.6 1462.2 2829.87 1462.95 2831.22 1463.63 2832.57 1464.31 2833.79 1464.98 2834.9 1465.64 2837.48 1467.11 2839.7 1468.46 2841.55 1469.69 2843.39 1470.92 2844.9 1472.21 2846.05 1473.58 2847.21 1474.94 2848.06 1476.51 2848.61 1478.29 2849.17 1480.06 2849.44 1482.26 2849.44 1484.88 2849.44 1488.16 2848.86 1490.9 2847.71 1493.11 2846.55 1495.32 2845.01 1497.09 2843.08 1498.4 2841.15 1499.71 2838.9 1500.63 2836.34 1501.18 2833.78 1501.73 2831.09 1502 2828.28 1502 2824.81 1502 2821.78 1501.7 2819.19 1501.1 2816.6 1500.5 2814.44 1499.46 2812.7 1497.99 2810.97 1496.51 2809.67 1494.53 2808.82 1492.05 2807.97 1489.56 2807.54 1486.47 2807.54 1482.75L2807.54 1481.69 2822.17 1481.69 2822.17 1483C2822.17 1485.89 2822.59 1488.14 2823.45 1489.76 2824.3 1491.37 2826 1492.17 2828.53 1492.17 2830.46 1492.17 2831.93 1491.64 2832.95 1490.57 2833.97 1489.51 2834.48 1488.13 2834.48 1486.44 2834.48 1484.91 2834.08 1483.57 2833.28 1482.43 2832.48 1481.28 2831.47 1480.26 2830.23 1479.35 2828.99 1478.45 2827.59 1477.62 2826.05 1476.86 2824.51 1476.09 2823.02 1475.3 2821.59 1474.48 2819.77 1473.5 2818.06 1472.5 2816.47 1471.49 2814.87 1470.48 2813.48 1469.32 2812.29 1468.01 2811.11 1466.7 2810.16 1465.16 2809.44 1463.38 2808.72 1461.61 2808.37 1459.47 2808.37 1456.95 2808.37 1453.68 2808.92 1450.96 2810.02 1448.8 2811.12 1446.65 2812.63 1444.91 2814.55 1443.6 2816.48 1442.29 2818.7 1441.36 2821.23 1440.82 2823.76 1440.27 2826.48 1440 2829.4 1440Z" fill="#2D2D2C" fill-rule="evenodd"/><path d="M2091.03 1651.21 2105.88 1651.21 2105.88 1656.17 2091.03 1656.17ZM2128.44 1626.75 2120.87 1655.02 2136.01 1655.02ZM2069.13 1625.89 2069.13 1644.66 2073.6 1644.66C2077.3 1644.66 2079.9 1643.97 2081.39 1642.58 2082.88 1641.19 2083.63 1638.65 2083.63 1634.95 2083.63 1631.5 2082.92 1629.13 2081.5 1627.83 2080.08 1626.54 2077.62 1625.89 2074.11 1625.89ZM2031.35 1625.89 2031.35 1643.87 2036.47 1643.87C2040.36 1643.87 2043.04 1643.2 2044.51 1641.86 2045.98 1640.52 2046.71 1637.93 2046.71 1634.09 2046.71 1631.07 2046.04 1628.95 2044.69 1627.73 2043.34 1626.5 2041.2 1625.89 2038.27 1625.89ZM1990.13 1625.82 1990.13 1668.11 1997.27 1668.11C1999.87 1668.11 2001.96 1667.51 2003.55 1666.31 2005.57 1664.82 2006.89 1661.8 2007.51 1657.25 2007.8 1655.09 2007.95 1651.59 2007.95 1646.75 2007.95 1641.95 2007.83 1638.57 2007.59 1636.61 2007.01 1632.1 2005.71 1629.13 2003.69 1627.69 2002.06 1626.44 1999.65 1625.82 1996.48 1625.82ZM2258.78 1621 2268.87 1621 2281.42 1666.81 2293.9 1621 2304 1621 2304 1673 2298.01 1673 2298.01 1625.53 2284.6 1673 2277.75 1673 2264.33 1625.53 2264.33 1673 2258.78 1673ZM2216.16 1621 2222.65 1621 2233.62 1667.32 2244.8 1621 2250.93 1621 2237.12 1673 2229.75 1673ZM2184.82 1621 2215.04 1621 2215.04 1625.96 2202.99 1625.96 2202.99 1673 2196.86 1673 2196.86 1625.96 2184.82 1625.96ZM2155.73 1621 2161.87 1621 2161.87 1673 2155.73 1673ZM2124.83 1621 2132.41 1621 2147.48 1673 2141.13 1673 2137.46 1659.84 2119.35 1659.84 2115.67 1673 2109.54 1673ZM2063 1621 2075.04 1621C2080.29 1621 2084.04 1621.96 2086.3 1623.88 2088.7 1625.99 2089.9 1629.65 2089.9 1634.88 2089.9 1640.97 2088.39 1645.07 2085.36 1647.18 2083.1 1648.76 2079.11 1649.55 2073.38 1649.55L2069.13 1649.55 2069.13 1673 2063 1673ZM2025.22 1621 2039.14 1621C2043.85 1621 2047.29 1621.91 2049.45 1623.73 2051.81 1625.7 2052.99 1629.06 2052.99 1633.8 2052.99 1637.25 2052.46 1639.92 2051.4 1641.79 2050.1 1643.99 2047.91 1645.5 2044.84 1646.32 2047.48 1646.56 2049.33 1647.42 2050.39 1648.91 2051.25 1650.06 2051.81 1651.95 2052.05 1654.59 2052.05 1654.78 2052.17 1657.68 2052.41 1663.29 2052.5 1664.87 2052.63 1667.01 2052.77 1669.69 2052.87 1670.41 2053.01 1671.51 2053.2 1673L2046.79 1673C2046.45 1671.08 2046.28 1669.28 2046.28 1667.61 2046.28 1666.74 2046.18 1664.47 2045.99 1660.77 2045.75 1655.59 2045.34 1652.48 2044.76 1651.42 2043.8 1649.6 2041.37 1648.69 2037.48 1648.69L2031.35 1648.69 2031.35 1673 2025.22 1673ZM1984 1621 1996.77 1621C2001.91 1621 2005.83 1622.01 2008.52 1624.02 2010.93 1625.79 2012.54 1628.41 2013.36 1631.86 2014.03 1634.74 2014.37 1639.51 2014.37 1646.17 2014.37 1651.64 2014.17 1655.69 2013.79 1658.33 2013.07 1663.31 2011.58 1666.89 2009.32 1669.04 2006.58 1671.68 2002.39 1673 1996.77 1673L1984 1673Z" fill="#FFFFFF" fill-rule="evenodd"/><path d="M2077.25 1807.37 2092.14 1807.37 2092.14 1812.36 2077.25 1812.36ZM2290.26 1796.16C2286.31 1796.16 2284.07 1798.52 2283.54 1803.25 2283.35 1804.89 2283.25 1806.45 2283.25 1807.95L2296.55 1807.95C2296.55 1804.43 2296.31 1801.95 2295.83 1800.5 2294.96 1797.61 2293.11 1796.16 2290.26 1796.16ZM2247.55 1792.84 2253.69 1792.84 2261.14 1823.49 2268.8 1792.84 2274.36 1792.84 2264.17 1829.28 2257.67 1829.28ZM2237.54 1792.84 2243.25 1792.84 2243.25 1829.28 2237.54 1829.28ZM2324.42 1792.11C2324.81 1792.11 2325 1793.94 2325 1797.61 2324.42 1797.51 2324.01 1797.46 2323.77 1797.46 2321.02 1797.46 2318.96 1798.31 2317.59 1799.99 2316.22 1801.68 2315.53 1803.92 2315.53 1806.72L2315.53 1829.28 2309.75 1829.28 2309.75 1799.49C2309.75 1797.03 2309.68 1794.81 2309.53 1792.84L2315.17 1792.84 2315.17 1797.61C2317.15 1793.94 2320.23 1792.11 2324.42 1792.11ZM2231.49 1792.11C2231.87 1792.11 2232.07 1793.94 2232.07 1797.61 2231.49 1797.51 2231.08 1797.46 2230.84 1797.46 2228.09 1797.46 2226.03 1798.31 2224.66 1799.99 2223.28 1801.68 2222.6 1803.92 2222.6 1806.72L2222.6 1829.28 2216.81 1829.28 2216.81 1799.49C2216.81 1797.03 2216.74 1794.81 2216.6 1792.84L2222.24 1792.84 2222.24 1797.61C2224.21 1793.94 2227.29 1792.11 2231.49 1792.11ZM2290.34 1792.04C2295.54 1792.04 2299.01 1793.97 2300.74 1797.82 2301.8 1800.23 2302.33 1804.36 2302.33 1810.19L2302.33 1811.85 2283.25 1811.85 2283.25 1814.31C2283.25 1818.02 2283.59 1820.7 2284.26 1822.34 2285.23 1824.7 2287.11 1825.88 2289.9 1825.88 2294.09 1825.88 2296.29 1823.2 2296.48 1817.85L2302.12 1817.85C2301.78 1825.95 2297.71 1830 2289.9 1830 2284.84 1830 2281.37 1828.29 2279.49 1824.87 2278.1 1822.31 2277.4 1818.19 2277.4 1812.5 2277.4 1806.04 2278 1801.42 2279.2 1798.62 2281.08 1794.23 2284.79 1792.04 2290.34 1792.04ZM2114.75 1782.78 2107.16 1811.2 2122.34 1811.2ZM2055.31 1781.92 2055.31 1800.79 2059.79 1800.79C2063.5 1800.79 2066.1 1800.09 2067.6 1798.69 2069.09 1797.29 2069.84 1794.74 2069.84 1791.03 2069.84 1787.56 2069.13 1785.17 2067.71 1783.87 2066.29 1782.57 2063.82 1781.92 2060.3 1781.92ZM2017.45 1781.92 2017.45 1799.99 2022.58 1799.99C2026.48 1799.99 2029.17 1799.32 2030.64 1797.97 2032.11 1796.62 2032.84 1794.02 2032.84 1790.16 2032.84 1787.12 2032.17 1784.99 2030.82 1783.76 2029.47 1782.53 2027.33 1781.92 2024.39 1781.92ZM2182.67 1781.84 2182.67 1824.36 2189.82 1824.36C2192.42 1824.36 2194.52 1823.76 2196.11 1822.55 2198.13 1821.06 2199.46 1818.02 2200.09 1813.44 2200.37 1811.27 2200.52 1807.75 2200.52 1802.89 2200.52 1798.07 2200.4 1794.67 2200.16 1792.69 2199.58 1788.16 2198.28 1785.17 2196.25 1783.72 2194.62 1782.47 2192.21 1781.84 2189.03 1781.84ZM1976.14 1781.84 1976.14 1824.36 1983.3 1824.36C1985.9 1824.36 1988 1823.76 1989.59 1822.55 1991.61 1821.06 1992.94 1818.02 1993.56 1813.44 1993.85 1811.27 1994 1807.75 1994 1802.89 1994 1798.07 1993.88 1794.67 1993.64 1792.69 1993.06 1788.16 1991.76 1785.17 1989.73 1783.72 1988.09 1782.47 1985.69 1781.84 1982.51 1781.84ZM2237.25 1777.72 2243.54 1777.72 2243.54 1783.94 2237.25 1783.94ZM2176.52 1777 2189.32 1777C2194.47 1777 2198.4 1778.01 2201.1 1780.04 2203.51 1781.82 2205.12 1784.45 2205.94 1787.92 2206.61 1790.81 2206.95 1795.61 2206.95 1802.31 2206.95 1807.8 2206.76 1811.88 2206.37 1814.53 2205.65 1819.54 2204.16 1823.13 2201.89 1825.3 2199.15 1827.95 2194.95 1829.28 2189.32 1829.28L2176.52 1829.28ZM2142.1 1777 2148.25 1777 2148.25 1829.28 2142.1 1829.28ZM2111.13 1777 2118.72 1777 2133.83 1829.28 2127.47 1829.28 2123.78 1816.05 2105.64 1816.05 2101.95 1829.28 2095.81 1829.28ZM2049.17 1777 2061.24 1777C2066.49 1777 2070.25 1777.96 2072.51 1779.89 2074.92 1782.01 2076.13 1785.7 2076.13 1790.96 2076.13 1797.08 2074.61 1801.2 2071.57 1803.32 2069.31 1804.91 2065.31 1805.71 2059.58 1805.71L2055.31 1805.71 2055.31 1829.28 2049.17 1829.28ZM2011.3 1777 2025.25 1777C2029.98 1777 2033.42 1777.92 2035.59 1779.75 2037.95 1781.72 2039.13 1785.1 2039.13 1789.87 2039.13 1793.34 2038.6 1796.02 2037.54 1797.9 2036.24 1800.11 2034.05 1801.63 2030.97 1802.45 2033.62 1802.69 2035.47 1803.56 2036.53 1805.05 2037.4 1806.21 2037.95 1808.12 2038.19 1810.77 2038.19 1810.96 2038.31 1813.88 2038.56 1819.52 2038.65 1821.11 2038.77 1823.25 2038.92 1825.95 2039.01 1826.67 2039.16 1827.78 2039.35 1829.28L2032.92 1829.28C2032.58 1827.35 2032.41 1825.54 2032.41 1823.85 2032.41 1822.99 2032.31 1820.7 2032.12 1816.99 2031.88 1811.78 2031.47 1808.65 2030.89 1807.59 2029.93 1805.75 2027.5 1804.84 2023.59 1804.84L2017.45 1804.84 2017.45 1829.28 2011.3 1829.28ZM1970 1777 1982.79 1777C1987.95 1777 1991.88 1778.01 1994.58 1780.04 1996.99 1781.82 1998.6 1784.45 1999.42 1787.92 2000.09 1790.81 2000.43 1795.61 2000.43 1802.31 2000.43 1807.8 2000.24 1811.88 1999.85 1814.53 1999.13 1819.54 1997.64 1823.13 1995.37 1825.3 1992.62 1827.95 1988.43 1829.28 1982.79 1829.28L1970 1829.28Z" fill="#FFFFFF" fill-rule="evenodd"/><path d="M2642.15 1768.79C2634.53 1768.79 2630.72 1771.39 2630.72 1776.59 2630.72 1781.26 2632.51 1783.59 2636.08 1783.59 2638.78 1783.59 2640.78 1782.44 2642.08 1780.13 2643.09 1778.3 2643.6 1775.96 2643.6 1773.12L2643.6 1768.79ZM2584.72 1754.2C2582.65 1754.2 2580.98 1755.07 2579.73 1756.8 2578.24 1758.87 2577.49 1762.99 2577.49 1769.15 2577.49 1774.54 2577.97 1778.18 2578.93 1780.06 2580.14 1782.41 2582.05 1783.59 2584.65 1783.59 2586.53 1783.59 2588.05 1782.68 2589.21 1780.85 2590.56 1778.68 2591.23 1774.49 2591.23 1768.28 2591.23 1764.29 2590.99 1761.37 2590.51 1759.54 2589.54 1755.98 2587.62 1754.2 2584.72 1754.2ZM2674.94 1750.81 2681.09 1750.81 2688.76 1779.98 2696.21 1750.81 2701.85 1750.81 2687.24 1801 2681.67 1801 2685.87 1787.21ZM2558.14 1750.81 2563.85 1750.81 2563.85 1787.21 2558.14 1787.21ZM2672.65 1750.08C2673.03 1750.08 2673.23 1751.91 2673.23 1755.57 2672.65 1755.48 2672.24 1755.43 2672 1755.43 2669.25 1755.43 2667.19 1756.27 2665.81 1757.96 2664.44 1759.64 2663.75 1761.88 2663.75 1764.67L2663.75 1787.21 2657.96 1787.21 2657.96 1757.45C2657.96 1754.99 2657.89 1752.78 2657.75 1750.81L2663.39 1750.81 2663.39 1755.57C2665.37 1751.91 2668.45 1750.08 2672.65 1750.08ZM2620.98 1750.08C2621.36 1750.08 2621.56 1751.91 2621.56 1755.57 2620.98 1755.48 2620.57 1755.43 2620.33 1755.43 2617.58 1755.43 2615.52 1756.27 2614.14 1757.96 2612.77 1759.64 2612.08 1761.88 2612.08 1764.67L2612.08 1787.21 2606.29 1787.21 2606.29 1757.45C2606.29 1754.99 2606.22 1752.78 2606.08 1750.81L2611.72 1750.81 2611.72 1755.57C2613.7 1751.91 2616.78 1750.08 2620.98 1750.08ZM2638.17 1750.01C2642.37 1750.01 2645.29 1751.02 2646.93 1753.04 2648.47 1754.87 2649.24 1757.91 2649.24 1762.14L2649.24 1775.58C2649.24 1779.96 2649.36 1783.84 2649.6 1787.21L2644.03 1787.21 2643.96 1782.44C2641.5 1786 2638.25 1787.78 2634.2 1787.78 2631.11 1787.78 2628.72 1786.77 2627.03 1784.75 2625.54 1782.82 2624.79 1780.27 2624.79 1777.09 2624.79 1771.94 2626.77 1768.48 2630.72 1766.69 2633.33 1765.49 2637.62 1764.86 2643.6 1764.82L2643.6 1763.23C2643.6 1760.24 2643.36 1758.17 2642.88 1757.02 2642.1 1755.09 2640.46 1754.13 2637.96 1754.13 2636.22 1754.13 2634.77 1754.61 2633.62 1755.57 2632.46 1756.54 2631.88 1757.88 2631.88 1759.62L2631.88 1759.98 2626.17 1759.98 2626.17 1759.62C2626.17 1756.29 2627.37 1753.81 2629.78 1752.18 2631.86 1750.73 2634.65 1750.01 2638.17 1750.01ZM2557.85 1735.71 2564.14 1735.71 2564.14 1741.92 2557.85 1741.92ZM2571.92 1734.99 2577.63 1734.99 2577.63 1754.49C2579.9 1751.5 2582.82 1750.01 2586.39 1750.01 2590.97 1750.01 2594.05 1752.08 2595.65 1756.22 2596.61 1758.77 2597.09 1762.82 2597.09 1768.36 2597.09 1774.13 2596.56 1778.42 2595.5 1781.21 2593.81 1785.59 2590.61 1787.78 2585.88 1787.78 2582.17 1787.78 2579.3 1786.19 2577.27 1783.02L2577.2 1787.21 2571.63 1787.21C2571.82 1783.93 2571.92 1781.62 2571.92 1780.27ZM2528.08 1734.99 2534.23 1734.99 2534.23 1782.22 2550.65 1782.22 2550.65 1787.21 2528.08 1787.21ZM2573.26 1682.81C2565.64 1682.81 2561.83 1685.41 2561.83 1690.61 2561.83 1695.28 2563.61 1697.62 2567.18 1697.62 2569.88 1697.62 2571.88 1696.46 2573.19 1694.15 2574.2 1692.32 2574.7 1689.99 2574.7 1687.14L2574.7 1682.81ZM2601.87 1668.37C2599.08 1668.37 2597.1 1669.93 2595.94 1673.06 2595.12 1675.37 2594.71 1678.81 2594.71 1683.39 2594.71 1687.87 2595 1691.02 2595.58 1692.85 2596.64 1695.98 2598.74 1697.54 2601.87 1697.54 2604.81 1697.54 2606.77 1695.69 2607.73 1691.98 2608.21 1690.06 2608.46 1686.83 2608.46 1682.31 2608.46 1678.02 2608.17 1674.94 2607.59 1673.06 2606.62 1669.93 2604.72 1668.37 2601.87 1668.37ZM2658.04 1664.83 2663.75 1664.83 2663.75 1701.23 2658.04 1701.23ZM2552.08 1664.11C2552.47 1664.11 2552.66 1665.93 2552.66 1669.59 2552.08 1669.5 2551.67 1669.45 2551.43 1669.45 2548.68 1669.45 2546.62 1670.29 2545.25 1671.98 2543.87 1673.66 2543.19 1675.9 2543.19 1678.69L2543.19 1701.23 2537.4 1701.23 2537.4 1671.47C2537.4 1669.02 2537.33 1666.8 2537.18 1664.83L2542.82 1664.83 2542.82 1669.59C2544.8 1665.93 2547.89 1664.11 2552.08 1664.11ZM2712.22 1664.03C2715.98 1664.03 2718.66 1664.91 2720.25 1666.67 2721.84 1668.43 2722.69 1671.14 2722.78 1674.79L2717.07 1674.79C2717.07 1670.27 2715.36 1668.01 2711.93 1668.01 2710.44 1668.01 2709.26 1668.46 2708.39 1669.38 2707.52 1670.29 2707.09 1671.5 2707.09 1672.99 2707.09 1674.63 2707.78 1676.02 2709.18 1677.18 2709.91 1677.85 2711.62 1678.91 2714.32 1680.36 2717.26 1681.94 2719.29 1683.29 2720.4 1684.4 2722.13 1686.23 2723 1688.52 2723 1691.26 2723 1698.34 2719.19 1701.88 2711.57 1701.88 2704.1 1701.88 2700.43 1697.95 2700.57 1690.11L2706.29 1690.11C2706.29 1690.83 2706.31 1691.5 2706.36 1692.13 2706.7 1695.93 2708.48 1697.83 2711.71 1697.83 2715.38 1697.83 2717.21 1695.96 2717.21 1692.2 2717.21 1690.18 2716.63 1688.59 2715.48 1687.43 2714.75 1686.66 2713.14 1685.6 2710.63 1684.26 2707.21 1682.43 2705.04 1681.08 2704.12 1680.21 2702.29 1678.53 2701.37 1676.29 2701.37 1673.49 2701.37 1670.36 2702.41 1667.98 2704.48 1666.34 2706.41 1664.8 2708.99 1664.03 2712.22 1664.03ZM2683.03 1664.03C2687.17 1664.03 2690.12 1665 2691.85 1666.92 2693.44 1668.75 2694.24 1671.71 2694.24 1675.81L2688.6 1675.81C2688.6 1670.7 2686.72 1668.15 2682.95 1668.15 2679.97 1668.15 2678.01 1669.76 2677.1 1672.99 2676.56 1674.87 2676.3 1678.21 2676.3 1683.03 2676.3 1688.52 2676.71 1692.3 2677.53 1694.37 2678.45 1696.68 2680.18 1697.83 2682.74 1697.83 2685 1697.83 2686.6 1697.04 2687.51 1695.45 2688.19 1694.25 2688.55 1692.39 2688.6 1689.89L2694.24 1689.89C2694.24 1697.93 2690.45 1701.95 2682.88 1701.95 2677.67 1701.95 2674.18 1700.26 2672.39 1696.89 2671.04 1694.34 2670.37 1689.91 2670.37 1683.61 2670.37 1677.3 2670.97 1672.82 2672.18 1670.17 2674.01 1666.08 2677.63 1664.03 2683.03 1664.03ZM2603.54 1664.03C2608.02 1664.03 2611.08 1665.98 2612.72 1669.88 2613.78 1672.53 2614.32 1676.7 2614.32 1682.38 2614.32 1688.44 2613.78 1692.8 2612.72 1695.45 2611.08 1699.64 2607.9 1701.73 2603.18 1701.73 2599.56 1701.73 2596.79 1700.38 2594.86 1697.69L2594.86 1715.02 2589.14 1715.02 2589.14 1673.28C2589.14 1669.18 2589.05 1666.37 2588.85 1664.83L2594.49 1664.83 2594.49 1669.16C2596.57 1665.74 2599.58 1664.03 2603.54 1664.03ZM2569.28 1664.03C2573.48 1664.03 2576.39 1665.04 2578.03 1667.07 2579.58 1668.9 2580.35 1671.93 2580.35 1676.17L2580.35 1689.6C2580.35 1693.98 2580.47 1697.86 2580.71 1701.23L2575.14 1701.23 2575.07 1696.46C2572.61 1700.02 2569.35 1701.81 2565.3 1701.81 2562.21 1701.81 2559.83 1700.79 2558.14 1698.77 2556.64 1696.85 2555.9 1694.29 2555.9 1691.12 2555.9 1685.96 2557.87 1682.5 2561.83 1680.72 2564.43 1679.51 2568.72 1678.89 2574.7 1678.84L2574.7 1677.25C2574.7 1674.26 2574.46 1672.19 2573.98 1671.04 2573.21 1669.11 2571.57 1668.15 2569.06 1668.15 2567.33 1668.15 2565.88 1668.63 2564.72 1669.59 2563.56 1670.56 2562.99 1671.91 2562.99 1673.64L2562.99 1674 2557.27 1674 2557.27 1673.64C2557.27 1670.32 2558.48 1667.84 2560.89 1666.2 2562.96 1664.76 2565.76 1664.03 2569.28 1664.03ZM2657.75 1649.73 2664.04 1649.73 2664.04 1655.94 2657.75 1655.94ZM2623.59 1649.01 2629.3 1649.01 2629.3 1669.02C2631.67 1665.69 2634.73 1664.03 2638.49 1664.03 2644.86 1664.03 2648.04 1667.84 2648.04 1675.44L2648.04 1701.23 2642.32 1701.23 2642.32 1677.97C2642.32 1674.89 2642.11 1672.75 2641.67 1671.54 2640.85 1669.43 2639.19 1668.37 2636.68 1668.37 2631.76 1668.37 2629.3 1671.95 2629.3 1679.13L2629.3 1701.23 2623.59 1701.23ZM2515.35 1648C2525.09 1648 2529.96 1652.77 2529.96 1662.3L2529.96 1663.02 2523.67 1663.02 2523.67 1662.08C2523.67 1655.97 2520.92 1652.91 2515.42 1652.91 2510.94 1652.91 2507.99 1655.2 2506.6 1659.77 2505.78 1662.52 2505.37 1667.62 2505.37 1675.08 2505.37 1682.93 2505.78 1688.16 2506.6 1690.76 2507.95 1695.14 2510.98 1697.33 2515.71 1697.33 2518.65 1697.33 2521.26 1696.82 2523.52 1695.81L2523.52 1678.69 2514.48 1678.69 2514.48 1673.86 2529.53 1673.86 2529.53 1699.86C2524.95 1701.4 2520.39 1702.17 2515.85 1702.17 2508.52 1702.17 2503.7 1699.66 2501.39 1694.66 2499.8 1691.19 2499 1684.79 2499 1675.44 2499 1666.1 2499.82 1659.6 2501.46 1655.94 2503.77 1650.65 2508.4 1648 2515.35 1648Z" fill="#FFFFFF" fill-rule="evenodd"/><path d="M3057.02 1699.16 3044.88 1728.7 3057.02 1728.7ZM3054.5 1693.88 3062.55 1693.88 3062.55 1728.7 3068.08 1728.7 3068.08 1733.32 3062.55 1733.32 3062.55 1746 3056.95 1746 3056.95 1733.32 3040.21 1733.32 3040.21 1727.6ZM3115.79 1693C3123.93 1693 3128 1696.99 3128 1704.97 3128 1709.13 3126.18 1714.02 3122.54 1719.65L3108.53 1741.38 3127.93 1741.38 3127.93 1746 3102.28 1746 3102.28 1740.64 3119.02 1714.21C3120.94 1711.18 3121.89 1707.9 3121.89 1704.37 3121.89 1699.87 3119.76 1697.62 3115.5 1697.62 3110.9 1697.62 3108.6 1700.62 3108.6 1706.64L3102.71 1706.64C3102.71 1706.05 3102.76 1705.2 3102.86 1704.08 3103.58 1696.69 3107.89 1693 3115.79 1693ZM3074.23 1693 3080.33 1693 3080.33 1740.94 3096.64 1740.94 3096.64 1746 3074.23 1746ZM3001 1693 3007.47 1693 3018.38 1740.21 3029.52 1693 3035.62 1693 3021.88 1746 3014.53 1746Z" fill="#FFFFFF" fill-rule="evenodd"/><path d="M3542.21 1773.3C3539.94 1773.3 3538.43 1774.57 3537.7 1777.13 3537.26 1778.66 3537.04 1781.19 3537.04 1784.72 3537.04 1787.9 3537.26 1790.16 3537.7 1791.5 3538.4 1793.76 3539.81 1794.89 3541.94 1794.89 3544.43 1794.89 3546.08 1793.53 3546.89 1790.79 3547.29 1789.37 3547.49 1786.97 3547.49 1783.58 3547.49 1780.48 3547.23 1778.18 3546.72 1776.69 3545.91 1774.43 3544.41 1773.3 3542.21 1773.3ZM3483.77 1773.24C3481.61 1773.24 3480.14 1774.45 3479.37 1776.85 3478.86 1778.42 3478.6 1780.86 3478.6 1784.18 3478.6 1787.79 3478.9 1790.43 3479.48 1792.11 3480.25 1794.37 3481.63 1795.5 3483.61 1795.5 3485.96 1795.5 3487.51 1794.35 3488.28 1792.05 3488.8 1790.56 3489.05 1788.11 3489.05 1784.72 3489.05 1780.97 3488.78 1778.29 3488.23 1776.69 3487.46 1774.39 3485.97 1773.24 3483.77 1773.24ZM3499.31 1770.67 3503.66 1770.67 3503.66 1798.23 3499.31 1798.23ZM3451.19 1770.67 3455.53 1770.67 3455.53 1788.28C3455.53 1790.54 3455.71 1792.14 3456.08 1793.09 3456.7 1794.66 3457.99 1795.44 3459.93 1795.44 3463.56 1795.44 3465.38 1792.76 3465.38 1787.4L3465.38 1770.67 3469.78 1770.67 3469.78 1792.16C3469.78 1794.31 3469.85 1796.33 3470 1798.23L3465.65 1798.23 3465.6 1794.73C3463.91 1797.35 3461.58 1798.67 3458.61 1798.67 3453.66 1798.67 3451.19 1795.84 3451.19 1790.19ZM3382.44 1770.67 3386.78 1770.67 3386.78 1798.23 3382.44 1798.23ZM3541 1770.07C3544.08 1770.07 3546.3 1771.35 3547.66 1773.9L3547.66 1770.67 3552 1770.67C3552 1771.07 3551.97 1771.79 3551.92 1772.83 3551.86 1773.87 3551.84 1774.68 3551.84 1775.27L3551.84 1799.38C3551.84 1802.73 3551.05 1805.17 3549.47 1806.7 3547.89 1808.23 3545.38 1809 3541.94 1809 3536.22 1809 3533.32 1806.34 3533.25 1801.02L3537.92 1801.02C3537.92 1804.37 3539.34 1806.05 3542.19 1806.05 3544.41 1806.05 3545.89 1805.25 3546.61 1803.64 3547.13 1802.58 3547.38 1800.84 3547.38 1798.39L3547.38 1794.68C3545.84 1796.83 3543.7 1797.9 3540.95 1797.9 3537.5 1797.9 3535.13 1796.46 3533.85 1793.58 3533.01 1791.69 3532.59 1788.73 3532.59 1784.72 3532.59 1780.28 3533.04 1776.96 3533.96 1774.77 3535.28 1771.64 3537.63 1770.07 3541 1770.07ZM3520.9 1770.07C3525.77 1770.07 3528.21 1772.93 3528.21 1778.66L3528.21 1798.23 3523.87 1798.23 3523.87 1780.62C3523.87 1778.26 3523.7 1776.63 3523.37 1775.76 3522.75 1774.15 3521.48 1773.35 3519.58 1773.35 3517.71 1773.35 3516.26 1774.26 3515.23 1776.09 3514.39 1777.65 3513.97 1779.51 3513.97 1781.66L3513.97 1798.23 3509.62 1798.23 3509.62 1776.69C3509.62 1774.25 3509.55 1772.24 3509.4 1770.67L3513.69 1770.67 3513.69 1774.45C3515.23 1771.53 3517.64 1770.07 3520.9 1770.07ZM3425.34 1770.07C3428.49 1770.07 3430.73 1770.8 3432.05 1772.26 3433.26 1773.64 3433.86 1775.89 3433.86 1778.98L3429.57 1778.98C3429.57 1775.12 3428.14 1773.19 3425.28 1773.19 3423.01 1773.19 3421.52 1774.41 3420.83 1776.85 3420.42 1778.27 3420.22 1780.81 3420.22 1784.45 3420.22 1788.61 3420.53 1791.47 3421.16 1793.04 3421.85 1794.78 3423.17 1795.66 3425.12 1795.66 3426.84 1795.66 3428.05 1795.06 3428.75 1793.86 3429.26 1792.94 3429.53 1791.54 3429.57 1789.65L3433.86 1789.65C3433.86 1795.73 3430.98 1798.78 3425.23 1798.78 3421.27 1798.78 3418.61 1797.5 3417.25 1794.95 3416.22 1793.02 3415.71 1789.66 3415.71 1784.89 3415.71 1780.11 3416.17 1776.72 3417.09 1774.72 3418.48 1771.62 3421.23 1770.07 3425.34 1770.07ZM3404.02 1770.07C3408.9 1770.07 3411.34 1772.93 3411.34 1778.66L3411.34 1798.23 3406.99 1798.23 3406.99 1780.62C3406.99 1778.26 3406.83 1776.63 3406.5 1775.76 3405.87 1774.15 3404.61 1773.35 3402.7 1773.35 3400.83 1773.35 3399.38 1774.26 3398.36 1776.09 3397.51 1777.65 3397.09 1779.51 3397.09 1781.66L3397.09 1798.23 3392.75 1798.23 3392.75 1776.69C3392.75 1774.25 3392.67 1772.24 3392.53 1770.67L3396.82 1770.67 3396.82 1774.45C3398.36 1771.53 3400.76 1770.07 3404.02 1770.07ZM3589.92 1761.65C3586.15 1761.65 3583.89 1763.93 3583.16 1768.49 3582.86 1770.35 3582.72 1773.64 3582.72 1778.38 3582.72 1783.52 3582.86 1786.95 3583.16 1788.66 3583.52 1790.88 3584.19 1792.51 3585.14 1793.53 3586.2 1794.69 3587.8 1795.28 3589.92 1795.28 3593.37 1795.28 3595.55 1793.2 3596.47 1789.04 3596.87 1787.19 3597.07 1783.61 3597.07 1778.33 3597.07 1773.19 3596.87 1769.62 3596.47 1767.61 3595.66 1763.64 3593.48 1761.65 3589.92 1761.65ZM3499.09 1759.25 3503.88 1759.25 3503.88 1763.95 3499.09 1763.95ZM3382.22 1759.25 3387 1759.25 3387 1763.95 3382.22 1763.95ZM3488.89 1758.7 3493.29 1758.7 3493.29 1793.04C3493.29 1794.02 3493.36 1795.75 3493.51 1798.23L3489.27 1798.23 3489.22 1795.06C3487.64 1797.46 3485.48 1798.67 3482.73 1798.67 3479.17 1798.67 3476.73 1797.08 3475.41 1793.91 3474.57 1791.8 3474.15 1788.52 3474.15 1784.07 3474.15 1779.88 3474.64 1776.71 3475.63 1774.56 3476.95 1771.57 3479.28 1770.07 3482.62 1770.07 3485.41 1770.07 3487.5 1771.15 3488.89 1773.3ZM3440.87 1758.7 3445.22 1758.7 3445.22 1798.23 3440.87 1798.23ZM3646.85 1757.93C3653.69 1757.93 3657.11 1761.12 3657.11 1767.5L3657.11 1768.81 3652.43 1768.81 3652.43 1767.89C3652.43 1765.84 3652.06 1764.35 3651.33 1763.4 3650.41 1762.24 3648.87 1761.65 3646.71 1761.65 3644.88 1761.65 3643.45 1762.18 3642.42 1763.24 3641.39 1764.3 3640.88 1765.73 3640.88 1767.56 3640.88 1769.82 3641.74 1771.69 3643.47 1773.19 3643.61 1773.3 3645.48 1774.5 3649.08 1776.8 3652.27 1778.8 3654.25 1780.26 3655.02 1781.17 3656.67 1782.99 3657.49 1785.45 3657.49 1788.55 3657.49 1791.98 3656.52 1794.57 3654.58 1796.32 3652.63 1798.07 3649.97 1798.94 3646.6 1798.94 3642.68 1798.94 3639.84 1798.01 3638.08 1796.15 3636.35 1794.37 3635.49 1791.5 3635.49 1787.57L3635.49 1787.13 3640.33 1787.13 3640.33 1787.57C3640.33 1790.05 3640.73 1791.87 3641.54 1793.04 3642.53 1794.53 3644.22 1795.28 3646.6 1795.28 3650.63 1795.28 3652.65 1793.14 3652.65 1788.88 3652.65 1786.73 3651.95 1784.96 3650.56 1783.58 3649.94 1782.96 3648.34 1781.86 3645.78 1780.3 3642.22 1778.11 3639.91 1776.47 3638.85 1775.38 3636.98 1773.41 3636.04 1770.89 3636.04 1767.83 3636.04 1764.62 3637.06 1762.14 3639.11 1760.39 3641.01 1758.75 3643.59 1757.93 3646.85 1757.93ZM3619.35 1757.93C3626.19 1757.93 3629.61 1761.12 3629.61 1767.5L3629.61 1768.81 3624.93 1768.81 3624.93 1767.89C3624.93 1765.84 3624.56 1764.35 3623.83 1763.4 3622.91 1762.24 3621.37 1761.65 3619.21 1761.65 3617.38 1761.65 3615.95 1762.18 3614.92 1763.24 3613.89 1764.3 3613.38 1765.73 3613.38 1767.56 3613.38 1769.82 3614.24 1771.69 3615.97 1773.19 3616.11 1773.3 3617.98 1774.5 3621.58 1776.8 3624.77 1778.8 3626.75 1780.26 3627.52 1781.17 3629.17 1782.99 3629.99 1785.45 3629.99 1788.55 3629.99 1791.98 3629.02 1794.57 3627.08 1796.32 3625.13 1798.07 3622.47 1798.94 3619.1 1798.94 3615.18 1798.94 3612.34 1798.01 3610.58 1796.15 3608.85 1794.37 3607.99 1791.5 3607.99 1787.57L3607.99 1787.13 3612.83 1787.13 3612.83 1787.57C3612.83 1790.05 3613.23 1791.87 3614.04 1793.04 3615.03 1794.53 3616.72 1795.28 3619.1 1795.28 3623.13 1795.28 3625.15 1793.14 3625.15 1788.88 3625.15 1786.73 3624.45 1784.96 3623.06 1783.58 3622.44 1782.96 3620.84 1781.86 3618.28 1780.3 3614.72 1778.11 3612.41 1776.47 3611.35 1775.38 3609.48 1773.41 3608.54 1770.89 3608.54 1767.83 3608.54 1764.62 3609.56 1762.14 3611.61 1760.39 3613.51 1758.75 3616.09 1757.93 3619.35 1757.93ZM3589.92 1757.93C3593.96 1757.93 3596.93 1759.08 3598.83 1761.38 3600.15 1762.98 3601.03 1765.21 3601.47 1768.05 3601.8 1770.2 3601.97 1773.72 3601.97 1778.6 3601.97 1785.49 3601.4 1790.25 3600.26 1792.87 3598.5 1796.92 3595.02 1798.94 3589.81 1798.94 3584.72 1798.94 3581.29 1797.03 3579.53 1793.2 3578.72 1791.41 3578.21 1789.04 3577.99 1786.09 3577.92 1784.93 3577.88 1782.45 3577.88 1778.66 3577.88 1773.74 3578.02 1770.25 3578.32 1768.21 3578.72 1765.52 3579.58 1763.33 3580.9 1761.65 3582.81 1759.17 3585.82 1757.93 3589.92 1757.93ZM3632.42 1711.59C3624.82 1711.59 3621.02 1714.17 3621.02 1719.34 3621.02 1723.98 3622.8 1726.3 3626.36 1726.3 3629.06 1726.3 3631.05 1725.15 3632.35 1722.85 3633.36 1721.04 3633.87 1718.72 3633.87 1715.89L3633.87 1711.59ZM3575.11 1697.09C3573.05 1697.09 3571.39 1697.95 3570.13 1699.68 3568.64 1701.73 3567.9 1705.82 3567.9 1711.95 3567.9 1717.3 3568.38 1720.92 3569.34 1722.78 3570.54 1725.13 3572.44 1726.3 3575.04 1726.3 3576.92 1726.3 3578.44 1725.39 3579.59 1723.57 3580.94 1721.42 3581.61 1717.26 3581.61 1711.09 3581.61 1707.12 3581.37 1704.22 3580.89 1702.4 3579.93 1698.86 3578 1697.09 3575.11 1697.09ZM3460.31 1697.02C3456.36 1697.02 3454.12 1699.37 3453.59 1704.05 3453.4 1705.68 3453.3 1707.23 3453.3 1708.72L3466.59 1708.72C3466.59 1705.23 3466.35 1702.76 3465.86 1701.33 3465 1698.46 3463.14 1697.02 3460.31 1697.02ZM3665.15 1693.72 3671.28 1693.72 3678.93 1722.71 3686.37 1693.72 3692 1693.72 3677.42 1743.59 3671.86 1743.59 3676.05 1729.89ZM3548.59 1693.72 3554.29 1693.72 3554.29 1729.89 3548.59 1729.89ZM3662.86 1693C3663.24 1693 3663.43 1694.82 3663.43 1698.46 3662.86 1698.36 3662.45 1698.31 3662.21 1698.31 3659.46 1698.31 3657.41 1699.15 3656.04 1700.82 3654.66 1702.5 3653.98 1704.72 3653.98 1707.5L3653.98 1729.89 3648.2 1729.89 3648.2 1700.32C3648.2 1697.88 3648.13 1695.68 3647.99 1693.72L3653.62 1693.72 3653.62 1698.46C3655.59 1694.82 3658.67 1693 3662.86 1693ZM3611.29 1693C3611.68 1693 3611.87 1694.82 3611.87 1698.46 3611.29 1698.36 3610.89 1698.31 3610.64 1698.31 3607.9 1698.31 3605.84 1699.15 3604.47 1700.82 3603.1 1702.5 3602.42 1704.72 3602.42 1707.5L3602.42 1729.89 3596.64 1729.89 3596.64 1700.32C3596.64 1697.88 3596.57 1695.68 3596.42 1693.72L3602.05 1693.72 3602.05 1698.46C3604.03 1694.82 3607.11 1693 3611.29 1693ZM3494.42 1693C3494.8 1693 3495 1694.82 3495 1698.46 3494.42 1698.36 3494.01 1698.31 3493.77 1698.31 3491.03 1698.31 3488.97 1699.15 3487.6 1700.82 3486.23 1702.5 3485.54 1704.72 3485.54 1707.5L3485.54 1729.89 3479.77 1729.89 3479.77 1700.32C3479.77 1697.88 3479.69 1695.68 3479.55 1693.72L3485.18 1693.72 3485.18 1698.46C3487.15 1694.82 3490.23 1693 3494.42 1693ZM3628.45 1692.93C3632.64 1692.93 3635.55 1693.94 3637.19 1695.94 3638.73 1697.76 3639.5 1700.78 3639.5 1704.99L3639.5 1718.33C3639.5 1722.69 3639.62 1726.54 3639.86 1729.89L3634.3 1729.89 3634.23 1725.15C3631.77 1728.69 3628.53 1730.46 3624.48 1730.46 3621.4 1730.46 3619.02 1729.46 3617.34 1727.45 3615.85 1725.53 3615.1 1723 3615.1 1719.84 3615.1 1714.72 3617.07 1711.28 3621.02 1709.51 3623.62 1708.31 3627.9 1707.69 3633.87 1707.64L3633.87 1706.06C3633.87 1703.1 3633.63 1701.04 3633.15 1699.89 3632.38 1697.98 3630.74 1697.02 3628.24 1697.02 3626.51 1697.02 3625.06 1697.5 3623.91 1698.46 3622.75 1699.41 3622.17 1700.75 3622.17 1702.47L3622.17 1702.83 3616.47 1702.83 3616.47 1702.47C3616.47 1699.17 3617.67 1696.71 3620.08 1695.08 3622.15 1693.65 3624.94 1692.93 3628.45 1692.93ZM3460.38 1692.93C3465.58 1692.93 3469.04 1694.84 3470.77 1698.67 3471.83 1701.06 3472.36 1705.15 3472.36 1710.94L3472.36 1712.59 3453.3 1712.59 3453.3 1715.03C3453.3 1718.72 3453.64 1721.37 3454.31 1723 3455.28 1725.34 3457.15 1726.51 3459.94 1726.51 3464.13 1726.51 3466.32 1723.86 3466.51 1718.55L3472.14 1718.55C3471.81 1726.59 3467.74 1730.6 3459.94 1730.6 3454.89 1730.6 3451.43 1728.91 3449.55 1725.51 3448.15 1722.97 3447.46 1718.88 3447.46 1713.24 3447.46 1706.83 3448.06 1702.24 3449.26 1699.46 3451.14 1695.11 3454.84 1692.93 3460.38 1692.93ZM3401.26 1684.53 3401.26 1693.72 3407.76 1693.72 3407.76 1697.88 3401.26 1697.88 3401.26 1720.57C3401.26 1722.58 3401.55 1723.92 3402.13 1724.62 3402.71 1725.31 3403.79 1725.65 3405.38 1725.65 3405.67 1725.65 3406.53 1725.56 3407.98 1725.37L3407.98 1729.88C3406.2 1730.08 3404.8 1730.17 3403.79 1730.17 3400.52 1730.17 3398.28 1729.48 3397.08 1728.09 3396.07 1726.85 3395.56 1724.58 3395.56 1721.28L3395.56 1697.88 3390.15 1697.88 3390.15 1693.72 3395.56 1693.72 3395.56 1687.05ZM3367.81 1681.88C3362.85 1681.88 3359.89 1684.87 3358.93 1690.85 3358.55 1693.29 3358.35 1697.62 3358.35 1703.84 3358.35 1710.58 3358.55 1715.08 3358.93 1717.33 3359.41 1720.25 3360.28 1722.38 3361.53 1723.72 3362.92 1725.25 3365.02 1726.01 3367.81 1726.01 3372.33 1726.01 3375.2 1723.29 3376.4 1717.83 3376.93 1715.39 3377.19 1710.7 3377.19 1703.77 3377.19 1697.02 3376.93 1692.33 3376.4 1689.7 3375.34 1684.49 3372.48 1681.88 3367.81 1681.88ZM3548.3 1678.72 3554.58 1678.72 3554.58 1684.89 3548.3 1684.89ZM3562.34 1678 3568.04 1678 3568.04 1697.38C3570.3 1694.41 3573.21 1692.93 3576.77 1692.93 3581.35 1692.93 3584.43 1694.99 3586.01 1699.1 3586.98 1701.64 3587.46 1705.66 3587.46 1711.16 3587.46 1716.9 3586.93 1721.16 3585.87 1723.93 3584.19 1728.28 3580.99 1730.46 3576.27 1730.46 3572.56 1730.46 3569.7 1728.88 3567.68 1725.72L3567.61 1729.89 3562.05 1729.89C3562.24 1726.63 3562.34 1724.34 3562.34 1723ZM3518.59 1678 3524.72 1678 3524.72 1724.94 3541.11 1724.94 3541.11 1729.89 3518.59 1729.89ZM3414.52 1678 3420.23 1678 3420.23 1697.88C3422.59 1694.58 3425.64 1692.93 3429.4 1692.93 3435.75 1692.93 3438.92 1696.71 3438.92 1704.27L3438.92 1729.89 3433.22 1729.89 3433.22 1706.78C3433.22 1703.72 3433 1701.59 3432.57 1700.39 3431.75 1698.29 3430.09 1697.24 3427.59 1697.24 3422.68 1697.24 3420.23 1700.8 3420.23 1707.93L3420.23 1729.89 3414.52 1729.89ZM3367.81 1677C3373.1 1677 3377 1678.51 3379.5 1681.52 3381.24 1683.63 3382.39 1686.54 3382.97 1690.28 3383.4 1693.1 3383.62 1697.71 3383.62 1704.13 3383.62 1713.17 3382.87 1719.41 3381.38 1722.85 3379.07 1728.16 3374.5 1730.82 3367.66 1730.82 3360.98 1730.82 3356.48 1728.31 3354.17 1723.29 3353.11 1720.94 3352.43 1717.83 3352.14 1713.96 3352.05 1712.43 3352 1709.17 3352 1704.2 3352 1697.74 3352.19 1693.17 3352.58 1690.49 3353.11 1686.95 3354.24 1684.08 3355.97 1681.88 3358.47 1678.63 3362.42 1677 3367.81 1677Z" fill="#FFFFFF" fill-rule="evenodd"/></g></svg>