<svg width="2444" height="1446" xmlns="http://www.w3.org/2000/svg" xmlns:xlink="http://www.w3.org/1999/xlink" xml:space="preserve" overflow="hidden"><defs><clipPath id="clip0"><rect x="1836" y="813" width="2444" height="1446"/></clipPath></defs><g clip-path="url(#clip0)" transform="translate(-1836 -813)"><rect x="1836" y="813" width="2444" height="1446" fill="#FFFFFF"/><rect x="1888" y="1373" width="2327" height="677" fill="#807EDE" fill-opacity="0.2"/><path d="M2945.6 1451.88 2939.59 1478.66 2951.78 1478.66ZM3090.93 1451.22 3090.93 1490.78 3095.12 1490.78C3097.48 1490.78 3099.32 1490.3 3100.64 1489.35 3101.96 1488.39 3102.93 1487.03 3103.56 1485.25 3104.19 1483.48 3104.58 1481.36 3104.71 1478.9 3104.85 1476.45 3104.92 1473.69 3104.92 1470.63 3104.92 1467.19 3104.82 1464.24 3104.63 1461.79 3104.44 1459.33 3104 1457.32 3103.32 1455.77 3102.63 1454.21 3101.63 1453.06 3100.31 1452.33 3098.99 1451.59 3097.24 1451.22 3095.04 1451.22ZM3155.14 1441.39 3171.68 1441.39 3157.28 1467.52 3173 1500.61 3156.12 1500.61 3142.62 1468.17ZM3127.64 1441.39 3142.46 1441.39 3142.46 1500.61 3127.64 1500.61ZM3076.19 1441.39 3095.62 1441.39C3101.11 1441.39 3105.46 1441.91 3108.67 1442.95 3111.88 1443.99 3114.31 1445.62 3115.95 1447.86 3117.6 1450.1 3118.65 1453 3119.12 1456.54 3119.59 1460.09 3119.82 1464.38 3119.82 1469.4 3119.82 1474.81 3119.64 1479.48 3119.29 1483.41 3118.93 1487.34 3117.94 1490.57 3116.32 1493.11 3114.7 1495.65 3112.27 1497.54 3109.04 1498.77 3105.8 1499.99 3101.3 1500.61 3095.54 1500.61L3076.19 1500.61ZM2976.72 1441.39 2991.54 1441.39 2991.54 1500.61 2976.72 1500.61ZM2935.89 1441.39 2956.3 1441.39 2972.27 1500.61 2956.8 1500.61 2953.83 1488.24 2937.95 1488.24 2934.98 1500.61 2920 1500.61ZM3046.9 1440C3050.02 1440 3052.76 1440.29 3055.11 1440.86 3057.47 1441.43 3059.45 1442.38 3061.07 1443.69 3062.68 1445 3063.9 1446.72 3064.72 1448.85 3065.54 1450.98 3065.96 1453.6 3065.96 1456.71L3065.96 1458.35 3051.55 1458.35 3051.55 1456.87C3051.55 1456 3051.49 1455.14 3051.38 1454.29 3051.27 1453.45 3051.04 1452.69 3050.68 1452.04 3050.33 1451.38 3049.81 1450.85 3049.12 1450.44 3048.43 1450.03 3047.49 1449.83 3046.28 1449.83 3044.52 1449.83 3043.17 1450.28 3042.21 1451.18 3041.25 1452.08 3040.77 1453.35 3040.77 1454.99 3040.77 1456.35 3041.16 1457.55 3041.96 1458.59 3042.75 1459.63 3043.74 1460.56 3044.92 1461.38 3046.1 1462.2 3047.36 1462.95 3048.71 1463.63 3050.05 1464.31 3051.27 1464.98 3052.37 1465.64 3054.95 1467.11 3057.16 1468.46 3059 1469.69 3060.84 1470.92 3062.33 1472.21 3063.49 1473.58 3064.64 1474.94 3065.49 1476.51 3066.04 1478.29 3066.59 1480.06 3066.86 1482.26 3066.86 1484.88 3066.86 1488.16 3066.28 1490.9 3065.13 1493.11 3063.98 1495.32 3062.44 1497.09 3060.52 1498.4 3058.6 1499.71 3056.36 1500.63 3053.81 1501.18 3051.26 1501.73 3048.59 1502 3045.79 1502 3042.33 1502 3039.31 1501.7 3036.73 1501.1 3034.15 1500.5 3032 1499.46 3030.27 1497.99 3028.54 1496.51 3027.25 1494.53 3026.4 1492.05 3025.55 1489.56 3025.12 1486.47 3025.12 1482.75L3025.12 1481.69 3039.69 1481.69 3039.69 1483C3039.69 1485.89 3040.12 1488.14 3040.97 1489.76 3041.82 1491.37 3043.51 1492.17 3046.03 1492.17 3047.95 1492.17 3049.42 1491.64 3050.44 1490.57 3051.45 1489.51 3051.96 1488.13 3051.96 1486.44 3051.96 1484.91 3051.56 1483.57 3050.77 1482.43 3049.97 1481.28 3048.96 1480.26 3047.72 1479.35 3046.49 1478.45 3045.1 1477.62 3043.56 1476.86 3042.03 1476.09 3040.55 1475.3 3039.12 1474.48 3037.31 1473.5 3035.61 1472.5 3034.01 1471.49 3032.42 1470.48 3031.04 1469.32 3029.86 1468.01 3028.68 1466.7 3027.73 1465.16 3027.02 1463.38 3026.3 1461.61 3025.95 1459.47 3025.95 1456.95 3025.95 1453.68 3026.5 1450.96 3027.59 1448.8 3028.69 1446.65 3030.19 1444.91 3032.11 1443.6 3034.03 1442.29 3036.24 1441.36 3038.76 1440.82 3041.28 1440.27 3043.99 1440 3046.9 1440Z" fill="#2D2D2C" fill-rule="evenodd"/><rect x="1914" y="1740" width="461" height="129" fill="#9694E4"/><rect x="2854" y="1582" width="428" height="278" fill="#9694E4"/><rect x="3306" y="1581" width="428" height="278" fill="#9694E4"/><rect x="3761" y="1579" width="428" height="277" fill="#9694E4"/><rect x="1914" y="1582" width="461" height="129" fill="#9694E4"/><rect x="1888" y="2086" width="2327" height="121" fill="#2A289D"/><rect x="1914" y="1896" width="2275" height="122" fill="#5B58D4"/><rect x="1888" y="1116" width="2327" height="234" fill="#807EDE" fill-opacity="0.2"/><path d="M1914 1234 1952 1156 2066 1156 2104 1234 2066 1312 1952 1312Z" fill="#7C909B" fill-rule="evenodd"/><g><g><g><path d="M50.2124 30.5019C52.5826 30.5019 54.504 28.5804 54.504 26.2102 54.504 23.84 52.5826 21.9186 50.2124 21.9186 47.8422 21.9186 45.9207 23.84 45.9207 26.2102 45.9348 28.5746 47.848 30.4878 50.2124 30.5019ZM50.2124 24.0644C51.3975 24.0644 52.3582 25.0251 52.3582 26.2102 52.3582 27.3954 51.3975 28.3561 50.2124 28.3561 49.0272 28.3561 48.0666 27.3954 48.0666 26.2102 48.0816 25.0314 49.0336 24.0794 50.2124 24.0644Z" fill="#FFFFFF" transform="matrix(1 0 0 1.09709 1962 1162)"/><path d="M37.3374 51.2445C39.7076 51.2445 41.6291 49.323 41.6291 46.9529 41.6291 44.5827 39.7076 42.6612 37.3374 42.6612 34.9672 42.6612 33.0458 44.5827 33.0458 46.9529 33.0458 49.323 34.9672 51.2445 37.3374 51.2445ZM37.3374 44.807C38.5226 44.807 39.4832 45.7677 39.4832 46.9529 39.4832 48.138 38.5226 49.0987 37.3374 49.0987 36.1523 49.0987 35.1916 48.138 35.1916 46.9529 35.1916 45.7677 36.1523 44.807 37.3374 44.807Z" fill="#FFFFFF" transform="matrix(1 0 0 1.09709 1962 1162)"/><path d="M28.6575 51.6533 27.7381 54.3098 29.7766 56.3537 32.4331 55.5362C33.1371 55.9472 33.8956 56.2569 34.6862 56.4557L35.9104 59.0103 38.7708 59.0103 39.8952 56.5576C40.6859 56.3588 41.4443 56.0491 42.1484 55.6381L44.8038 56.5576 46.8424 54.5191 46.028 51.8572C46.4384 51.1547 46.7478 50.3981 46.9475 49.6094L49.501 48.3831 49.603 45.3177 47.0462 44.0968C46.8469 43.3064 46.5373 42.5478 46.1267 41.8437L47.0462 39.1871 45.0077 37.1432 42.3511 38.0627C41.6486 37.6525 40.892 37.343 40.1034 37.1432L38.8781 34.5886 35.9104 34.5886 34.6852 37.1432C33.8948 37.3426 33.1362 37.6521 32.4321 38.0627L29.7755 37.1432 27.737 39.1871 28.6575 41.8437C28.2469 42.546 27.9374 43.3027 27.7381 44.0914L25.1845 45.3177 25.1845 48.1792 27.7381 49.4056C27.9374 50.1943 28.2469 50.951 28.6575 51.6533ZM27.3303 46.6718 28.6672 46.028 29.576 45.5924 29.8195 44.6139C29.971 44.0154 30.2073 43.4417 30.5212 42.9101L31.004 42.0647 30.6821 41.1441 30.2015 39.7568 30.3452 39.6131 31.7325 40.0927 32.6531 40.4145 33.4985 39.9317C34.0302 39.618 34.604 39.3817 35.2023 39.23L36.1797 38.9854 36.6164 38.0767 37.2602 36.7398 37.522 36.7398 38.1657 38.0767 38.6024 38.9854 39.5798 39.23C40.1782 39.3817 40.752 39.618 41.2836 39.9317L42.1291 40.4145 43.0496 40.0927 44.4369 39.6131 44.5796 39.7568 44.0968 41.142 43.7749 42.0625 44.2577 42.908C44.571 43.4398 44.8073 44.0135 44.9594 44.6118L45.2029 45.5903 46.1117 46.0259 47.3992 46.646 47.3874 47.0119 46.0055 47.6749 45.0967 48.1116 44.8521 49.089C44.7013 49.6875 44.4653 50.2613 44.1515 50.7928L43.6901 51.5997 43.9637 52.488 44.4015 53.9107 44.2212 54.091 42.835 53.6103 41.9145 53.2884 41.0679 53.7723C40.5365 54.0855 39.9632 54.3213 39.3652 54.4729L38.3642 54.7229 37.935 55.6606 37.3943 56.8645 37.2612 56.8645 36.6175 55.5276 36.1808 54.6188 35.2034 54.3742C34.6049 54.2227 34.0311 53.9865 33.4996 53.6725L32.6928 53.2112 31.8044 53.4848 30.3828 53.9225 30.2025 53.7423 30.6853 52.3582 31.0072 51.4377 30.5244 50.5922C30.2107 50.0606 29.9744 49.4868 29.8227 48.8884L29.5792 47.9099 28.6704 47.4743 27.3336 46.8306Z" fill="#FFFFFF" transform="matrix(1 0 0 1.09709 1962 1162)"/><path d="M41.4274 31.0126 40.5079 33.6691 42.5464 35.713 45.2029 34.7935C45.9055 35.2037 46.6621 35.5132 47.4507 35.713L48.676 38.2676 51.5364 38.2676 52.7627 35.8149C53.5531 35.6156 54.3117 35.3061 55.0158 34.8955L57.6713 35.8149 59.7152 33.771 58.7957 31.1145C59.2382 30.4159 59.5819 29.6595 59.8171 28.8668L62.3707 27.6404 62.3707 24.5751 59.8171 23.3488C59.6174 22.5601 59.308 21.8034 58.8976 21.101L59.8171 18.4434 57.7786 16.4049 55.122 17.3243C54.4197 16.9137 53.663 16.6042 52.8743 16.4049L51.6437 13.9479 48.7833 13.9479 47.5569 16.5025C46.7663 16.7013 46.0077 17.0109 45.3038 17.422L42.6483 16.5025 40.6098 18.5464 41.4274 21.2029C41.0172 21.9055 40.7077 22.6621 40.5079 23.4507L37.9543 24.677 37.9543 27.5385 40.5079 28.7648C40.7079 29.5533 41.0174 30.3099 41.4274 31.0126ZM40.1002 26.0268 41.437 25.383 42.3458 24.9474 42.5893 23.9689C42.7413 23.3705 42.9775 22.797 43.291 22.2651L43.7513 21.4583 43.4788 20.5699 43.041 19.1472 43.2213 18.9681 44.6075 19.4476 45.528 19.7695 46.3746 19.2867C46.9058 18.9728 47.4791 18.7365 48.0773 18.585L49.0558 18.3404 49.4914 17.4316 50.1351 16.0948 50.3197 16.0948 50.9527 17.3608 51.3926 18.2395 52.3496 18.4788C52.9479 18.6303 53.5216 18.8662 54.0534 19.1794L54.8989 19.6633 55.8194 19.3414 57.2067 18.8608 57.3494 19.0045 56.8645 20.3993 56.5426 21.3188 57.0254 22.1653C57.3391 22.6971 57.5754 23.2708 57.7271 23.8691L57.9706 24.8465 58.8794 25.2832 60.2162 25.927 60.2162 26.2864 58.8794 26.9301 57.9706 27.3658 57.7271 28.3442C57.5341 28.9445 57.264 29.5173 56.9235 30.048L56.4407 30.8935 56.7625 31.8141 57.2421 33.2013 57.0983 33.3451 55.7121 32.8655 54.7916 32.5436 53.9451 33.0264C53.4139 33.3404 52.8405 33.5766 52.2423 33.7281L51.2842 33.9674 50.8433 34.8504 50.2102 36.1164 50.0268 36.1164 49.383 34.7785 48.9463 33.8698 47.9689 33.6251C47.3704 33.4741 46.7968 33.2381 46.2651 32.9245L45.4197 32.4417 44.4991 32.7636 43.1118 33.2432 42.9691 33.0994 43.4487 31.7121 43.7706 30.7916 43.2878 29.9461C42.9745 29.4143 42.7383 28.8406 42.5861 28.2423L42.3426 27.2638 41.4338 26.8282 40.097 26.1845Z" fill="#FFFFFF" transform="matrix(1 0 0 1.09709 1962 1162)"/><path d="M27.6812 65.466 27.6812 92.6182 61.5853 92.6182 61.5853 79.7433 66.8426 79.7433C70.226 79.7372 73.4682 78.3861 75.855 75.9881 78.2087 73.5369 79.5169 70.2665 79.5029 66.8683L79.5029 60.4308 84.2238 60.4308C87.0133 60.1089 89.481 56.8902 86.9061 52.9204L79.5029 40.0455 79.5029 39.509C80.1998 21.7027 66.3298 6.70305 48.5235 6.00624 30.7173 5.30943 15.7177 19.1794 15.0208 36.9856 14.9879 37.8264 14.9879 38.6681 15.0208 39.509 14.9838 49.6573 19.6613 59.2474 27.6812 65.466ZM31.8827 12.3664C46.1847 3.87118 64.6655 8.5785 73.1607 22.8804 76.1258 27.8724 77.585 33.6148 77.3625 39.4167L77.3625 40.6034 77.6479 41.1001 85.051 53.9751 85.0799 54.0245 85.1111 54.0727C85.8077 54.9136 86.0136 56.0576 85.654 57.0887 85.3497 57.711 84.7657 58.1499 84.0832 58.2689L77.3571 58.2689 77.3571 66.8522C77.3686 69.682 76.2866 72.407 74.3369 74.4581 72.3583 76.4631 69.6594 77.5925 66.8426 77.5942L59.4394 77.5942 59.4394 90.4692 29.827 90.4692 29.827 64.4135 28.9944 63.7697C21.482 57.9649 17.1079 48.9875 17.1666 39.494L17.1666 39.4553 17.1666 39.4167C16.731 28.381 22.3816 17.9952 31.8838 12.3664Z" fill="#FFFFFF" transform="matrix(1 0 0 1.09709 1962 1162)"/></g></g></g><path d="M2039.45 1278.64C2041.7 1278.64 2043.32 1279.09 2044.32 1280 2045.31 1280.91 2045.81 1282.37 2045.81 1284.39L2041.25 1284.39 2041.25 1283.43C2041.15 1282 2040.5 1281.29 2039.29 1281.29 2038.05 1281.29 2037.43 1281.94 2037.43 1283.25 2037.43 1284.01 2037.77 1284.62 2038.43 1285.09 2038.56 1285.19 2038.86 1285.37 2039.34 1285.62 2039.82 1285.88 2040.5 1286.25 2041.36 1286.71 2043.08 1287.57 2044.22 1288.27 2044.77 1288.82 2045.59 1289.68 2046 1290.83 2046 1292.28 2046 1296.09 2043.69 1298 2039.08 1298 2034.84 1298 2032.68 1296.24 2032.61 1292.73L2032.61 1291.73 2037.25 1291.73 2037.25 1292.32C2037.27 1294.16 2037.96 1295.09 2039.32 1295.09 2040.71 1295.09 2041.4 1294.36 2041.4 1292.91 2041.4 1292.1 2041.12 1291.45 2040.55 1290.96 2040.37 1290.83 2040.05 1290.64 2039.57 1290.36 2039.08 1290.09 2038.45 1289.75 2037.66 1289.33 2036.7 1288.84 2035.92 1288.41 2035.3 1288.04 2034.69 1287.67 2034.24 1287.35 2033.96 1287.08 2033.19 1286.34 2032.8 1285.29 2032.8 1283.91 2032.8 1282.14 2033.46 1280.79 2034.78 1279.85 2035.93 1279.04 2037.48 1278.64 2039.45 1278.64ZM1981.62 1274.95 1978.56 1287.93 1984.69 1287.93ZM2019.67 1274.61 2019.67 1282.88 2021.32 1282.88C2022.17 1282.88 2022.89 1282.81 2023.49 1282.67 2024.09 1282.54 2024.58 1282.31 2024.97 1281.99 2025.35 1281.67 2025.63 1281.24 2025.81 1280.68 2025.98 1280.13 2026.07 1279.45 2026.07 1278.64 2026.07 1277.09 2025.68 1276 2024.91 1275.39 2024.24 1274.87 2023.09 1274.61 2021.47 1274.61ZM2000.08 1274.61 2000.08 1282.88 2001.73 1282.88C2002.57 1282.88 2003.3 1282.81 2003.9 1282.67 2004.49 1282.54 2004.99 1282.31 2005.37 1281.99 2005.76 1281.67 2006.04 1281.24 2006.21 1280.68 2006.39 1280.13 2006.48 1279.45 2006.48 1278.64 2006.48 1277.09 2006.09 1276 2005.32 1275.39 2004.64 1274.87 2003.5 1274.61 2001.88 1274.61ZM2014.66 1271 2022.7 1271C2025.6 1271 2027.7 1271.54 2029.03 1272.62 2030.4 1273.75 2031.08 1275.75 2031.08 1278.6 2031.08 1281.84 2030.23 1284.05 2028.54 1285.2 2027.29 1286.06 2025.11 1286.49 2021.99 1286.49L2019.67 1286.49 2019.67 1297.67 2014.66 1297.67ZM1995.07 1271 2003.11 1271C2006 1271 2008.11 1271.54 2009.43 1272.62 2010.8 1273.75 2011.49 1275.75 2011.49 1278.6 2011.49 1281.84 2010.64 1284.05 2008.95 1285.2 2007.7 1286.06 2005.52 1286.49 2002.4 1286.49L2000.08 1286.49 2000.08 1297.67 1995.07 1297.67ZM1978.56 1271 1985.03 1271 1992.43 1297.67 1987.31 1297.67 1985.7 1291.55 1977.55 1291.55 1975.94 1297.67 1971 1297.67Z" fill="#FFFFFF" fill-rule="evenodd"/><path d="M1934 1429C1947.81 1429 1959 1417.81 1959 1404L2065 1404C2065 1417.81 2076.19 1429 2090 1429L2090 1529C2076.19 1529 2065 1540.19 2065 1554L1959 1554C1959 1540.19 1947.81 1529 1934 1529Z" fill="#2A289D" fill-rule="evenodd"/><g><g><g><path d="M11.8594 59.5126C11.3563 60.0157 10.7094 60.1595 10.0625 59.872 9.41564 59.5845 9.05626 59.0095 9.05626 58.3626 9.05626 57.7157 9.48751 57.0688 10.0625 56.8532 10.7094 56.5657 11.3563 56.7095 11.8594 57.2126 12.5063 57.7876 12.5063 58.8657 11.8594 59.5126ZM62.6032 12.1469 56.7813 17.9688 52.1813 16.7469 51.0313 12.2188 56.8532 6.39688C53.4032 5.10313 49.5219 5.89376 46.7907 8.33751 44.0594 10.8531 42.9813 14.5906 43.9157 18.1844L7.25939 54.8407C5.96563 56.0626 5.46251 57.9313 5.89376 59.6563 6.32501 61.3813 7.69064 62.747 9.41564 63.1782 11.1406 63.6095 12.9375 63.1063 14.2313 61.8126L50.8876 25.1563C54.4813 26.0907 58.2188 25.0125 60.7345 22.2813 63.1782 19.55 63.9688 15.5969 62.6032 12.1469Z" fill="#FFFFFF" transform="matrix(1 0 0 1.08695 2009 1465)"/><path d="M62.3157 54.8407 43.7719 36.2969 36.2969 43.7719 54.2657 61.7407 54.9126 62.3876 54.9845 62.3157C57.0688 63.8251 59.9438 63.5376 61.7407 61.7407 63.5376 59.872 63.7532 56.997 62.3157 54.8407L62.3157 54.8407Z" fill="#FFFFFF" transform="matrix(1 0 0 1.08695 2009 1465)"/><path d="M16.2438 14.2313 16.3156 14.1594 14.4469 10.7094 8.26564 5.75001 5.75001 8.26564 10.7094 14.4469 14.1594 16.3156 14.2313 16.2438 27.9594 29.9719 29.9719 27.9594Z" fill="#FFFFFF" transform="matrix(1 0 0 1.08695 2009 1465)"/></g></g></g><g><g><g><path d="M82.2603 42.4121C83.0433 41.0504 83.6728 39.6062 84.1374 38.1059L88.9957 35.6767 88.9957 30.1559 84.1374 27.7267C83.7313 26.2229 83.1378 24.7761 82.3707 23.4205L84.1374 18.2309 80.1624 14.2559 74.9728 16.0225C73.6178 15.2512 72.171 14.6536 70.6666 14.2437L68.2374 9.38541 62.7166 9.38541 60.2874 14.2437C58.7836 14.6495 57.3368 15.243 55.9812 16.0104L50.7916 14.2437 46.8166 18.2187 48.5833 23.4083C47.8162 24.764 47.2227 26.2108 46.8166 27.7146L41.9583 30.1437 41.9583 35.6645 46.8166 38.0937C47.2228 39.5975 47.8164 41.0441 48.5833 42.3999L46.8166 47.5895 50.6812 51.4541 55.8708 49.6874C57.2265 50.4545 58.6732 51.048 60.177 51.4541L62.6062 56.3124 68.127 56.3124 70.5562 51.4541C72.0599 51.0481 73.5067 50.4546 74.8624 49.6874L80.052 51.4541 84.027 47.5895ZM80.169 43.1232 81.4874 46.9933 79.4833 48.9421 75.5746 47.6105 74.6206 47.2859 73.7494 47.7938C72.5537 48.4695 71.277 48.9908 69.95 49.3451L69.0159 49.6124 68.5808 50.4813 66.7623 54.1251 63.9742 54.1251 62.1557 50.4813 61.7206 49.6124 60.7865 49.3451C59.4592 48.9908 58.1821 48.4695 56.986 47.7938L56.1159 47.2859 55.1619 47.6105 51.273 48.9355 49.3518 47.0143 50.6768 43.1243 51.0014 42.1703 50.4935 41.3002C49.8193 40.1036 49.2998 38.8261 48.9477 37.4986L48.6804 36.5644 47.8126 36.1305 44.1666 34.3097 44.1666 31.5173 47.8104 29.702 48.6782 29.267 48.9454 28.3329C49.2978 27.0057 49.8172 25.7287 50.4913 24.5323L50.9992 23.6612 50.6746 22.7083 49.3496 18.8172 51.3812 16.7855 55.2701 18.1105 56.2241 18.4418 57.0942 17.9327C58.2905 17.2589 59.5676 16.7395 60.8947 16.3869L61.8333 16.1043 62.2683 15.2353 64.0869 11.5915 66.8782 11.5915 68.6967 15.2353 69.1318 16.1043 70.0648 16.3715C71.392 16.7238 72.669 17.2432 73.8653 17.9173L74.7365 18.4263 75.6905 18.0951 79.5783 16.7701 81.61 18.8017 80.285 22.6928 79.9603 23.6457 80.4683 24.5169C81.1438 25.7131 81.6651 26.9902 82.0196 28.3174L82.2857 29.2515 83.1547 29.6866 86.7984 31.5063 86.7984 34.2987 83.1547 36.1184 82.31 36.5412 82.0318 37.4445C81.6166 38.7859 81.0549 40.0774 80.3567 41.2958L79.8488 42.1659Z" fill="#FFFFFF" transform="matrix(1 0 0 1.09434 1938 1407)"/><path d="M17.0041 70.2448 17.0041 75.7656 21.8625 78.1948C22.2686 79.6985 22.8621 81.1453 23.6291 82.501L21.9729 87.6906 25.8375 91.5552 31.027 89.8989C32.3826 90.6662 33.8294 91.2597 35.3333 91.6656L37.7625 96.5239 43.2833 96.5239 45.7124 91.6656C47.2162 91.2596 48.663 90.666 50.0187 89.8989L55.2083 91.6656 59.0728 87.6906 57.4166 82.6114C58.1837 81.2558 58.7771 79.809 59.1833 78.3052L64.0416 75.876 64.0416 70.3552 59.1833 67.926C58.7771 66.4223 58.1837 64.9755 57.4166 63.6198L59.1833 58.4302 55.2083 54.4552 50.0187 56.2219C48.6539 55.4737 47.2095 54.8811 45.7124 54.4552L43.2833 49.5969 37.7625 49.5969 35.3333 54.4552C33.8294 54.8611 32.3826 55.4546 31.027 56.2219L25.8375 54.4552 21.9729 58.3198 23.6291 63.5094C22.8811 64.8742 22.2885 66.3186 21.8625 67.8156ZM23.6954 69.3615 23.9736 68.4583C24.3536 67.1241 24.8778 65.8352 25.5371 64.6147L26.0318 63.7655 25.7326 62.8303 24.486 58.9205 26.4271 56.9782 30.316 58.3032 31.27 58.629 32.14 58.1211C33.336 57.4449 34.613 56.9235 35.9406 56.5697L36.8791 56.3124 37.3142 55.4435 39.1327 51.7997 41.9241 51.7997 43.7426 55.4435 44.1655 56.2892 45.0687 56.5664C46.4024 56.9472 47.6908 57.4719 48.9112 58.131L49.7824 58.6389 50.7364 58.3132 54.6242 56.9882 56.6558 59.0209 55.3308 62.9109 55.0062 63.8638 55.5141 64.735C56.1899 65.9316 56.7111 67.2089 57.0655 68.5366L57.3316 69.4697 58.2006 69.9047 61.8333 71.72 61.8333 74.5124 58.1895 76.332 57.3205 76.7671 57.0544 77.7001C56.7001 79.0278 56.1788 80.3052 55.5031 81.5018L55.004 82.3575 55.311 83.2993 56.5542 87.112 54.601 89.1304 50.7364 87.8132 49.7824 87.4885 48.9112 87.9965C47.7144 88.6731 46.4361 89.1945 45.1074 89.5478L44.1732 89.815 43.7393 90.684 41.9207 94.3277 39.1294 94.3277 37.3109 90.684 36.8758 89.815 35.9417 89.5478C34.6141 89.194 33.3371 88.6727 32.1411 87.9965L31.2931 87.5018 30.3568 87.7999 26.4492 89.0476 24.4871 87.0855 25.7337 83.1757 26.0329 82.2404 25.5382 81.3913C24.8622 80.1953 24.3409 78.9182 23.9869 77.5908L23.7197 76.6567 22.8518 76.2216 19.2081 74.402 19.2081 71.6095 22.8518 69.7899Z" fill="#FFFFFF" transform="matrix(1 0 0 1.09434 1938 1407)"/><path d="M65.477 24.6295C60.9034 24.6295 57.1958 28.3372 57.1958 32.9108 57.1958 37.4843 60.9034 41.192 65.477 41.192 70.0506 41.192 73.7582 37.4843 73.7582 32.9108 73.724 28.3514 70.0363 24.6637 65.477 24.6295ZM65.477 38.9837C62.1251 38.9788 59.409 36.2627 59.4041 32.9108 59.4487 29.5754 62.1417 26.8825 65.477 26.8378 68.8289 26.8427 71.5451 29.5588 71.5499 32.9108 71.5083 36.2481 68.8142 38.944 65.477 38.9881Z" fill="#FFFFFF" transform="matrix(1 0 0 1.09434 1938 1407)"/><path d="M40.5229 81.4002C45.0964 81.4002 48.8041 77.6925 48.8041 73.1189 48.8041 68.5454 45.0964 64.8377 40.5229 64.8377 35.9493 64.8377 32.2416 68.5454 32.2416 73.1189 32.2361 77.6871 35.9348 81.3947 40.503 81.4002 40.5096 81.4002 40.5162 81.4002 40.5229 81.4002ZM40.5229 67.0405C43.8769 67.0405 46.5958 69.7594 46.5958 73.1134 46.5958 76.4674 43.8769 79.1863 40.5229 79.1863 37.1689 79.1863 34.45 76.4674 34.45 73.1134 34.4548 69.7615 37.171 67.0454 40.5229 67.0405Z" fill="#FFFFFF" transform="matrix(1 0 0 1.09434 1938 1407)"/></g></g></g><path d="M2090.36 1646.79 2105.26 1646.79 2105.26 1651.85 2090.36 1651.85ZM2127.89 1621.86 2120.29 1650.67 2135.49 1650.67ZM2068.4 1620.98 2068.4 1640.12 2072.88 1640.12C2076.59 1640.12 2079.2 1639.41 2080.7 1637.99 2082.19 1636.57 2082.94 1633.98 2082.94 1630.22 2082.94 1626.7 2082.23 1624.28 2080.8 1622.96 2079.38 1621.64 2076.91 1620.98 2073.39 1620.98ZM2030.5 1620.98 2030.5 1639.31 2035.63 1639.31C2039.54 1639.31 2042.23 1638.63 2043.7 1637.26 2045.17 1635.89 2045.91 1633.25 2045.91 1629.34 2045.91 1626.26 2045.23 1624.1 2043.88 1622.85 2042.53 1621.61 2040.38 1620.98 2037.44 1620.98ZM1989.15 1620.91 1989.15 1664.02 1996.31 1664.02C1998.92 1664.02 2001.02 1663.4 2002.61 1662.18 2004.63 1660.67 2005.96 1657.59 2006.59 1652.95 2006.88 1650.75 2007.02 1647.18 2007.02 1642.24 2007.02 1637.36 2006.9 1633.91 2006.66 1631.91 2006.08 1627.31 2004.78 1624.28 2002.75 1622.82 2001.11 1621.55 1998.7 1620.91 1995.52 1620.91ZM2258.63 1616 2268.76 1616 2281.35 1662.7 2293.87 1616 2304 1616 2304 1669 2297.99 1669 2297.99 1620.62 2284.54 1669 2277.66 1669 2264.21 1620.62 2264.21 1669 2258.63 1669ZM2215.89 1616 2222.4 1616 2233.4 1663.21 2244.61 1616 2250.76 1616 2236.91 1669 2229.52 1669ZM2184.44 1616 2214.76 1616 2214.76 1621.06 2202.68 1621.06 2202.68 1669 2196.53 1669 2196.53 1621.06 2184.44 1621.06ZM2155.27 1616 2161.42 1616 2161.42 1669 2155.27 1669ZM2124.27 1616 2131.87 1616 2146.99 1669 2140.62 1669 2136.94 1655.59 2118.77 1655.59 2115.08 1669 2108.93 1669ZM2062.25 1616 2074.33 1616C2079.59 1616 2083.35 1616.98 2085.62 1618.93 2088.03 1621.08 2089.23 1624.82 2089.23 1630.15 2089.23 1636.35 2087.71 1640.53 2084.67 1642.68 2082.41 1644.3 2078.4 1645.1 2072.66 1645.1L2068.4 1645.1 2068.4 1669 2062.25 1669ZM2024.35 1616 2038.31 1616C2043.04 1616 2046.49 1616.93 2048.66 1618.79 2051.02 1620.79 2052.2 1624.21 2052.2 1629.05 2052.2 1632.57 2051.67 1635.28 2050.61 1637.19 2049.31 1639.43 2047.11 1640.97 2044.03 1641.8 2046.68 1642.05 2048.54 1642.93 2049.6 1644.44 2050.47 1645.62 2051.02 1647.55 2051.26 1650.23 2051.26 1650.43 2051.38 1653.39 2051.62 1659.1 2051.72 1660.72 2051.84 1662.89 2051.98 1665.63 2052.08 1666.36 2052.23 1667.48 2052.42 1669L2045.98 1669C2045.64 1667.05 2045.47 1665.21 2045.47 1663.5 2045.47 1662.62 2045.38 1660.3 2045.18 1656.54 2044.94 1651.26 2044.53 1648.08 2043.95 1647.01 2042.99 1645.15 2040.55 1644.22 2036.65 1644.22L2030.5 1644.22 2030.5 1669 2024.35 1669ZM1983 1616 1995.81 1616C2000.97 1616 2004.9 1617.03 2007.6 1619.08 2010.01 1620.89 2011.63 1623.55 2012.45 1627.07 2013.12 1630 2013.46 1634.86 2013.46 1641.66 2013.46 1647.23 2013.27 1651.36 2012.88 1654.05 2012.16 1659.13 2010.66 1662.77 2008.4 1664.97 2005.65 1667.66 2001.45 1669 1995.81 1669L1983 1669Z" fill="#FFFFFF" fill-rule="evenodd"/><path d="M2076.25 1803.37 2091.14 1803.37 2091.14 1808.36 2076.25 1808.36ZM2289.26 1792.16C2285.31 1792.16 2283.07 1794.52 2282.54 1799.25 2282.35 1800.89 2282.25 1802.45 2282.25 1803.95L2295.55 1803.95C2295.55 1800.43 2295.31 1797.95 2294.83 1796.5 2293.96 1793.61 2292.11 1792.16 2289.26 1792.16ZM2246.55 1788.84 2252.69 1788.84 2260.14 1819.49 2267.8 1788.84 2273.36 1788.84 2263.17 1825.28 2256.67 1825.28ZM2236.54 1788.84 2242.25 1788.84 2242.25 1825.28 2236.54 1825.28ZM2323.42 1788.11C2323.81 1788.11 2324 1789.94 2324 1793.61 2323.42 1793.51 2323.01 1793.46 2322.77 1793.46 2320.02 1793.46 2317.96 1794.31 2316.59 1795.99 2315.22 1797.68 2314.53 1799.92 2314.53 1802.72L2314.53 1825.28 2308.75 1825.28 2308.75 1795.49C2308.75 1793.03 2308.68 1790.81 2308.53 1788.84L2314.17 1788.84 2314.17 1793.61C2316.15 1789.94 2319.23 1788.11 2323.42 1788.11ZM2230.49 1788.11C2230.87 1788.11 2231.07 1789.94 2231.07 1793.61 2230.49 1793.51 2230.08 1793.46 2229.84 1793.46 2227.09 1793.46 2225.03 1794.31 2223.66 1795.99 2222.28 1797.68 2221.6 1799.92 2221.6 1802.72L2221.6 1825.28 2215.81 1825.28 2215.81 1795.49C2215.81 1793.03 2215.74 1790.81 2215.6 1788.84L2221.23 1788.84 2221.23 1793.61C2223.21 1789.94 2226.29 1788.11 2230.49 1788.11ZM2289.34 1788.04C2294.54 1788.04 2298.01 1789.97 2299.74 1793.82 2300.8 1796.23 2301.33 1800.36 2301.33 1806.19L2301.33 1807.85 2282.25 1807.85 2282.25 1810.31C2282.25 1814.02 2282.59 1816.7 2283.26 1818.34 2284.23 1820.7 2286.11 1821.88 2288.9 1821.88 2293.09 1821.88 2295.29 1819.2 2295.48 1813.85L2301.12 1813.85C2300.78 1821.95 2296.71 1826 2288.9 1826 2283.84 1826 2280.37 1824.29 2278.49 1820.87 2277.1 1818.31 2276.4 1814.19 2276.4 1808.5 2276.4 1802.04 2277 1797.42 2278.2 1794.62 2280.08 1790.23 2283.79 1788.04 2289.34 1788.04ZM2113.75 1778.78 2106.16 1807.2 2121.34 1807.2ZM2054.31 1777.92 2054.31 1796.79 2058.79 1796.79C2062.5 1796.79 2065.1 1796.09 2066.6 1794.69 2068.09 1793.29 2068.84 1790.74 2068.84 1787.03 2068.84 1783.56 2068.13 1781.17 2066.71 1779.87 2065.29 1778.57 2062.82 1777.92 2059.3 1777.92ZM2016.45 1777.92 2016.45 1795.99 2021.58 1795.99C2025.48 1795.99 2028.17 1795.32 2029.64 1793.97 2031.11 1792.62 2031.84 1790.02 2031.84 1786.16 2031.84 1783.12 2031.17 1780.99 2029.82 1779.76 2028.47 1778.53 2026.33 1777.92 2023.39 1777.92ZM2181.67 1777.84 2181.67 1820.36 2188.82 1820.36C2191.42 1820.36 2193.52 1819.76 2195.11 1818.55 2197.13 1817.06 2198.46 1814.02 2199.09 1809.44 2199.37 1807.27 2199.52 1803.75 2199.52 1798.89 2199.52 1794.07 2199.4 1790.67 2199.16 1788.69 2198.58 1784.16 2197.28 1781.17 2195.25 1779.72 2193.62 1778.47 2191.21 1777.84 2188.03 1777.84ZM1975.14 1777.84 1975.14 1820.36 1982.3 1820.36C1984.9 1820.36 1987 1819.76 1988.59 1818.55 1990.61 1817.06 1991.94 1814.02 1992.56 1809.44 1992.85 1807.27 1993 1803.75 1993 1798.89 1993 1794.07 1992.88 1790.67 1992.64 1788.69 1992.06 1784.16 1990.76 1781.17 1988.73 1779.72 1987.09 1778.47 1984.69 1777.84 1981.5 1777.84ZM2236.25 1773.72 2242.54 1773.72 2242.54 1779.94 2236.25 1779.94ZM2175.52 1773 2188.32 1773C2193.47 1773 2197.4 1774.01 2200.1 1776.04 2202.51 1777.82 2204.12 1780.45 2204.94 1783.92 2205.61 1786.81 2205.95 1791.61 2205.95 1798.31 2205.95 1803.8 2205.76 1807.88 2205.37 1810.53 2204.65 1815.54 2203.16 1819.13 2200.89 1821.3 2198.15 1823.95 2193.95 1825.28 2188.32 1825.28L2175.52 1825.28ZM2141.1 1773 2147.25 1773 2147.25 1825.28 2141.1 1825.28ZM2110.13 1773 2117.72 1773 2132.83 1825.28 2126.47 1825.28 2122.78 1812.05 2104.64 1812.05 2100.95 1825.28 2094.81 1825.28ZM2048.17 1773 2060.24 1773C2065.49 1773 2069.25 1773.96 2071.51 1775.89 2073.92 1778.01 2075.13 1781.7 2075.13 1786.96 2075.13 1793.08 2073.61 1797.2 2070.57 1799.32 2068.31 1800.91 2064.31 1801.71 2058.57 1801.71L2054.31 1801.71 2054.31 1825.28 2048.17 1825.28ZM2010.3 1773 2024.25 1773C2028.98 1773 2032.42 1773.92 2034.59 1775.75 2036.95 1777.72 2038.13 1781.1 2038.13 1785.87 2038.13 1789.34 2037.6 1792.02 2036.54 1793.9 2035.24 1796.11 2033.05 1797.63 2029.97 1798.45 2032.62 1798.69 2034.47 1799.56 2035.53 1801.05 2036.4 1802.21 2036.95 1804.12 2037.19 1806.77 2037.19 1806.96 2037.31 1809.88 2037.55 1815.52 2037.65 1817.11 2037.77 1819.25 2037.92 1821.95 2038.01 1822.67 2038.16 1823.78 2038.35 1825.28L2031.92 1825.28C2031.58 1823.35 2031.41 1821.54 2031.41 1819.85 2031.41 1818.99 2031.31 1816.7 2031.12 1812.99 2030.88 1807.78 2030.47 1804.65 2029.89 1803.59 2028.93 1801.75 2026.5 1800.84 2022.59 1800.84L2016.45 1800.84 2016.45 1825.28 2010.3 1825.28ZM1969 1773 1981.79 1773C1986.95 1773 1990.88 1774.01 1993.58 1776.04 1995.99 1777.82 1997.6 1780.45 1998.42 1783.92 1999.09 1786.81 1999.43 1791.61 1999.43 1798.31 1999.43 1803.8 1999.24 1807.88 1998.85 1810.53 1998.13 1815.54 1996.64 1819.13 1994.37 1821.3 1991.62 1823.95 1987.43 1825.28 1981.79 1825.28L1969 1825.28Z" fill="#FFFFFF" fill-rule="evenodd"/><path d="M4073.77 1780.22 4077.56 1780.22 4077.56 1784.44 4073.77 1784.44ZM3998.59 1780.22 4002.43 1780.22 3999.62 1789.01 3996.9 1789.01ZM3895.94 1764.04C3894.21 1764.04 3892.99 1765.01 3892.28 1766.96 3891.77 1768.39 3891.52 1770.53 3891.52 1773.37 3891.52 1776.14 3891.7 1778.1 3892.05 1779.24 3892.71 1781.18 3894 1782.15 3895.94 1782.15 3897.76 1782.15 3898.96 1781 3899.56 1778.7 3899.85 1777.5 3900 1775.5 3900 1772.69 3900 1770.03 3899.83 1768.12 3899.47 1766.96 3898.87 1765.01 3897.7 1764.04 3895.94 1764.04ZM4025.68 1763.91C4023.24 1763.91 4021.85 1765.37 4021.53 1768.3 4021.41 1769.32 4021.35 1770.29 4021.35 1771.21L4029.57 1771.21C4029.57 1769.03 4029.42 1767.49 4029.12 1766.6 4028.58 1764.8 4027.44 1763.91 4025.68 1763.91ZM3915.75 1763.91C3913.31 1763.91 3911.92 1765.37 3911.59 1768.3 3911.48 1769.32 3911.42 1770.29 3911.42 1771.21L3919.63 1771.21C3919.63 1769.03 3919.48 1767.49 3919.19 1766.6 3918.65 1764.8 3917.51 1763.91 3915.75 1763.91ZM4063.34 1761.35C4065.9 1761.35 4067.71 1761.95 4068.78 1763.14 4069.77 1764.28 4070.26 1766.12 4070.26 1768.66L4066.77 1768.66C4066.77 1765.49 4065.61 1763.91 4063.29 1763.91 4061.44 1763.91 4060.24 1764.91 4059.67 1766.91 4059.35 1768.08 4059.18 1770.15 4059.18 1773.14 4059.18 1776.55 4059.44 1778.89 4059.94 1780.18 4060.51 1781.61 4061.58 1782.33 4063.16 1782.33 4064.56 1782.33 4065.54 1781.84 4066.1 1780.85 4066.52 1780.1 4066.74 1778.95 4066.77 1777.4L4070.26 1777.4C4070.26 1782.39 4067.92 1784.89 4063.25 1784.89 4060.03 1784.89 4057.87 1783.84 4056.77 1781.75 4055.94 1780.16 4055.52 1777.41 4055.52 1773.5 4055.52 1769.58 4055.89 1766.81 4056.64 1765.16 4057.77 1762.62 4060 1761.35 4063.34 1761.35ZM4025.72 1761.35C4028.94 1761.35 4031.08 1762.55 4032.16 1764.94 4032.81 1766.43 4033.14 1768.99 4033.14 1772.6L4033.14 1773.63 4021.35 1773.63 4021.35 1775.16C4021.35 1777.46 4021.56 1779.12 4021.97 1780.13 4022.57 1781.6 4023.73 1782.33 4025.46 1782.33 4028.05 1782.33 4029.4 1780.67 4029.52 1777.36L4033 1777.36C4032.8 1782.38 4030.28 1784.89 4025.46 1784.89 4022.33 1784.89 4020.19 1783.83 4019.03 1781.7 4018.16 1780.12 4017.73 1777.56 4017.73 1774.04 4017.73 1770.03 4018.1 1767.16 4018.85 1765.43 4020.01 1762.71 4022.3 1761.35 4025.72 1761.35ZM3938.46 1761.35C3942.42 1761.35 3944.4 1763.7 3944.4 1768.39L3944.4 1784.44 3940.87 1784.44 3940.87 1770C3940.87 1768.06 3940.74 1766.73 3940.47 1766.01 3939.96 1764.7 3938.94 1764.04 3937.39 1764.04 3935.87 1764.04 3934.69 1764.79 3933.86 1766.28 3933.17 1767.57 3932.83 1769.09 3932.83 1770.86L3932.83 1784.44 3929.3 1784.44 3929.3 1766.78C3929.3 1764.77 3929.24 1763.13 3929.13 1761.84L3932.61 1761.84 3932.61 1764.94C3933.86 1762.55 3935.81 1761.35 3938.46 1761.35ZM3915.79 1761.35C3919.01 1761.35 3921.15 1762.55 3922.22 1764.94 3922.88 1766.43 3923.21 1768.99 3923.21 1772.6L3923.21 1773.63 3911.42 1773.63 3911.42 1775.16C3911.42 1777.46 3911.62 1779.12 3912.04 1780.13 3912.64 1781.6 3913.8 1782.33 3915.52 1782.33 3918.12 1782.33 3919.47 1780.67 3919.59 1777.36L3923.07 1777.36C3922.86 1782.38 3920.35 1784.89 3915.52 1784.89 3912.4 1784.89 3910.26 1783.83 3909.09 1781.7 3908.23 1780.12 3907.8 1777.56 3907.8 1774.04 3907.8 1770.03 3908.17 1767.16 3908.92 1765.43 3910.08 1762.71 3912.37 1761.35 3915.79 1761.35ZM3896.97 1761.35C3899.74 1761.35 3901.63 1762.56 3902.64 1764.98 3903.29 1766.63 3903.62 1769.21 3903.62 1772.74 3903.62 1776.5 3903.29 1779.21 3902.64 1780.85 3901.63 1783.45 3899.66 1784.75 3896.74 1784.75 3894.51 1784.75 3892.8 1783.92 3891.61 1782.24L3891.61 1793 3888.08 1793 3888.08 1767.09C3888.08 1764.55 3888.02 1762.8 3887.9 1761.84L3891.38 1761.84 3891.38 1764.53C3892.66 1762.41 3894.53 1761.35 3896.97 1761.35ZM4043.79 1756.11 4043.79 1761.84 4047.81 1761.84 4047.81 1764.44 4043.79 1764.44 4043.79 1778.62C4043.79 1779.87 4043.97 1780.71 4044.33 1781.14 4044.68 1781.58 4045.35 1781.79 4046.34 1781.79 4046.52 1781.79 4047.05 1781.73 4047.95 1781.61L4047.95 1784.44C4046.84 1784.56 4045.98 1784.62 4045.35 1784.62 4043.33 1784.62 4041.95 1784.18 4041.2 1783.32 4040.58 1782.54 4040.26 1781.12 4040.26 1779.06L4040.26 1764.44 4036.91 1764.44 4036.91 1761.84 4040.26 1761.84 4040.26 1757.68ZM3873.41 1754.45C3870.34 1754.45 3868.51 1756.32 3867.92 1760.05 3867.68 1761.58 3867.56 1764.28 3867.56 1768.17 3867.56 1772.38 3867.68 1775.19 3867.92 1776.59 3868.22 1778.42 3868.75 1779.75 3869.53 1780.58 3870.39 1781.54 3871.68 1782.02 3873.41 1782.02 3876.21 1782.02 3877.98 1780.31 3878.73 1776.91 3879.05 1775.38 3879.22 1772.45 3879.22 1768.12 3879.22 1763.91 3879.05 1760.98 3878.73 1759.33 3878.07 1756.08 3876.3 1754.45 3873.41 1754.45ZM3971.55 1752.03 3975.57 1752.03 3982.36 1780.9 3989.28 1752.03 3993.08 1752.03 3984.53 1784.44 3979.97 1784.44ZM3959.27 1751.4C3964.97 1751.4 3967.83 1754.4 3967.83 1760.41L3967.83 1761.13 3964.03 1761.13 3964.03 1760.54C3964.03 1756.51 3962.42 1754.49 3959.21 1754.49 3956.68 1754.49 3955.02 1755.76 3954.25 1758.3 3953.71 1760.04 3953.44 1763.35 3953.44 1768.26 3953.44 1773.52 3953.71 1776.97 3954.25 1778.61 3954.96 1780.88 3956.53 1782.02 3958.94 1782.02 3962.48 1782.02 3964.25 1779.81 3964.25 1775.38L3964.25 1774.76 3968.14 1774.76 3968.14 1775.47C3968.14 1781.84 3965.07 1785.02 3958.94 1785.02 3954.8 1785.02 3952.09 1783.51 3950.81 1780.49 3949.95 1778.4 3949.51 1774.37 3949.51 1768.39 3949.51 1762.62 3949.93 1758.68 3950.76 1756.56 3952.13 1753.12 3954.96 1751.4 3959.27 1751.4ZM3873.41 1751.4C3876.69 1751.4 3879.1 1752.34 3880.65 1754.22 3881.72 1755.54 3882.43 1757.36 3882.79 1759.69 3883.06 1761.46 3883.19 1764.34 3883.19 1768.35 3883.19 1773.99 3882.73 1777.89 3881.81 1780.04 3880.38 1783.36 3877.55 1785.02 3873.32 1785.02 3869.18 1785.02 3866.4 1783.45 3864.97 1780.31 3864.31 1778.85 3863.9 1776.91 3863.72 1774.49 3863.66 1773.53 3863.63 1771.5 3863.63 1768.39 3863.63 1764.36 3863.75 1761.5 3863.99 1759.83 3864.31 1757.62 3865.01 1755.82 3866.09 1754.45 3867.63 1752.42 3870.08 1751.4 3873.41 1751.4ZM4066.46 1703.9C4058.86 1703.9 4055.06 1706.51 4055.06 1711.72 4055.06 1716.41 4056.84 1718.75 4060.4 1718.75 4063.09 1718.75 4065.09 1717.59 4066.39 1715.27 4067.4 1713.44 4067.9 1711.1 4067.9 1708.25L4067.9 1703.9ZM4009.19 1689.28C4007.12 1689.28 4005.46 1690.15 4004.21 1691.88 4002.72 1693.96 4001.97 1698.09 4001.97 1704.27 4001.97 1709.67 4002.45 1713.32 4003.42 1715.2 4004.62 1717.57 4006.52 1718.75 4009.11 1718.75 4010.99 1718.75 4012.51 1717.83 4013.66 1716 4015.01 1713.82 4015.68 1709.62 4015.68 1703.4 4015.68 1699.39 4015.44 1696.47 4014.96 1694.63 4014 1691.06 4012.07 1689.28 4009.19 1689.28ZM4099.16 1685.87 4105.29 1685.87 4112.94 1715.13 4120.37 1685.87 4126 1685.87 4111.43 1736.2 4105.87 1736.2 4110.06 1722.37ZM3982.68 1685.87 3988.38 1685.87 3988.38 1722.37 3982.68 1722.37ZM4096.88 1685.15C4097.26 1685.15 4097.45 1686.98 4097.45 1690.65 4096.88 1690.56 4096.47 1690.51 4096.23 1690.51 4093.48 1690.51 4091.43 1691.35 4090.06 1693.04 4088.69 1694.73 4088 1696.98 4088 1699.78L4088 1722.37 4082.23 1722.37 4082.23 1692.53C4082.23 1690.07 4082.16 1687.85 4082.01 1685.87L4087.64 1685.87 4087.64 1690.65C4089.61 1686.98 4092.69 1685.15 4096.88 1685.15ZM4045.34 1685.15C4045.73 1685.15 4045.92 1686.98 4045.92 1690.65 4045.34 1690.56 4044.94 1690.51 4044.7 1690.51 4041.95 1690.51 4039.9 1691.35 4038.53 1693.04 4037.16 1694.73 4036.47 1696.98 4036.47 1699.78L4036.47 1722.37 4030.7 1722.37 4030.7 1692.53C4030.7 1690.07 4030.63 1687.85 4030.48 1685.87L4036.11 1685.87 4036.11 1690.65C4038.08 1686.98 4041.16 1685.15 4045.34 1685.15ZM4062.49 1685.08C4066.68 1685.08 4069.59 1686.09 4071.22 1688.12 4072.76 1689.95 4073.53 1692.99 4073.53 1697.24L4073.53 1710.71C4073.53 1715.1 4073.65 1718.99 4073.89 1722.37L4068.34 1722.37 4068.27 1717.59C4065.81 1721.16 4062.57 1722.95 4058.53 1722.95 4055.45 1722.95 4053.07 1721.93 4051.38 1719.91 4049.89 1717.98 4049.15 1715.42 4049.15 1712.23 4049.15 1707.07 4051.12 1703.59 4055.06 1701.8 4057.66 1700.6 4061.94 1699.97 4067.9 1699.92L4067.9 1698.33C4067.9 1695.33 4067.66 1693.26 4067.18 1692.1 4066.41 1690.17 4064.78 1689.2 4062.28 1689.2 4060.55 1689.2 4059.1 1689.69 4057.95 1690.65 4056.79 1691.62 4056.22 1692.97 4056.22 1694.71L4056.22 1695.07 4050.52 1695.07 4050.52 1694.71C4050.52 1691.38 4051.72 1688.89 4054.12 1687.25 4056.19 1685.8 4058.98 1685.08 4062.49 1685.08ZM3839.8 1673.92C3834.84 1673.92 3831.89 1676.94 3830.93 1682.98 3830.54 1685.44 3830.35 1689.81 3830.35 1696.08 3830.35 1702.89 3830.54 1707.43 3830.93 1709.7 3831.41 1712.64 3832.27 1714.79 3833.52 1716.14 3834.92 1717.69 3837.01 1718.46 3839.8 1718.46 3844.32 1718.46 3847.18 1715.71 3848.38 1710.2 3848.91 1707.74 3849.18 1703.01 3849.18 1696.01 3849.18 1689.2 3848.91 1684.47 3848.38 1681.82 3847.33 1676.56 3844.46 1673.92 3839.8 1673.92ZM3982.39 1670.74 3988.66 1670.74 3988.66 1676.97 3982.39 1676.97ZM3996.42 1670.01 4002.12 1670.01 4002.12 1689.57C4004.38 1686.57 4007.29 1685.08 4010.85 1685.08 4015.42 1685.08 4018.49 1687.15 4020.08 1691.3 4021.04 1693.86 4021.52 1697.92 4021.52 1703.47 4021.52 1709.26 4020.99 1713.56 4019.94 1716.36 4018.25 1720.75 4015.05 1722.95 4010.34 1722.95 4006.64 1722.95 4003.78 1721.36 4001.76 1718.17L4001.68 1722.37 3996.13 1722.37C3996.32 1719.09 3996.42 1716.77 3996.42 1715.42ZM3952.7 1670.01 3958.83 1670.01 3958.83 1717.37 3975.2 1717.37 3975.2 1722.37 3952.7 1722.37ZM3913.39 1669C3922.36 1669 3926.85 1673.22 3926.85 1681.67L3926.85 1683.41 3920.72 1683.41 3920.72 1682.18C3920.72 1679.48 3920.23 1677.5 3919.27 1676.24 3918.07 1674.7 3916.05 1673.92 3913.21 1673.92 3910.81 1673.92 3908.93 1674.62 3907.59 1676.02 3906.24 1677.42 3905.57 1679.33 3905.57 1681.74 3905.57 1684.74 3906.7 1687.22 3908.96 1689.2 3909.15 1689.35 3911.6 1690.94 3916.32 1693.98 3920.5 1696.64 3923.1 1698.57 3924.11 1699.78 3926.27 1702.19 3927.35 1705.45 3927.35 1709.55 3927.35 1714.09 3926.08 1717.52 3923.53 1719.83 3920.98 1722.15 3917.49 1723.31 3913.07 1723.31 3907.92 1723.31 3904.2 1722.08 3901.89 1719.62 3899.63 1717.25 3898.5 1713.46 3898.5 1708.25L3898.5 1707.67 3904.84 1707.67 3904.84 1708.25C3904.84 1711.53 3905.37 1713.94 3906.43 1715.49 3907.73 1717.47 3909.94 1718.46 3913.07 1718.46 3918.36 1718.46 3921 1715.63 3921 1709.99 3921 1707.14 3920.09 1704.8 3918.26 1702.96 3917.45 1702.14 3915.35 1700.69 3911.99 1698.62 3907.32 1695.72 3904.29 1693.55 3902.9 1692.1 3900.44 1689.49 3899.22 1686.16 3899.22 1682.11 3899.22 1677.86 3900.56 1674.58 3903.25 1672.26 3905.74 1670.09 3909.12 1669 3913.39 1669ZM3879.04 1669C3888.01 1669 3892.49 1673.22 3892.49 1681.67L3892.49 1683.41 3886.36 1683.41 3886.36 1682.18C3886.36 1679.48 3885.88 1677.5 3884.92 1676.24 3883.72 1674.7 3881.7 1673.92 3878.86 1673.92 3876.45 1673.92 3874.58 1674.62 3873.23 1676.02 3871.89 1677.42 3871.21 1679.33 3871.21 1681.74 3871.21 1684.74 3872.34 1687.22 3874.6 1689.2 3874.8 1689.35 3877.25 1690.94 3881.96 1693.98 3886.15 1696.64 3888.74 1698.57 3889.75 1699.78 3891.92 1702.19 3893 1705.45 3893 1709.55 3893 1714.09 3891.72 1717.52 3889.18 1719.83 3886.63 1722.15 3883.14 1723.31 3878.72 1723.31 3873.57 1723.31 3869.84 1722.08 3867.53 1719.62 3865.27 1717.25 3864.14 1713.46 3864.14 1708.25L3864.14 1707.67 3870.49 1707.67 3870.49 1708.25C3870.49 1711.53 3871.02 1713.94 3872.08 1715.49 3873.38 1717.47 3875.59 1718.46 3878.72 1718.46 3884.01 1718.46 3886.65 1715.63 3886.65 1709.99 3886.65 1707.14 3885.74 1704.8 3883.91 1702.96 3883.09 1702.14 3881 1700.69 3877.63 1698.62 3872.97 1695.72 3869.94 1693.55 3868.54 1692.1 3866.09 1689.49 3864.86 1686.16 3864.86 1682.11 3864.86 1677.86 3866.21 1674.58 3868.89 1672.26 3871.39 1670.09 3874.77 1669 3879.04 1669ZM3839.8 1669C3845.09 1669 3848.99 1670.52 3851.49 1673.56 3853.22 1675.69 3854.37 1678.63 3854.95 1682.4 3855.38 1685.24 3855.6 1689.9 3855.6 1696.37 3855.6 1705.5 3854.85 1711.8 3853.36 1715.27 3851.05 1720.63 3846.48 1723.31 3839.65 1723.31 3832.97 1723.31 3828.47 1720.78 3826.16 1715.71 3825.11 1713.34 3824.43 1710.2 3824.14 1706.29 3824.05 1704.75 3824 1701.47 3824 1696.44 3824 1689.93 3824.19 1685.32 3824.58 1682.61 3825.11 1679.04 3826.24 1676.14 3827.97 1673.92 3830.47 1670.64 3834.41 1669 3839.8 1669Z" fill="#FFFFFF" fill-rule="evenodd"/><path d="M3122.06 1242.06C3119.2 1242.06 3117.16 1242.63 3115.92 1243.78 3114.69 1244.92 3114.07 1246.89 3114.07 1249.67 3114.07 1251.36 3114.4 1252.75 3115.06 1253.85 3115.72 1254.94 3116.9 1255.48 3118.6 1255.48 3120.58 1255.48 3121.95 1254.64 3122.72 1252.95 3123.49 1251.25 3123.87 1249.21 3123.87 1246.8L3123.87 1242.06ZM3212.31 1227.56C3211.1 1227.56 3210.15 1227.85 3209.47 1228.42 3208.78 1229 3208.27 1229.77 3207.94 1230.76 3207.61 1231.74 3207.41 1232.87 3207.32 1234.15 3207.24 1235.44 3207.2 1236.76 3207.2 1238.13L3207.2 1245.66C3207.2 1246.97 3207.26 1248.22 3207.37 1249.42 3207.48 1250.63 3207.7 1251.68 3208.02 1252.58 3208.35 1253.48 3208.85 1254.2 3209.51 1254.75 3210.17 1255.29 3211.07 1255.57 3212.23 1255.57 3213.38 1255.57 3214.3 1255.29 3214.99 1254.75 3215.68 1254.2 3216.18 1253.48 3216.51 1252.58 3216.84 1251.68 3217.05 1250.63 3217.13 1249.42 3217.21 1248.22 3217.26 1246.97 3217.26 1245.66L3217.26 1238.13C3217.26 1236.71 3217.21 1235.36 3217.13 1234.07 3217.05 1232.79 3216.84 1231.67 3216.51 1230.72 3216.18 1229.76 3215.69 1229 3215.03 1228.42 3214.37 1227.85 3213.46 1227.56 3212.31 1227.56ZM2994.75 1227.24C2993.54 1227.24 2992.58 1227.58 2991.87 1228.26 2991.15 1228.94 2990.62 1229.91 2990.26 1231.17 2989.9 1232.42 2989.67 1233.92 2989.56 1235.67 2989.45 1237.42 2989.39 1239.35 2989.39 1241.48 2989.39 1246.12 2989.71 1249.66 2990.34 1252.09 2990.97 1254.51 2992.39 1255.73 2994.59 1255.73 2995.8 1255.73 2996.74 1255.36 2997.43 1254.62 2998.12 1253.89 2998.63 1252.86 2998.96 1251.55 2999.28 1250.24 2999.49 1248.67 2999.57 1246.85 2999.66 1245.02 2999.7 1243.01 2999.7 1240.83 2999.7 1238.64 2999.66 1236.71 2999.57 1235.01 2999.49 1233.32 2999.28 1231.9 2998.96 1230.76 2998.63 1229.61 2998.13 1228.74 2997.47 1228.14 2996.81 1227.54 2995.91 1227.24 2994.75 1227.24ZM2950.11 1227.24C2948.9 1227.24 2947.94 1227.58 2947.22 1228.26 2946.51 1228.94 2945.97 1229.91 2945.62 1231.17 2945.26 1232.42 2945.03 1233.92 2944.92 1235.67 2944.81 1237.42 2944.75 1239.35 2944.75 1241.48 2944.75 1246.12 2945.07 1249.66 2945.7 1252.09 2946.33 1254.51 2947.75 1255.73 2949.94 1255.73 2951.15 1255.73 2952.1 1255.36 2952.79 1254.62 2953.47 1253.89 2953.98 1252.86 2954.31 1251.55 2954.64 1250.24 2954.85 1248.67 2954.93 1246.85 2955.01 1245.02 2955.05 1243.01 2955.05 1240.83 2955.05 1238.64 2955.01 1236.71 2954.93 1235.01 2954.85 1233.32 2954.64 1231.9 2954.31 1230.76 2953.98 1229.61 2953.49 1228.74 2952.83 1228.14 2952.17 1227.54 2951.26 1227.24 2950.11 1227.24ZM3174.56 1220.93 3188.41 1220.93 3188.41 1262.2 3174.56 1262.2ZM3040.63 1220.93 3054.48 1220.93 3054.48 1262.2 3040.63 1262.2ZM3300.61 1219.95C3305.94 1219.95 3310.03 1220.86 3312.89 1222.69 3315.75 1224.52 3317.23 1227.32 3317.34 1231.08L3317.34 1232.48 3304.24 1232.48 3304.24 1231.17C3304.18 1229.91 3303.86 1228.81 3303.29 1227.85 3302.71 1226.89 3301.57 1226.42 3299.87 1226.42 3298.66 1226.42 3297.67 1226.72 3296.9 1227.32 3296.13 1227.92 3295.75 1228.85 3295.75 1230.1 3295.75 1230.98 3296.01 1231.73 3296.53 1232.35 3297.05 1232.98 3297.78 1233.57 3298.71 1234.11 3299.65 1234.66 3300.76 1235.21 3302.05 1235.75 3303.34 1236.3 3304.76 1236.9 3306.3 1237.55 3308.27 1238.43 3310.01 1239.22 3311.49 1239.93 3312.97 1240.64 3314.19 1241.46 3315.16 1242.38 3316.12 1243.31 3316.83 1244.42 3317.3 1245.7 3317.77 1246.98 3318 1248.61 3318 1250.57 3318 1253.03 3317.46 1255.06 3316.39 1256.67 3315.32 1258.28 3313.91 1259.56 3312.15 1260.52 3310.39 1261.47 3308.4 1262.14 3306.17 1262.53 3303.95 1262.91 3301.65 1263.1 3299.29 1263.1 3297.2 1263.1 3295.14 1262.91 3293.11 1262.53 3291.08 1262.14 3289.25 1261.47 3287.63 1260.52 3286.01 1259.56 3284.7 1258.28 3283.71 1256.67 3282.72 1255.06 3282.23 1253.03 3282.23 1250.57L3282.23 1249.26 3295.33 1249.26 3295.33 1250.33C3295.33 1252.07 3295.69 1253.45 3296.41 1254.46 3297.12 1255.47 3298.36 1255.98 3300.11 1255.98 3301.38 1255.98 3302.44 1255.63 3303.29 1254.95 3304.14 1254.27 3304.57 1253.3 3304.57 1252.04 3304.57 1251.23 3304.43 1250.53 3304.15 1249.96 3303.88 1249.38 3303.36 1248.84 3302.59 1248.32 3301.82 1247.8 3300.75 1247.24 3299.37 1246.64 3298 1246.04 3296.19 1245.25 3293.93 1244.27 3291.85 1243.39 3290.09 1242.59 3288.66 1241.85 3287.23 1241.11 3286.06 1240.31 3285.16 1239.44 3284.25 1238.56 3283.59 1237.55 3283.18 1236.41 3282.77 1235.26 3282.56 1233.81 3282.56 1232.07 3282.56 1229.61 3283.12 1227.6 3284.25 1226.05 3285.38 1224.49 3286.82 1223.26 3288.58 1222.36 3290.33 1221.46 3292.27 1220.84 3294.39 1220.48 3296.5 1220.13 3298.58 1219.95 3300.61 1219.95ZM3265.11 1219.95C3269.24 1219.95 3272.2 1220.92 3274.02 1222.86 3275.83 1224.79 3276.74 1227.95 3276.74 1232.31L3276.74 1262.2 3262.97 1262.2 3262.97 1234.93C3262.97 1232.48 3262.72 1230.59 3262.23 1229.28 3261.73 1227.97 3260.53 1227.32 3258.6 1227.32 3256.84 1227.32 3255.58 1228.07 3254.81 1229.57 3254.04 1231.07 3253.66 1233.1 3253.66 1235.67L3253.66 1262.2 3239.81 1262.2 3239.81 1227.4C3239.81 1227.18 3239.81 1226.76 3239.81 1226.13 3239.81 1225.5 3239.8 1224.85 3239.77 1224.17 3239.74 1223.48 3239.72 1222.83 3239.69 1222.2 3239.66 1221.57 3239.65 1221.15 3239.65 1220.93L3253.49 1220.93 3253.49 1225.27C3254.92 1223.36 3256.6 1222 3258.52 1221.18 3260.44 1220.36 3262.64 1219.95 3265.11 1219.95ZM3212.31 1219.95C3216.21 1219.95 3219.39 1220.41 3221.83 1221.34 3224.28 1222.27 3226.18 1223.63 3227.56 1225.43 3228.93 1227.24 3229.87 1229.49 3230.36 1232.19 3230.86 1234.89 3231.1 1238.02 3231.1 1241.56 3231.1 1244.62 3230.91 1247.46 3230.53 1250.08 3230.14 1252.7 3229.29 1254.98 3227.97 1256.92 3226.65 1258.85 3224.74 1260.38 3222.24 1261.5 3219.74 1262.62 3216.4 1263.18 3212.23 1263.18 3208.49 1263.18 3205.42 1262.72 3203 1261.79 3200.58 1260.86 3198.66 1259.48 3197.23 1257.65 3195.8 1255.82 3194.8 1253.56 3194.22 1250.86 3193.64 1248.16 3193.35 1245.06 3193.35 1241.56 3193.35 1238.29 3193.62 1235.31 3194.14 1232.64 3194.66 1229.96 3195.62 1227.69 3197.02 1225.8 3198.42 1223.92 3200.36 1222.47 3202.83 1221.46 3205.31 1220.45 3208.46 1219.95 3212.31 1219.95ZM3119.75 1219.95C3122.61 1219.95 3125.14 1220.17 3127.34 1220.6 3129.53 1221.04 3131.39 1221.82 3132.9 1222.94 3134.41 1224.06 3135.55 1225.56 3136.32 1227.44 3137.09 1229.32 3137.47 1231.68 3137.47 1234.52L3137.47 1250.49C3137.47 1252.4 3137.54 1254.35 3137.68 1256.34 3137.82 1258.34 3138.02 1260.29 3138.3 1262.2L3124.95 1262.2 3124.45 1256.88C3123.02 1259.28 3121.4 1260.91 3119.59 1261.79 3117.78 1262.66 3115.55 1263.1 3112.91 1263.1 3108.79 1263.1 3105.66 1262.01 3103.52 1259.82 3101.37 1257.64 3100.3 1254.36 3100.3 1250 3100.3 1246.94 3100.88 1244.47 3102.03 1242.59 3103.19 1240.7 3104.71 1239.26 3106.61 1238.25 3108.5 1237.24 3110.7 1236.57 3113.2 1236.24 3115.7 1235.91 3118.27 1235.75 3120.91 1235.75L3123.87 1235.75 3123.87 1233.46C3123.87 1231.44 3123.64 1229.81 3123.17 1228.59 3122.71 1227.36 3121.51 1226.74 3119.59 1226.74 3118.16 1226.74 3117.09 1227.19 3116.38 1228.1 3115.66 1229 3115.3 1230.21 3115.3 1231.74L3115.3 1232.72 3101.62 1232.72 3101.62 1231.9C3101.62 1229.39 3102.24 1227.34 3103.48 1225.76 3104.71 1224.18 3106.24 1222.96 3108.05 1222.12 3109.86 1221.27 3111.83 1220.7 3113.94 1220.4 3116.06 1220.1 3118 1219.95 3119.75 1219.95ZM3078.3 1219.95C3081.1 1219.95 3083.61 1220.18 3085.84 1220.64 3088.06 1221.11 3089.96 1221.94 3091.53 1223.14 3093.09 1224.34 3094.3 1225.94 3095.15 1227.93 3096 1229.92 3096.43 1232.42 3096.43 1235.42L3083.24 1235.42C3083.19 1234.6 3083.12 1233.73 3083.04 1232.8 3082.95 1231.88 3082.76 1231.03 3082.46 1230.27 3082.16 1229.5 3081.69 1228.86 3081.06 1228.34 3080.43 1227.82 3079.56 1227.56 3078.46 1227.56 3077.2 1227.56 3076.21 1227.9 3075.49 1228.59 3074.78 1229.27 3074.26 1230.25 3073.93 1231.53 3073.6 1232.82 3073.39 1234.4 3073.31 1236.28 3073.23 1238.17 3073.19 1240.28 3073.19 1242.63 3073.19 1244.38 3073.21 1246.04 3073.27 1247.62 3073.32 1249.21 3073.52 1250.58 3073.85 1251.76 3074.18 1252.93 3074.68 1253.86 3075.37 1254.54 3076.06 1255.22 3077.03 1255.57 3078.3 1255.57 3079.45 1255.57 3080.36 1255.29 3081.02 1254.75 3081.68 1254.2 3082.17 1253.51 3082.5 1252.66 3082.83 1251.81 3083.05 1250.9 3083.16 1249.92 3083.27 1248.93 3083.32 1248.03 3083.32 1247.21L3096.51 1247.21C3096.46 1249.78 3096.09 1252.04 3095.4 1254.01 3094.71 1255.98 3093.63 1257.64 3092.14 1259 3090.66 1260.37 3088.76 1261.41 3086.46 1262.12 3084.15 1262.83 3081.35 1263.18 3078.05 1263.18 3074.42 1263.18 3071.42 1262.74 3069.03 1261.87 3066.64 1261 3064.73 1259.7 3063.3 1257.98 3061.87 1256.26 3060.87 1254.11 3060.29 1251.51 3059.71 1248.92 3059.42 1245.93 3059.42 1242.55 3059.42 1239 3059.68 1235.83 3060.21 1233.05 3060.73 1230.27 3061.69 1227.9 3063.09 1225.97 3064.49 1224.03 3066.42 1222.54 3068.86 1221.5 3071.31 1220.47 3074.45 1219.95 3078.3 1219.95ZM2999.94 1219.95C3003.02 1219.95 3005.47 1220.47 3007.28 1221.5 3009.09 1222.54 3010.45 1223.97 3011.36 1225.8 3012.27 1227.63 3012.84 1229.83 3013.09 1232.39 3013.34 1234.96 3013.46 1237.8 3013.46 1240.91 3013.46 1243.8 3013.35 1246.59 3013.13 1249.26 3012.91 1251.94 3012.32 1254.3 3011.36 1256.34 3010.4 1258.39 3008.94 1260.03 3006.99 1261.26 3005.04 1262.48 3002.36 1263.1 2998.96 1263.1 2996.7 1263.1 2994.79 1262.73 2993.23 1261.99 2991.66 1261.26 2990.3 1260.04 2989.15 1258.35L2989.15 1278 2975.38 1278 2975.38 1228.96C2975.38 1228.9 2975.37 1228.46 2975.34 1227.65 2975.31 1226.83 2975.3 1225.93 2975.3 1224.94 2975.3 1223.96 2975.29 1223.06 2975.26 1222.24 2975.23 1221.42 2975.22 1220.99 2975.22 1220.93L2988.82 1220.93 2988.82 1225.6C2990.08 1223.52 2991.67 1222.06 2993.6 1221.22 2995.52 1220.37 2997.64 1219.95 2999.94 1219.95ZM2955.3 1219.95C2958.38 1219.95 2960.82 1220.47 2962.64 1221.5 2964.45 1222.54 2965.81 1223.97 2966.72 1225.8 2967.62 1227.63 2968.2 1229.83 2968.45 1232.39 2968.69 1234.96 2968.82 1237.8 2968.82 1240.91 2968.82 1243.8 2968.71 1246.59 2968.49 1249.26 2968.27 1251.94 2967.68 1254.3 2966.72 1256.34 2965.75 1258.39 2964.3 1260.03 2962.35 1261.26 2960.4 1262.48 2957.72 1263.1 2954.31 1263.1 2952.06 1263.1 2950.15 1262.73 2948.58 1261.99 2947.02 1261.26 2945.66 1260.04 2944.5 1258.35L2944.5 1278 2930.74 1278 2930.74 1228.96C2930.74 1228.9 2930.73 1228.46 2930.7 1227.65 2930.67 1226.83 2930.66 1225.93 2930.66 1224.94 2930.66 1223.96 2930.64 1223.06 2930.62 1222.24 2930.59 1221.42 2930.57 1220.99 2930.57 1220.93L2944.17 1220.93 2944.17 1225.6C2945.44 1223.52 2947.03 1222.06 2948.95 1221.22 2950.88 1220.37 2952.99 1219.95 2955.3 1219.95ZM2900.66 1213.48 2894.64 1240.25 2906.84 1240.25ZM2797.63 1213.48 2791.62 1240.25 2803.81 1240.25ZM3162.25 1209.06 3162.25 1220.93 3168.44 1220.93 3168.44 1228.55 3162.25 1228.55 3162.25 1250.73C3162.25 1252.43 3162.49 1253.61 3162.96 1254.3 3163.42 1254.98 3164.51 1255.32 3166.21 1255.32 3166.65 1255.32 3167.01 1255.31 3167.28 1255.28 3167.56 1255.25 3167.91 1255.18 3168.35 1255.07L3168.35 1262.2C3167.25 1262.47 3166.1 1262.66 3164.89 1262.77 3163.68 1262.88 3162.31 1262.93 3160.77 1262.93 3156.49 1262.93 3153.35 1262.16 3151.38 1260.6 3149.4 1259.05 3148.41 1256.14 3148.41 1251.88L3148.41 1228.55 3143.46 1228.55 3143.46 1220.93 3148.41 1220.93 3148.41 1213.89ZM3174.56 1203.25 3188.41 1203.25 3188.41 1213.23 3174.56 1213.23ZM3040.63 1203.25 3054.48 1203.25 3054.48 1213.23 3040.63 1213.23ZM3020.03 1203 3033.87 1203 3033.87 1262.2 3020.03 1262.2ZM2890.93 1203 2911.37 1203 2927.36 1262.2 2911.87 1262.2 2908.9 1249.83 2892.99 1249.83 2890.02 1262.2 2875.02 1262.2ZM2828.79 1203 2843.62 1203 2843.62 1262.2 2828.79 1262.2ZM2787.91 1203 2808.35 1203 2824.34 1262.2 2808.84 1262.2 2805.87 1249.83 2789.97 1249.83 2787 1262.2 2772 1262.2Z" fill="#2D2D2C" fill-rule="evenodd"/><path d="M3232.19 1943.44 3240.83 1943.44 3248.27 1960.27 3255.98 1943.44 3263.7 1943.44 3251.99 1965.15 3265 1989.8 3256.45 1989.8 3247.48 1970.39 3238.32 1989.8 3230.42 1989.8 3243.53 1965.24ZM3191.15 1943.44 3198.5 1943.44 3198.5 1973.06C3198.5 1976.86 3198.81 1979.56 3199.43 1981.16 3200.48 1983.79 3202.65 1985.11 3205.93 1985.11 3212.07 1985.11 3215.13 1980.6 3215.13 1971.59L3215.13 1943.44 3222.57 1943.44 3222.57 1979.59C3222.57 1983.21 3222.69 1986.61 3222.94 1989.8L3215.6 1989.8 3215.51 1983.92C3212.65 1988.33 3208.72 1990.54 3203.7 1990.54 3195.33 1990.54 3191.15 1985.79 3191.15 1976.28ZM3125.74 1943.44 3133.09 1943.44 3133.09 1989.8 3125.74 1989.8ZM3165.45 1942.42C3173.69 1942.42 3177.82 1947.24 3177.82 1956.87L3177.82 1989.8 3170.47 1989.8 3170.47 1960.18C3170.47 1956.19 3170.19 1953.46 3169.64 1951.99 3168.58 1949.29 3166.44 1947.94 3163.22 1947.94 3160.06 1947.94 3157.61 1949.48 3155.88 1952.54 3154.45 1955.18 3153.74 1958.31 3153.74 1961.93L3153.74 1989.8 3146.4 1989.8 3146.4 1953.56C3146.4 1949.45 3146.27 1946.07 3146.03 1943.44L3153.28 1943.44 3153.28 1949.78C3155.88 1944.88 3159.94 1942.42 3165.45 1942.42ZM2831.9 1929.54 2831.9 1952.54 2838.5 1952.54C2843.52 1952.54 2846.97 1951.69 2848.86 1949.97 2850.75 1948.25 2851.7 1944.94 2851.7 1940.03 2851.7 1936.17 2850.83 1933.45 2849.1 1931.89 2847.36 1930.33 2844.6 1929.54 2840.82 1929.54ZM3125.37 1924.21 3133.46 1924.21 3133.46 1932.12 3125.37 1932.12ZM3089.08 1923.29 3096.98 1923.29 3096.98 1983.46 3118.08 1983.46 3118.08 1989.8 3089.08 1989.8ZM3030.56 1923.29 3038.46 1923.29 3038.46 1983.46 3059.56 1983.46 3059.56 1989.8 3030.56 1989.8ZM3003.19 1923.29C3013.72 1923.29 3018.99 1928.29 3018.99 1938.31 3018.99 1943.53 3016.64 1949.67 3011.93 1956.73L2993.8 1984.01 3018.9 1984.01 3018.9 1989.8 2985.71 1989.8 2985.71 1983.08 3007.37 1949.91C3009.85 1946.1 3011.09 1941.98 3011.09 1937.56 3011.09 1931.91 3008.33 1929.08 3002.82 1929.08 2996.87 1929.08 2993.89 1932.86 2993.89 1940.4L2986.27 1940.4C2986.27 1939.67 2986.33 1938.6 2986.46 1937.2 2987.39 1927.92 2992.96 1923.29 3003.19 1923.29ZM2934.82 1923.29 2943.19 1923.29 2957.32 1982.54 2971.72 1923.29 2979.62 1923.29 2961.83 1989.8 2952.33 1989.8ZM2868.94 1923.29 2903.99 1923.29 2903.99 1930.56 2875.64 1983.46 2904.17 1983.46 2904.17 1989.8 2867.27 1989.8 2867.27 1982.9 2895.81 1929.64 2868.94 1929.64ZM2824 1923.29 2841.94 1923.29C2848.01 1923.29 2852.44 1924.45 2855.23 1926.78 2858.27 1929.3 2859.79 1933.59 2859.79 1939.66 2859.79 1944.08 2859.1 1947.48 2857.74 1949.88 2856.07 1952.7 2853.25 1954.63 2849.28 1955.67 2852.69 1955.98 2855.08 1957.08 2856.44 1958.98 2857.56 1960.46 2858.27 1962.88 2858.58 1966.25 2858.58 1966.5 2858.73 1970.21 2859.04 1977.38 2859.17 1979.41 2859.32 1982.14 2859.51 1985.57 2859.63 1986.49 2859.82 1987.9 2860.06 1989.8L2851.8 1989.8C2851.36 1987.35 2851.14 1985.05 2851.14 1982.9 2851.14 1981.8 2851.02 1978.89 2850.77 1974.16 2850.46 1967.54 2849.93 1963.55 2849.19 1962.2 2847.95 1959.87 2844.82 1958.71 2839.8 1958.71L2831.9 1958.71 2831.9 1989.8 2824 1989.8ZM2928.19 1922 2934.14 1922 2912.49 1991 2906.44 1991Z" fill="#FFFFFF" fill-rule="evenodd"/><path d="M3322.29 2157.34C3312.52 2157.34 3307.63 2160.66 3307.63 2167.28 3307.63 2173.23 3309.92 2176.2 3314.5 2176.2 3317.96 2176.2 3320.53 2174.73 3322.2 2171.79 3323.5 2169.46 3324.15 2166.48 3324.15 2162.86L3324.15 2157.34ZM3047.37 2157.34C3037.6 2157.34 3032.71 2160.66 3032.71 2167.28 3032.71 2173.23 3035 2176.2 3039.58 2176.2 3043.04 2176.2 3045.61 2174.73 3047.28 2171.79 3048.58 2169.46 3049.23 2166.48 3049.23 2162.86L3049.23 2157.34ZM2940.84 2157.34C2931.06 2157.34 2926.18 2160.66 2926.18 2167.28 2926.18 2173.23 2928.47 2176.2 2933.04 2176.2 2936.51 2176.2 2939.07 2174.73 2940.75 2171.79 2942.04 2169.46 2942.69 2166.48 2942.69 2162.86L2942.69 2157.34ZM3222.64 2149.34 3222.64 2174.55 3229.76 2174.55C3234.43 2174.55 3237.76 2173.78 3239.73 2172.25 3242.01 2170.47 3243.15 2167.13 3243.15 2162.22 3243.15 2157.87 3242.21 2154.63 3240.33 2152.51 3238.45 2150.4 3235.36 2149.34 3231.05 2149.34ZM3386.01 2138.76C3382.36 2138.76 3379.89 2140.78 3378.59 2144.83 3377.72 2147.47 3377.29 2151.58 3377.29 2157.16 3377.29 2163.23 3377.78 2167.68 3378.77 2170.5 3380.07 2174.3 3382.39 2176.2 3385.73 2176.2 3389.69 2176.2 3392.32 2174.27 3393.62 2170.41 3394.49 2167.89 3394.92 2163.78 3394.92 2158.08 3394.92 2151.76 3394.45 2147.25 3393.53 2144.56 3392.23 2140.69 3389.72 2138.76 3386.01 2138.76ZM3276.32 2138.67C3272.3 2138.67 3269.64 2140.66 3268.34 2144.65 3267.66 2146.73 3267.32 2150.32 3267.32 2155.41L3267.32 2162.04C3267.32 2166.51 3267.69 2169.7 3268.43 2171.6 3269.73 2174.85 3272.27 2176.48 3276.04 2176.48 3279.69 2176.48 3282.17 2174.92 3283.47 2171.79 3284.33 2169.7 3284.76 2166.54 3284.76 2162.31L3284.76 2155.23C3284.76 2149.95 3284.46 2146.3 3283.84 2144.28 3282.66 2140.54 3280.16 2138.67 3276.32 2138.67ZM3131.99 2138.67C3127.97 2138.67 3125.31 2140.66 3124.01 2144.65 3123.33 2146.73 3122.99 2150.32 3122.99 2155.41L3122.99 2162.04C3122.99 2166.51 3123.36 2169.7 3124.1 2171.6 3125.4 2174.85 3127.94 2176.48 3131.71 2176.48 3135.36 2176.48 3137.83 2174.92 3139.13 2171.79 3140 2169.7 3140.43 2166.54 3140.43 2162.31L3140.43 2155.23C3140.43 2149.95 3140.12 2146.3 3139.5 2144.28 3138.33 2140.54 3135.82 2138.67 3131.99 2138.67ZM3471.29 2134.44 3478.62 2134.44 3478.62 2180.8 3471.29 2180.8ZM3096.71 2134.44 3104.04 2134.44 3104.04 2180.8 3096.71 2180.8ZM2983.3 2134.44 2990.63 2134.44 2990.63 2164.06C2990.63 2167.86 2990.94 2170.56 2991.56 2172.16 2992.61 2174.79 2994.78 2176.11 2998.06 2176.11 3004.18 2176.11 3007.24 2171.6 3007.24 2162.59L3007.24 2134.44 3014.66 2134.44 3014.66 2170.59C3014.66 2174.21 3014.79 2177.61 3015.04 2180.8L3007.71 2180.8 3007.61 2174.92C3004.77 2179.33 3000.84 2181.54 2995.83 2181.54 2987.48 2181.54 2983.3 2176.79 2983.3 2167.28ZM2878.82 2134.44 2886.71 2134.44 2896.26 2173.44 2906.1 2134.44 2913.24 2134.44 2900.16 2180.8 2891.81 2180.8ZM3362.88 2133.52C3363.37 2133.52 3363.62 2135.85 3363.62 2140.51 3362.88 2140.39 3362.35 2140.32 3362.04 2140.32 3358.52 2140.32 3355.87 2141.4 3354.11 2143.54 3352.35 2145.69 3351.47 2148.54 3351.47 2152.1L3351.47 2180.8 3344.04 2180.8 3344.04 2142.9C3344.04 2139.77 3343.95 2136.95 3343.77 2134.44L3351 2134.44 3351 2140.51C3353.54 2135.85 3357.5 2133.52 3362.88 2133.52ZM3317.19 2133.42C3322.57 2133.42 3326.31 2134.71 3328.42 2137.29 3330.39 2139.62 3331.38 2143.48 3331.38 2148.88L3331.38 2165.99C3331.38 2171.57 3331.54 2176.51 3331.85 2180.8L3324.7 2180.8 3324.61 2174.73C3321.46 2179.27 3317.28 2181.54 3312.08 2181.54 3308.13 2181.54 3305.06 2180.25 3302.9 2177.68 3300.98 2175.22 3300.02 2171.97 3300.02 2167.92 3300.02 2161.36 3302.56 2156.95 3307.63 2154.68 3310.97 2153.14 3316.48 2152.35 3324.15 2152.28L3324.15 2150.26C3324.15 2146.46 3323.84 2143.82 3323.22 2142.35 3322.23 2139.89 3320.13 2138.67 3316.91 2138.67 3314.68 2138.67 3312.83 2139.28 3311.34 2140.51 3309.86 2141.73 3309.12 2143.45 3309.12 2145.66L3309.12 2146.12 3301.79 2146.12 3301.79 2145.66C3301.79 2141.43 3303.33 2138.27 3306.42 2136.18 3309.08 2134.34 3312.67 2133.42 3317.19 2133.42ZM3276.51 2133.42C3283.25 2133.42 3287.73 2135.66 3289.96 2140.14 3291.57 2143.27 3292.37 2149 3292.37 2157.34 3292.37 2165.81 3291.41 2171.79 3289.5 2175.28 3287.08 2179.58 3282.57 2181.72 3275.95 2181.72 3269.21 2181.72 3264.69 2179.58 3262.4 2175.28 3260.67 2172.03 3259.8 2166.27 3259.8 2157.99 3259.8 2150.01 3260.73 2144.25 3262.59 2140.69 3265.06 2135.85 3269.7 2133.42 3276.51 2133.42ZM3177.59 2133.42C3185.81 2133.42 3189.93 2138.24 3189.93 2147.87L3189.93 2180.8 3182.6 2180.8 3182.6 2151.18C3182.6 2147.19 3182.32 2144.46 3181.76 2142.99 3180.71 2140.29 3178.58 2138.94 3175.36 2138.94 3172.2 2138.94 3169.76 2140.48 3168.03 2143.54 3166.61 2146.18 3165.9 2149.31 3165.9 2152.93L3165.9 2180.8 3158.56 2180.8 3158.56 2144.56C3158.56 2140.45 3158.44 2137.07 3158.19 2134.44L3165.43 2134.44 3165.43 2140.78C3168.03 2135.88 3172.08 2133.42 3177.59 2133.42ZM3132.17 2133.42C3138.91 2133.42 3143.4 2135.66 3145.63 2140.14 3147.23 2143.27 3148.04 2149 3148.04 2157.34 3148.04 2165.81 3147.08 2171.79 3145.16 2175.28 3142.75 2179.58 3138.23 2181.72 3131.62 2181.72 3124.87 2181.72 3120.36 2179.58 3118.07 2175.28 3116.34 2172.03 3115.47 2166.27 3115.47 2157.99 3115.47 2150.01 3116.4 2144.25 3118.25 2140.69 3120.73 2135.85 3125.37 2133.42 3132.17 2133.42ZM3042.27 2133.42C3047.65 2133.42 3051.39 2134.71 3053.49 2137.29 3055.47 2139.62 3056.46 2143.48 3056.46 2148.88L3056.46 2165.99C3056.46 2171.57 3056.62 2176.51 3056.93 2180.8L3049.78 2180.8 3049.69 2174.73C3046.53 2179.27 3042.36 2181.54 3037.16 2181.54 3033.2 2181.54 3030.14 2180.25 3027.98 2177.68 3026.06 2175.22 3025.1 2171.97 3025.1 2167.92 3025.1 2161.36 3027.64 2156.95 3032.71 2154.68 3036.05 2153.14 3041.56 2152.35 3049.23 2152.28L3049.23 2150.26C3049.23 2146.46 3048.92 2143.82 3048.3 2142.35 3047.31 2139.89 3045.2 2138.67 3041.99 2138.67 3039.76 2138.67 3037.91 2139.28 3036.42 2140.51 3034.94 2141.73 3034.19 2143.45 3034.19 2145.66L3034.19 2146.12 3026.86 2146.12 3026.86 2145.66C3026.86 2141.43 3028.41 2138.27 3031.5 2136.18 3034.16 2134.34 3037.75 2133.42 3042.27 2133.42ZM2935.73 2133.42C2941.12 2133.42 2944.86 2134.71 2946.96 2137.29 2948.94 2139.62 2949.93 2143.48 2949.93 2148.88L2949.93 2165.99C2949.93 2171.57 2950.09 2176.51 2950.39 2180.8L2943.25 2180.8 2943.16 2174.73C2940 2179.27 2935.83 2181.54 2930.63 2181.54 2926.67 2181.54 2923.61 2180.25 2921.45 2177.68 2919.53 2175.22 2918.57 2171.97 2918.57 2167.92 2918.57 2161.36 2921.11 2156.95 2926.18 2154.68 2929.52 2153.14 2935.02 2152.35 2942.69 2152.28L2942.69 2150.26C2942.69 2146.46 2942.38 2143.82 2941.77 2142.35 2940.78 2139.89 2938.67 2138.67 2935.46 2138.67 2933.23 2138.67 2931.37 2139.28 2929.89 2140.51 2928.4 2141.73 2927.66 2143.45 2927.66 2145.66L2927.66 2146.12 2920.33 2146.12 2920.33 2145.66C2920.33 2141.43 2921.88 2138.27 2924.97 2136.18 2927.63 2134.34 2931.22 2133.42 2935.73 2133.42ZM3501.37 2122.66 3501.37 2134.44 3509.72 2134.44 3509.72 2139.77 3501.37 2139.77 3501.37 2168.86C3501.37 2171.43 3501.74 2173.16 3502.48 2174.05 3503.23 2174.93 3504.62 2175.38 3506.66 2175.38 3507.03 2175.38 3508.14 2175.25 3510 2175.01L3510 2180.8C3507.71 2181.05 3505.92 2181.17 3504.62 2181.17 3500.41 2181.17 3497.54 2180.28 3495.99 2178.5 3494.69 2176.91 3494.04 2174 3494.04 2169.76L3494.04 2139.77 3487.08 2139.77 3487.08 2134.44 3494.04 2134.44 3494.04 2125.88ZM3078.68 2122.66 3078.68 2134.44 3087.03 2134.44 3087.03 2139.77 3078.68 2139.77 3078.68 2168.86C3078.68 2171.43 3079.05 2173.16 3079.79 2174.05 3080.54 2174.93 3081.93 2175.38 3083.97 2175.38 3084.34 2175.38 3085.45 2175.25 3087.31 2175.01L3087.31 2180.8C3085.02 2181.05 3083.23 2181.17 3081.93 2181.17 3077.72 2181.17 3074.84 2180.28 3073.3 2178.5 3072 2176.91 3071.35 2174 3071.35 2169.76L3071.35 2139.77 3064.39 2139.77 3064.39 2134.44 3071.35 2134.44 3071.35 2125.88ZM3222.64 2120.54 3222.64 2143.27 3230.86 2143.27C3238.37 2143.27 3242.13 2139.31 3242.13 2131.4 3242.13 2127.29 3241.11 2124.41 3239.08 2122.75 3237.29 2121.28 3234.4 2120.54 3230.4 2120.54ZM2586.89 2120.54 2586.89 2143.54 2593.47 2143.54C2598.49 2143.54 2601.93 2142.69 2603.82 2140.97 2605.71 2139.25 2606.65 2135.94 2606.65 2131.03 2606.65 2127.17 2605.78 2124.45 2604.05 2122.89 2602.32 2121.33 2599.57 2120.54 2595.79 2120.54ZM3470.92 2115.21 3478.99 2115.21 3478.99 2123.12 3470.92 2123.12ZM3096.34 2115.21 3104.41 2115.21 3104.41 2123.12 3096.34 2123.12ZM3456.49 2114.29 3465.58 2114.29 3444.34 2144.92 3466.33 2180.8 3457.05 2180.8 3436.08 2145.11ZM3427.82 2114.29 3435.71 2114.29 3435.71 2180.8 3427.82 2180.8ZM3394.64 2114.29 3402.06 2114.29 3402.06 2172.06C3402.06 2173.72 3402.19 2176.63 3402.43 2180.8L3395.29 2180.8 3395.2 2175.47C3392.54 2179.52 3388.89 2181.54 3384.25 2181.54 3378.25 2181.54 3374.13 2178.87 3371.91 2173.54 3370.48 2169.98 3369.77 2164.46 3369.77 2156.98 3369.77 2149.92 3370.61 2144.59 3372.28 2140.97 3374.51 2135.94 3378.43 2133.42 3384.06 2133.42 3388.76 2133.42 3392.29 2135.23 3394.64 2138.85ZM3214.76 2114.29 3232.57 2114.29C3238.57 2114.29 3242.98 2115.58 3245.79 2118.15 3248.61 2120.73 3250.01 2124.99 3250.01 2130.94 3250.01 2135.11 3249.3 2138.3 3247.88 2140.51 3246.4 2143.02 3243.77 2144.86 3239.99 2146.03 3244.32 2147.07 3247.32 2149 3248.99 2151.82 3250.48 2154.28 3251.22 2157.87 3251.22 2162.59 3251.22 2169.33 3249.52 2174.12 3246.12 2176.94 3243.02 2179.52 3238.04 2180.8 3231.18 2180.8L3214.76 2180.8ZM2962.68 2114.29 2970.01 2114.29 2970.01 2180.8 2962.68 2180.8ZM2843.61 2114.29 2874.51 2114.29 2874.51 2120.64 2851.5 2120.64 2851.5 2143.45 2873.3 2143.45 2873.3 2149.62 2851.5 2149.62 2851.5 2174.46 2875.16 2174.46 2875.16 2180.8 2843.61 2180.8ZM2785.19 2114.29 2793.08 2114.29 2793.08 2174.46 2814.14 2174.46 2814.14 2180.8 2785.19 2180.8ZM2757.87 2114.29C2768.39 2114.29 2773.64 2119.29 2773.64 2129.31 2773.64 2134.53 2771.29 2140.67 2766.59 2147.73L2748.5 2175.01 2773.55 2175.01 2773.55 2180.8 2740.43 2180.8 2740.43 2174.08 2762.05 2140.91C2764.52 2137.1 2765.76 2132.98 2765.76 2128.56 2765.76 2122.91 2763 2120.08 2757.5 2120.08 2751.56 2120.08 2748.59 2123.86 2748.59 2131.4L2740.98 2131.4C2740.98 2130.67 2741.05 2129.6 2741.17 2128.2 2742.1 2118.92 2747.66 2114.29 2757.87 2114.29ZM2689.62 2114.29 2697.98 2114.29 2712.08 2173.54 2726.46 2114.29 2734.35 2114.29 2716.59 2180.8 2707.1 2180.8ZM2623.86 2114.29 2658.84 2114.29 2658.84 2121.56 2630.54 2174.46 2659.03 2174.46 2659.03 2180.8 2622.19 2180.8 2622.19 2173.9 2650.68 2120.64 2623.86 2120.64ZM2579 2114.29 2596.91 2114.29C2602.97 2114.29 2607.39 2115.45 2610.18 2117.78 2613.21 2120.3 2614.72 2124.59 2614.72 2130.66 2614.72 2135.08 2614.04 2138.48 2612.68 2140.88 2611.01 2143.7 2608.2 2145.63 2604.24 2146.67 2607.64 2146.98 2610.02 2148.08 2611.38 2149.98 2612.5 2151.46 2613.21 2153.88 2613.52 2157.25 2613.52 2157.5 2613.67 2161.21 2613.98 2168.38 2614.1 2170.41 2614.26 2173.14 2614.44 2176.57 2614.57 2177.49 2614.75 2178.9 2615 2180.8L2606.75 2180.8C2606.31 2178.35 2606.09 2176.05 2606.09 2173.9 2606.09 2172.8 2605.97 2169.89 2605.72 2165.16 2605.41 2158.54 2604.89 2154.55 2604.15 2153.2 2602.91 2150.87 2599.78 2149.71 2594.77 2149.71L2586.89 2149.71 2586.89 2180.8 2579 2180.8ZM2683.01 2113 2688.95 2113 2667.33 2182 2661.3 2182Z" fill="#FFFFFF" fill-rule="evenodd"/><path d="M3093.57 1759.79C3085.98 1759.79 3082.19 1762.39 3082.19 1767.59 3082.19 1772.26 3083.96 1774.59 3087.52 1774.59 3090.21 1774.59 3092.2 1773.44 3093.49 1771.13 3094.5 1769.3 3095.01 1766.96 3095.01 1764.12L3095.01 1759.79ZM3036.39 1745.2C3034.33 1745.2 3032.67 1746.07 3031.42 1747.8 3029.93 1749.87 3029.19 1753.99 3029.19 1760.15 3029.19 1765.54 3029.67 1769.18 3030.63 1771.06 3031.83 1773.41 3033.73 1774.59 3036.32 1774.59 3038.19 1774.59 3039.7 1773.68 3040.86 1771.85 3042.2 1769.68 3042.87 1765.49 3042.87 1759.28 3042.87 1755.29 3042.63 1752.37 3042.15 1750.54 3041.19 1746.98 3039.27 1745.2 3036.39 1745.2ZM3126.21 1741.81 3132.33 1741.81 3139.96 1770.98 3147.38 1741.81 3153 1741.81 3138.45 1792 3132.91 1792 3137.08 1778.21ZM3009.93 1741.81 3015.62 1741.81 3015.62 1778.21 3009.93 1778.21ZM3123.93 1741.08C3124.31 1741.08 3124.5 1742.91 3124.5 1746.57 3123.93 1746.48 3123.52 1746.43 3123.28 1746.43 3120.54 1746.43 3118.49 1747.27 3117.12 1748.96 3115.75 1750.64 3115.07 1752.88 3115.07 1755.67L3115.07 1778.21 3109.31 1778.21 3109.31 1748.45C3109.31 1745.99 3109.23 1743.78 3109.09 1741.81L3114.71 1741.81 3114.71 1746.57C3116.68 1742.91 3119.75 1741.08 3123.93 1741.08ZM3072.49 1741.08C3072.87 1741.08 3073.06 1742.91 3073.06 1746.57 3072.49 1746.48 3072.08 1746.43 3071.84 1746.43 3069.1 1746.43 3067.05 1747.27 3065.68 1748.96 3064.31 1750.64 3063.63 1752.88 3063.63 1755.67L3063.63 1778.21 3057.87 1778.21 3057.87 1748.45C3057.87 1745.99 3057.79 1743.78 3057.65 1741.81L3063.27 1741.81 3063.27 1746.57C3065.24 1742.91 3068.31 1741.08 3072.49 1741.08ZM3089.6 1741.01C3093.78 1741.01 3096.69 1742.02 3098.32 1744.04 3099.86 1745.87 3100.62 1748.91 3100.62 1753.14L3100.62 1766.58C3100.62 1770.96 3100.74 1774.84 3100.98 1778.21L3095.44 1778.21 3095.37 1773.44C3092.92 1777 3089.68 1778.78 3085.64 1778.78 3082.57 1778.78 3080.2 1777.77 3078.51 1775.75 3077.03 1773.82 3076.28 1771.27 3076.28 1768.09 3076.28 1762.94 3078.25 1759.48 3082.19 1757.69 3084.78 1756.49 3089.05 1755.87 3095.01 1755.82L3095.01 1754.23C3095.01 1751.24 3094.77 1749.17 3094.29 1748.02 3093.52 1746.09 3091.89 1745.13 3089.39 1745.13 3087.66 1745.13 3086.22 1745.61 3085.07 1746.57 3083.92 1747.54 3083.34 1748.88 3083.34 1750.62L3083.34 1750.98 3077.65 1750.98 3077.65 1750.62C3077.65 1747.29 3078.85 1744.82 3081.25 1743.18 3083.32 1741.73 3086.1 1741.01 3089.6 1741.01ZM3009.64 1726.71 3015.91 1726.71 3015.91 1732.92 3009.64 1732.92ZM3023.65 1725.99 3029.33 1725.99 3029.33 1745.49C3031.59 1742.5 3034.5 1741.01 3038.05 1741.01 3042.61 1741.01 3045.68 1743.08 3047.27 1747.22 3048.23 1749.77 3048.71 1753.82 3048.71 1759.36 3048.71 1765.13 3048.18 1769.42 3047.12 1772.21 3045.44 1776.59 3042.25 1778.78 3037.54 1778.78 3033.85 1778.78 3030.99 1777.19 3028.97 1774.02L3028.9 1778.21 3023.36 1778.21C3023.55 1774.93 3023.65 1772.62 3023.65 1771.27ZM2980 1725.99 2986.12 1725.99 2986.12 1773.22 3002.47 1773.22 3002.47 1778.21 2980 1778.21ZM3065.67 1659.22C3062.84 1659.22 3060.92 1660.81 3059.91 1663.99 3059.24 1666.06 3058.9 1669.28 3058.9 1673.67 3058.9 1678.43 3059.29 1681.92 3060.05 1684.14 3061.06 1687.12 3062.86 1688.62 3065.46 1688.62 3068.53 1688.62 3070.57 1687.1 3071.58 1684.07 3072.25 1682.09 3072.59 1678.87 3072.59 1674.39 3072.59 1669.43 3072.23 1665.89 3071.51 1663.77 3070.5 1660.74 3068.55 1659.22 3065.67 1659.22ZM3100.18 1659.15C3096.24 1659.15 3094.01 1661.51 3093.48 1666.23 3093.29 1667.86 3093.2 1669.43 3093.2 1670.92L3106.45 1670.92C3106.45 1667.41 3106.21 1664.93 3105.73 1663.48 3104.86 1660.59 3103.01 1659.15 3100.18 1659.15ZM3035.02 1659.15C3031.9 1659.15 3029.84 1660.71 3028.83 1663.84 3028.3 1665.48 3028.04 1668.3 3028.04 1672.29L3028.04 1677.49C3028.04 1681.01 3028.33 1683.51 3028.9 1685.01 3029.91 1687.56 3031.88 1688.83 3034.81 1688.83 3037.64 1688.83 3039.56 1687.61 3040.57 1685.15 3041.24 1683.51 3041.58 1681.03 3041.58 1677.71L3041.58 1672.15C3041.58 1668.01 3041.34 1665.14 3040.86 1663.56 3039.94 1660.62 3038 1659.15 3035.02 1659.15ZM3130.83 1655.03C3134.96 1655.03 3137.89 1656 3139.62 1657.92 3141.2 1659.75 3141.99 1662.71 3141.99 1666.81L3136.37 1666.81C3136.37 1661.7 3134.5 1659.15 3130.76 1659.15 3127.78 1659.15 3125.84 1660.76 3124.92 1663.99 3124.4 1665.87 3124.13 1669.21 3124.13 1674.03 3124.13 1679.52 3124.54 1683.3 3125.36 1685.37 3126.27 1687.68 3128 1688.83 3130.54 1688.83 3132.8 1688.83 3134.38 1688.04 3135.29 1686.45 3135.97 1685.25 3136.33 1683.39 3136.37 1680.89L3141.99 1680.89C3141.99 1688.93 3138.22 1692.95 3130.68 1692.95 3125.5 1692.95 3122.02 1691.26 3120.24 1687.89 3118.9 1685.34 3118.23 1680.91 3118.23 1674.61 3118.23 1668.3 3118.83 1663.82 3120.03 1661.17 3121.85 1657.08 3125.45 1655.03 3130.83 1655.03ZM3100.25 1655.03C3105.44 1655.03 3108.9 1656.96 3110.62 1660.81 3111.68 1663.22 3112.21 1667.34 3112.21 1673.16L3112.21 1674.82 3093.2 1674.82 3093.2 1677.28C3093.2 1680.98 3093.53 1683.66 3094.2 1685.29 3095.16 1687.65 3097.04 1688.83 3099.82 1688.83 3104 1688.83 3106.18 1686.16 3106.37 1680.82L3111.99 1680.82C3111.66 1688.91 3107.6 1692.95 3099.82 1692.95 3094.78 1692.95 3091.32 1691.24 3089.45 1687.82 3088.06 1685.27 3087.36 1681.15 3087.36 1675.47 3087.36 1669.02 3087.96 1664.4 3089.16 1661.61 3091.03 1657.22 3094.73 1655.03 3100.25 1655.03ZM3035.17 1655.03C3040.4 1655.03 3043.88 1656.79 3045.61 1660.31 3046.86 1662.76 3047.48 1667.26 3047.48 1673.81 3047.48 1680.46 3046.74 1685.15 3045.25 1687.89 3043.38 1691.26 3039.87 1692.95 3034.74 1692.95 3029.5 1692.95 3026 1691.26 3024.22 1687.89 3022.88 1685.34 3022.2 1680.82 3022.2 1674.32 3022.2 1668.06 3022.93 1663.53 3024.37 1660.74 3026.29 1656.94 3029.89 1655.03 3035.17 1655.03ZM3072.37 1640.01 3078.13 1640.01 3078.13 1685.37C3078.13 1686.67 3078.23 1688.95 3078.42 1692.23L3072.87 1692.23 3072.8 1688.04C3070.74 1691.22 3067.9 1692.81 3064.3 1692.81 3059.65 1692.81 3056.45 1690.71 3054.73 1686.52 3053.62 1683.73 3053.07 1679.4 3053.07 1673.52 3053.07 1667.99 3053.72 1663.8 3055.01 1660.96 3056.74 1657.01 3059.79 1655.03 3064.16 1655.03 3067.81 1655.03 3070.54 1656.45 3072.37 1659.29ZM3001.01 1639C3010.2 1639 3014.8 1643.84 3014.8 1653.52L3014.8 1654.67 3008.68 1654.67 3008.68 1653.73C3008.68 1647.23 3006.09 1643.98 3000.9 1643.98 2996.82 1643.98 2994.16 1646.03 2992.91 1650.12 2992.04 1652.91 2991.61 1658.26 2991.61 1666.16 2991.61 1674.63 2992.04 1680.19 2992.91 1682.84 2994.06 1686.5 2996.58 1688.33 3000.47 1688.33 3006.18 1688.33 3009.04 1684.76 3009.04 1677.64L3009.04 1676.63 3015.31 1676.63 3015.31 1677.78C3015.31 1688.04 3010.36 1693.17 3000.47 1693.17 2993.8 1693.17 2989.43 1690.73 2987.36 1685.87 2985.97 1682.5 2985.27 1676 2985.27 1666.37 2985.27 1657.08 2985.94 1650.72 2987.29 1647.31 2989.49 1641.77 2994.06 1639 3001.01 1639Z" fill="#FFFFFF" fill-rule="evenodd"/><rect x="2402" y="1579" width="428" height="277" fill="#9694E4"/><path d="M2642.71 1759.79C2635.09 1759.79 2631.28 1762.39 2631.28 1767.59 2631.28 1772.26 2633.06 1774.59 2636.63 1774.59 2639.33 1774.59 2641.33 1773.44 2642.64 1771.13 2643.65 1769.3 2644.15 1766.96 2644.15 1764.12L2644.15 1759.79ZM2585.28 1745.2C2583.2 1745.2 2581.54 1746.07 2580.29 1747.8 2578.79 1749.87 2578.04 1753.99 2578.04 1760.15 2578.04 1765.54 2578.53 1769.18 2579.49 1771.06 2580.7 1773.41 2582.6 1774.59 2585.2 1774.59 2587.09 1774.59 2588.6 1773.68 2589.76 1771.85 2591.11 1769.68 2591.79 1765.49 2591.79 1759.28 2591.79 1755.29 2591.55 1752.37 2591.06 1750.54 2590.1 1746.98 2588.17 1745.2 2585.28 1745.2ZM2675.5 1741.81 2681.65 1741.81 2689.31 1770.98 2696.77 1741.81 2702.41 1741.81 2687.8 1792 2682.23 1792 2686.42 1778.21ZM2558.69 1741.81 2564.41 1741.81 2564.41 1778.21 2558.69 1778.21ZM2673.2 1741.08C2673.59 1741.08 2673.78 1742.91 2673.78 1746.57 2673.2 1746.48 2672.79 1746.43 2672.55 1746.43 2669.8 1746.43 2667.74 1747.27 2666.37 1748.96 2664.99 1750.64 2664.31 1752.88 2664.31 1755.67L2664.31 1778.21 2658.52 1778.21 2658.52 1748.45C2658.52 1745.99 2658.45 1743.78 2658.3 1741.81L2663.94 1741.81 2663.94 1746.57C2665.92 1742.91 2669.01 1741.08 2673.2 1741.08ZM2621.53 1741.08C2621.92 1741.08 2622.11 1742.91 2622.11 1746.57 2621.53 1746.48 2621.12 1746.43 2620.88 1746.43 2618.13 1746.43 2616.07 1747.27 2614.7 1748.96 2613.32 1750.64 2612.64 1752.88 2612.64 1755.67L2612.64 1778.21 2606.85 1778.21 2606.85 1748.45C2606.85 1745.99 2606.78 1743.78 2606.63 1741.81L2612.27 1741.81 2612.27 1746.57C2614.25 1742.91 2617.34 1741.08 2621.53 1741.08ZM2638.73 1741.01C2642.92 1741.01 2645.84 1742.02 2647.48 1744.04 2649.03 1745.87 2649.8 1748.91 2649.8 1753.14L2649.8 1766.58C2649.8 1770.96 2649.92 1774.84 2650.16 1778.21L2644.59 1778.21 2644.52 1773.44C2642.06 1777 2638.8 1778.78 2634.75 1778.78 2631.66 1778.78 2629.28 1777.77 2627.59 1775.75 2626.09 1773.82 2625.35 1771.27 2625.35 1768.09 2625.35 1762.94 2627.32 1759.48 2631.28 1757.69 2633.88 1756.49 2638.17 1755.87 2644.15 1755.82L2644.15 1754.23C2644.15 1751.24 2643.91 1749.17 2643.43 1748.02 2642.66 1746.09 2641.02 1745.13 2638.51 1745.13 2636.78 1745.13 2635.33 1745.61 2634.17 1746.57 2633.01 1747.54 2632.44 1748.88 2632.44 1750.62L2632.44 1750.98 2626.72 1750.98 2626.72 1750.62C2626.72 1747.29 2627.93 1744.82 2630.34 1743.18 2632.41 1741.73 2635.21 1741.01 2638.73 1741.01ZM2558.4 1726.71 2564.7 1726.71 2564.7 1732.92 2558.4 1732.92ZM2572.47 1725.99 2578.19 1725.99 2578.19 1745.49C2580.45 1742.5 2583.37 1741.01 2586.94 1741.01 2591.52 1741.01 2594.61 1743.08 2596.2 1747.22 2597.17 1749.77 2597.65 1753.82 2597.65 1759.36 2597.65 1765.13 2597.12 1769.42 2596.06 1772.21 2594.37 1776.59 2591.16 1778.78 2586.43 1778.78 2582.72 1778.78 2579.85 1777.19 2577.83 1774.02L2577.75 1778.21 2572.18 1778.21C2572.38 1774.93 2572.47 1772.62 2572.47 1771.27ZM2528.63 1725.99 2534.78 1725.99 2534.78 1773.22 2551.2 1773.22 2551.2 1778.21 2528.63 1778.21ZM2577.26 1673.81C2569.64 1673.81 2565.83 1676.41 2565.83 1681.61 2565.83 1686.28 2567.61 1688.62 2571.18 1688.62 2573.88 1688.62 2575.88 1687.46 2577.19 1685.15 2578.2 1683.32 2578.7 1680.99 2578.7 1678.14L2578.7 1673.81ZM2605.87 1659.37C2603.08 1659.37 2601.1 1660.93 2599.94 1664.06 2599.12 1666.37 2598.71 1669.81 2598.71 1674.39 2598.71 1678.87 2599 1682.02 2599.58 1683.85 2600.64 1686.98 2602.74 1688.54 2605.87 1688.54 2608.81 1688.54 2610.77 1686.69 2611.73 1682.98 2612.21 1681.06 2612.46 1677.83 2612.46 1673.31 2612.46 1669.02 2612.17 1665.94 2611.59 1664.06 2610.62 1660.93 2608.72 1659.37 2605.87 1659.37ZM2662.04 1655.83 2667.75 1655.83 2667.75 1692.23 2662.04 1692.23ZM2556.08 1655.11C2556.47 1655.11 2556.66 1656.94 2556.66 1660.59 2556.08 1660.5 2555.67 1660.45 2555.43 1660.45 2552.68 1660.45 2550.62 1661.29 2549.25 1662.98 2547.87 1664.66 2547.19 1666.9 2547.19 1669.69L2547.19 1692.23 2541.4 1692.23 2541.4 1662.47C2541.4 1660.02 2541.33 1657.8 2541.18 1655.83L2546.82 1655.83 2546.82 1660.59C2548.8 1656.94 2551.89 1655.11 2556.08 1655.11ZM2716.22 1655.03C2719.98 1655.03 2722.66 1655.91 2724.25 1657.67 2725.84 1659.43 2726.69 1662.14 2726.78 1665.79L2721.07 1665.79C2721.07 1661.27 2719.36 1659.01 2715.93 1659.01 2714.44 1659.01 2713.26 1659.46 2712.39 1660.38 2711.52 1661.29 2711.09 1662.5 2711.09 1663.99 2711.09 1665.63 2711.78 1667.02 2713.18 1668.18 2713.91 1668.85 2715.62 1669.91 2718.32 1671.36 2721.26 1672.94 2723.29 1674.29 2724.4 1675.4 2726.13 1677.23 2727 1679.52 2727 1682.26 2727 1689.34 2723.19 1692.88 2715.57 1692.88 2708.1 1692.88 2704.43 1688.95 2704.57 1681.11L2710.29 1681.11C2710.29 1681.83 2710.31 1682.5 2710.36 1683.13 2710.7 1686.93 2712.48 1688.83 2715.71 1688.83 2719.38 1688.83 2721.21 1686.96 2721.21 1683.2 2721.21 1681.18 2720.63 1679.59 2719.48 1678.43 2718.75 1677.66 2717.14 1676.6 2714.63 1675.26 2711.21 1673.43 2709.04 1672.08 2708.12 1671.21 2706.29 1669.53 2705.37 1667.29 2705.37 1664.49 2705.37 1661.36 2706.41 1658.98 2708.48 1657.34 2710.41 1655.8 2712.99 1655.03 2716.22 1655.03ZM2687.03 1655.03C2691.17 1655.03 2694.12 1656 2695.85 1657.92 2697.44 1659.75 2698.24 1662.71 2698.24 1666.81L2692.6 1666.81C2692.6 1661.7 2690.72 1659.15 2686.96 1659.15 2683.97 1659.15 2682.01 1660.76 2681.1 1663.99 2680.56 1665.87 2680.3 1669.21 2680.3 1674.03 2680.3 1679.52 2680.71 1683.3 2681.53 1685.37 2682.45 1687.68 2684.18 1688.83 2686.74 1688.83 2689 1688.83 2690.6 1688.04 2691.51 1686.45 2692.19 1685.25 2692.55 1683.39 2692.6 1680.89L2698.24 1680.89C2698.24 1688.93 2694.45 1692.95 2686.88 1692.95 2681.67 1692.95 2678.18 1691.26 2676.39 1687.89 2675.04 1685.34 2674.37 1680.91 2674.37 1674.61 2674.37 1668.3 2674.97 1663.82 2676.18 1661.17 2678.01 1657.08 2681.63 1655.03 2687.03 1655.03ZM2607.54 1655.03C2612.02 1655.03 2615.08 1656.98 2616.72 1660.88 2617.78 1663.53 2618.32 1667.7 2618.32 1673.38 2618.32 1679.44 2617.78 1683.8 2616.72 1686.45 2615.08 1690.64 2611.9 1692.73 2607.18 1692.73 2603.56 1692.73 2600.79 1691.38 2598.86 1688.69L2598.86 1706.02 2593.14 1706.02 2593.14 1664.28C2593.14 1660.19 2593.05 1657.37 2592.85 1655.83L2598.49 1655.83 2598.49 1660.16C2600.57 1656.74 2603.58 1655.03 2607.54 1655.03ZM2573.28 1655.03C2577.47 1655.03 2580.39 1656.04 2582.03 1658.07 2583.58 1659.9 2584.35 1662.93 2584.35 1667.17L2584.35 1680.6C2584.35 1684.98 2584.47 1688.86 2584.71 1692.23L2579.14 1692.23 2579.07 1687.46C2576.61 1691.02 2573.35 1692.81 2569.3 1692.81 2566.21 1692.81 2563.83 1691.79 2562.14 1689.77 2560.64 1687.85 2559.9 1685.29 2559.9 1682.12 2559.9 1676.96 2561.87 1673.5 2565.83 1671.72 2568.43 1670.51 2572.72 1669.89 2578.7 1669.84L2578.7 1668.25C2578.7 1665.26 2578.46 1663.19 2577.98 1662.04 2577.21 1660.11 2575.57 1659.15 2573.06 1659.15 2571.33 1659.15 2569.88 1659.63 2568.72 1660.59 2567.56 1661.56 2566.99 1662.91 2566.99 1664.64L2566.99 1665 2561.27 1665 2561.27 1664.64C2561.27 1661.32 2562.48 1658.84 2564.89 1657.2 2566.96 1655.76 2569.76 1655.03 2573.28 1655.03ZM2661.75 1640.73 2668.04 1640.73 2668.04 1646.94 2661.75 1646.94ZM2627.59 1640.01 2633.3 1640.01 2633.3 1660.02C2635.67 1656.69 2638.73 1655.03 2642.49 1655.03 2648.86 1655.03 2652.04 1658.84 2652.04 1666.44L2652.04 1692.23 2646.32 1692.23 2646.32 1668.97C2646.32 1665.89 2646.11 1663.75 2645.67 1662.54 2644.85 1660.43 2643.19 1659.37 2640.68 1659.37 2635.76 1659.37 2633.3 1662.95 2633.3 1670.13L2633.3 1692.23 2627.59 1692.23ZM2519.35 1639C2529.09 1639 2533.96 1643.77 2533.96 1653.3L2533.96 1654.02 2527.67 1654.02 2527.67 1653.08C2527.67 1646.97 2524.92 1643.91 2519.42 1643.91 2514.94 1643.91 2511.99 1646.2 2510.6 1650.77 2509.78 1653.52 2509.37 1658.62 2509.37 1666.08 2509.37 1673.93 2509.78 1679.16 2510.6 1681.76 2511.95 1686.14 2514.98 1688.33 2519.71 1688.33 2522.65 1688.33 2525.26 1687.82 2527.52 1686.81L2527.52 1669.69 2518.48 1669.69 2518.48 1664.86 2533.53 1664.86 2533.53 1690.86C2528.95 1692.4 2524.39 1693.17 2519.85 1693.17 2512.52 1693.17 2507.7 1690.66 2505.39 1685.66 2503.8 1682.19 2503 1675.79 2503 1666.44 2503 1657.1 2503.82 1650.6 2505.46 1646.94 2507.77 1641.65 2512.4 1639 2519.35 1639Z" fill="#FFFFFF" fill-rule="evenodd"/><path d="M3502.46 1703.04 3490.22 1732.03 3502.46 1732.03ZM3499.92 1697.86 3508.03 1697.86 3508.03 1732.03 3513.61 1732.03 3513.61 1736.56 3508.03 1736.56 3508.03 1749 3502.39 1749 3502.39 1736.56 3485.52 1736.56 3485.52 1730.95ZM3561.69 1697C3569.9 1697 3574 1700.91 3574 1708.74 3574 1712.82 3572.17 1717.62 3568.5 1723.15L3554.38 1744.47 3573.93 1744.47 3573.93 1749 3548.08 1749 3548.08 1743.74 3564.95 1717.81C3566.88 1714.83 3567.85 1711.62 3567.85 1708.16 3567.85 1703.74 3565.7 1701.53 3561.4 1701.53 3556.77 1701.53 3554.45 1704.48 3554.45 1710.38L3548.52 1710.38C3548.52 1709.81 3548.56 1708.97 3548.66 1707.87 3549.38 1700.62 3553.73 1697 3561.69 1697ZM3519.8 1697 3525.96 1697 3525.96 1744.04 3542.39 1744.04 3542.39 1749 3519.8 1749ZM3446 1697 3452.52 1697 3463.52 1743.32 3474.74 1697 3480.9 1697 3467.04 1749 3459.64 1749Z" fill="#FFFFFF" fill-rule="evenodd"/><rect x="1888" y="867" width="2327" height="233" fill="#7C909B" fill-opacity="0.2"/><path d="M3190.21 993.056C3187.35 993.056 3185.3 993.629 3184.07 994.775 3182.83 995.921 3182.21 997.886 3182.21 1000.67 3182.21 1002.36 3182.54 1003.75 3183.2 1004.85 3183.86 1005.94 3185.04 1006.48 3186.75 1006.48 3188.73 1006.48 3190.1 1005.64 3190.87 1003.95 3191.64 1002.25 3192.03 1000.21 3192.03 997.804L3192.03 993.056ZM3280.53 978.563C3279.32 978.563 3278.37 978.85 3277.68 979.423 3276.99 979.996 3276.49 980.774 3276.16 981.757 3275.83 982.739 3275.62 983.872 3275.54 985.155 3275.45 986.437 3275.41 987.761 3275.41 989.126L3275.41 996.658C3275.41 997.968 3275.47 999.224 3275.58 1000.42 3275.69 1001.63 3275.91 1002.68 3276.24 1003.58 3276.57 1004.48 3277.06 1005.2 3277.72 1005.75 3278.38 1006.29 3279.29 1006.57 3280.45 1006.57 3281.6 1006.57 3282.52 1006.29 3283.21 1005.75 3283.9 1005.2 3284.4 1004.48 3284.73 1003.58 3285.06 1002.68 3285.27 1001.63 3285.35 1000.42 3285.44 999.224 3285.48 997.968 3285.48 996.658L3285.48 989.126C3285.48 987.706 3285.44 986.355 3285.35 985.073 3285.27 983.79 3285.06 982.671 3284.73 981.715 3284.4 980.76 3283.91 979.996 3283.25 979.423 3282.59 978.85 3281.68 978.563 3280.53 978.563ZM3062.8 978.236C3061.6 978.236 3060.63 978.577 3059.92 979.259 3059.2 979.941 3058.67 980.911 3058.31 982.166 3057.95 983.421 3057.72 984.922 3057.61 986.669 3057.5 988.416 3057.44 990.354 3057.44 992.482 3057.44 997.122 3057.76 1000.66 3058.39 1003.09 3059.02 1005.51 3060.44 1006.73 3062.64 1006.73 3063.85 1006.73 3064.8 1006.36 3065.49 1005.62 3066.17 1004.89 3066.68 1003.86 3067.01 1002.55 3067.34 1001.24 3067.55 999.674 3067.63 997.846 3067.71 996.017 3067.75 994.011 3067.75 991.828 3067.75 989.644 3067.71 987.706 3067.63 986.014 3067.55 984.322 3067.34 982.903 3067.01 981.757 3066.68 980.61 3066.19 979.737 3065.53 979.137 3064.87 978.536 3063.96 978.236 3062.8 978.236ZM3018.13 978.236C3016.92 978.236 3015.96 978.577 3015.24 979.259 3014.53 979.941 3013.99 980.911 3013.63 982.166 3013.28 983.421 3013.04 984.922 3012.93 986.669 3012.82 988.416 3012.77 990.354 3012.77 992.482 3012.77 997.122 3013.08 1000.66 3013.72 1003.09 3014.35 1005.51 3015.76 1006.73 3017.96 1006.73 3019.17 1006.73 3020.12 1006.36 3020.81 1005.62 3021.5 1004.89 3022 1003.86 3022.33 1002.55 3022.66 1001.24 3022.87 999.674 3022.95 997.846 3023.04 996.017 3023.08 994.011 3023.08 991.828 3023.08 989.644 3023.04 987.706 3022.95 986.014 3022.87 984.322 3022.66 982.903 3022.33 981.757 3022 980.61 3021.51 979.737 3020.85 979.137 3020.19 978.536 3019.28 978.236 3018.13 978.236ZM2871.52 978.072C2870.02 978.072 2868.94 978.509 2868.27 979.382 2867.61 980.255 2867.14 981.374 2866.86 982.739 2866.75 983.503 2866.67 984.254 2866.61 984.99 2866.56 985.728 2866.53 986.478 2866.53 987.242L2876.18 987.242C2876.18 986.424 2876.18 985.578 2876.18 984.704 2876.18 983.831 2876.09 982.985 2875.93 982.166 2875.71 980.965 2875.28 979.983 2874.64 979.218 2874 978.454 2872.96 978.072 2871.52 978.072ZM3242.75 971.931 3256.61 971.931 3256.61 1013.2 3242.75 1013.2ZM3108.72 971.931 3122.58 971.931 3122.58 1013.2 3108.72 1013.2ZM3333.37 970.949C3337.49 970.949 3340.46 971.918 3342.28 973.855 3344.09 975.793 3345 978.945 3345 983.312L3345 1013.2 3331.23 1013.2 3331.23 985.932C3331.23 983.476 3330.98 981.593 3330.48 980.283 3329.99 978.973 3328.78 978.318 3326.85 978.318 3325.09 978.318 3323.83 979.068 3323.06 980.569 3322.29 982.07 3321.91 984.104 3321.91 986.669L3321.91 1013.2 3308.05 1013.2 3308.05 978.399C3308.05 978.181 3308.05 977.758 3308.05 977.13 3308.05 976.503 3308.03 975.847 3308.01 975.165 3307.98 974.483 3307.95 973.828 3307.92 973.2 3307.9 972.572 3307.88 972.149 3307.88 971.931L3321.74 971.931 3321.74 976.271C3323.17 974.36 3324.85 972.996 3326.77 972.177 3328.7 971.358 3330.9 970.949 3333.37 970.949ZM3280.53 970.949C3284.43 970.949 3287.61 971.413 3290.05 972.341 3292.5 973.269 3294.41 974.633 3295.79 976.435 3297.16 978.236 3298.1 980.487 3298.59 983.189 3299.09 985.891 3299.33 989.016 3299.33 992.564 3299.33 995.621 3299.14 998.459 3298.76 1001.08 3298.37 1003.7 3297.52 1005.98 3296.2 1007.92 3294.88 1009.85 3292.97 1011.38 3290.47 1012.5 3287.96 1013.62 3284.62 1014.18 3280.45 1014.18 3276.71 1014.18 3273.63 1013.72 3271.21 1012.79 3268.79 1011.86 3266.86 1010.48 3265.43 1008.65 3264 1006.82 3263 1004.56 3262.42 1001.86 3261.85 999.155 3261.56 996.058 3261.56 992.564 3261.56 989.289 3261.82 986.314 3262.34 983.64 3262.86 980.965 3263.82 978.686 3265.23 976.803 3266.63 974.92 3268.57 973.473 3271.04 972.464 3273.52 971.453 3276.68 970.949 3280.53 970.949ZM3187.9 970.949C3190.76 970.949 3193.29 971.167 3195.49 971.604 3197.69 972.041 3199.54 972.818 3201.06 973.937 3202.57 975.056 3203.71 976.557 3204.48 978.44 3205.25 980.324 3205.63 982.685 3205.63 985.523L3205.63 1001.49C3205.63 1003.4 3205.7 1005.35 3205.84 1007.34 3205.98 1009.34 3206.18 1011.29 3206.46 1013.2L3193.1 1013.2 3192.6 1007.88C3191.17 1010.28 3189.55 1011.91 3187.74 1012.79 3185.92 1013.66 3183.69 1014.1 3181.06 1014.1 3176.93 1014.1 3173.8 1013.01 3171.65 1010.82 3169.51 1008.64 3168.44 1005.36 3168.44 1001 3168.44 997.941 3169.01 995.471 3170.17 993.588 3171.32 991.705 3172.85 990.258 3174.75 989.248 3176.64 988.238 3178.84 987.57 3181.34 987.242 3183.85 986.915 3186.42 986.751 3189.06 986.751L3192.03 986.751 3192.03 984.459C3192.03 982.439 3191.79 980.815 3191.32 979.587 3190.86 978.359 3189.66 977.744 3187.74 977.744 3186.31 977.744 3185.23 978.195 3184.52 979.095 3183.8 979.996 3183.45 981.211 3183.45 982.739L3183.45 983.721 3169.76 983.721 3169.76 982.903C3169.76 980.392 3170.37 978.345 3171.61 976.762 3172.85 975.179 3174.37 973.965 3176.19 973.118 3178 972.272 3179.97 971.699 3182.09 971.399 3184.2 971.099 3186.14 970.949 3187.9 970.949ZM3146.41 970.949C3149.22 970.949 3151.73 971.181 3153.96 971.645 3156.19 972.109 3158.08 972.941 3159.65 974.142 3161.22 975.343 3162.43 976.939 3163.28 978.932 3164.13 980.924 3164.56 983.421 3164.56 986.424L3151.36 986.424C3151.31 985.605 3151.24 984.732 3151.16 983.804 3151.07 982.875 3150.88 982.029 3150.58 981.265 3150.28 980.501 3149.81 979.86 3149.18 979.341 3148.54 978.822 3147.68 978.563 3146.58 978.563 3145.31 978.563 3144.32 978.904 3143.61 979.587 3142.89 980.269 3142.37 981.252 3142.04 982.534 3141.71 983.817 3141.51 985.4 3141.42 987.283 3141.34 989.166 3141.3 991.282 3141.3 993.629 3141.3 995.376 3141.33 997.04 3141.38 998.623 3141.44 1000.21 3141.63 1001.58 3141.96 1002.76 3142.29 1003.93 3142.8 1004.86 3143.49 1005.54 3144.17 1006.22 3145.15 1006.57 3146.41 1006.57 3147.57 1006.57 3148.48 1006.29 3149.14 1005.75 3149.8 1005.2 3150.29 1004.5 3150.62 1003.66 3150.95 1002.81 3151.17 1001.9 3151.28 1000.92 3151.39 999.933 3151.44 999.033 3151.44 998.214L3164.64 998.214C3164.59 1000.78 3164.22 1003.04 3163.53 1005.01 3162.84 1006.97 3161.75 1008.64 3160.27 1010 3158.79 1011.37 3156.89 1012.41 3154.58 1013.12 3152.27 1013.83 3149.46 1014.18 3146.17 1014.18 3142.54 1014.18 3139.53 1013.74 3137.13 1012.87 3134.74 1012 3132.83 1010.7 3131.4 1008.98 3129.97 1007.26 3128.97 1005.11 3128.39 1002.51 3127.81 999.92 3127.53 996.931 3127.53 993.547 3127.53 989.999 3127.79 986.833 3128.31 984.049 3128.83 981.265 3129.79 978.904 3131.2 976.967 3132.6 975.029 3134.52 973.542 3136.97 972.504 3139.42 971.467 3142.56 970.949 3146.41 970.949ZM3068 970.949C3071.08 970.949 3073.53 971.467 3075.34 972.504 3077.16 973.542 3078.52 974.974 3079.43 976.803 3080.33 978.632 3080.91 980.829 3081.16 983.394 3081.4 985.96 3081.53 988.798 3081.53 991.909 3081.53 994.802 3081.42 997.586 3081.2 1000.26 3080.98 1002.94 3080.39 1005.3 3079.43 1007.34 3078.46 1009.39 3077.01 1011.03 3075.05 1012.26 3073.1 1013.48 3070.42 1014.1 3067.01 1014.1 3064.76 1014.1 3062.85 1013.73 3061.28 1012.99 3059.71 1012.26 3058.35 1011.04 3057.2 1009.35L3057.2 1029 3043.42 1029 3043.42 979.955C3043.42 979.901 3043.41 979.464 3043.38 978.645 3043.35 977.826 3043.34 976.926 3043.34 975.943 3043.34 974.961 3043.33 974.06 3043.3 973.241 3043.27 972.422 3043.26 971.986 3043.26 971.931L3056.87 971.931 3056.87 976.598C3058.13 974.524 3059.73 973.064 3061.65 972.218 3063.57 971.372 3065.69 970.949 3068 970.949ZM3023.32 970.949C3026.4 970.949 3028.85 971.467 3030.66 972.504 3032.48 973.542 3033.84 974.974 3034.75 976.803 3035.66 978.632 3036.23 980.829 3036.48 983.394 3036.73 985.96 3036.85 988.798 3036.85 991.909 3036.85 994.802 3036.74 997.586 3036.52 1000.26 3036.3 1002.94 3035.71 1005.3 3034.75 1007.34 3033.79 1009.39 3032.33 1011.03 3030.38 1012.26 3028.42 1013.48 3025.74 1014.1 3022.33 1014.1 3020.08 1014.1 3018.17 1013.73 3016.6 1012.99 3015.03 1012.26 3013.67 1011.04 3012.52 1009.35L3012.52 1029 2998.74 1029 2998.74 979.955C2998.74 979.901 2998.73 979.464 2998.7 978.645 2998.68 977.826 2998.66 976.926 2998.66 975.943 2998.66 974.961 2998.65 974.06 2998.62 973.241 2998.59 972.422 2998.58 971.986 2998.58 971.931L3012.19 971.931 3012.19 976.598C3013.45 974.524 3015.05 973.064 3016.97 972.218 3018.9 971.372 3021.01 970.949 3023.32 970.949ZM2923.25 970.949 2923.25 982.002C2922.81 982.002 2922.52 981.988 2922.38 981.961 2922.24 981.934 2921.74 981.92 2920.86 981.92 2919.15 981.92 2917.78 982.166 2916.73 982.657 2915.69 983.148 2914.88 983.817 2914.3 984.663 2913.72 985.509 2913.34 986.533 2913.14 987.734 2912.95 988.934 2912.85 990.272 2912.85 991.746L2912.85 1013.2 2899.08 1013.2 2899.08 980.201C2899.08 980.146 2899.07 979.696 2899.04 978.85 2899.01 978.004 2899 977.076 2899 976.066 2899 975.056 2898.98 974.128 2898.96 973.282 2898.93 972.436 2898.92 971.986 2898.92 971.931L2912.19 971.931 2912.28 977.171C2913.49 974.715 2914.96 973.064 2916.69 972.218 2918.42 971.372 2920.61 970.949 2923.25 970.949ZM2871.89 970.949C2875.74 970.949 2878.86 971.453 2881.25 972.464 2883.64 973.473 2885.5 974.933 2886.82 976.844 2888.14 978.754 2889.03 981.074 2889.5 983.804 2889.97 986.533 2890.2 989.617 2890.2 993.056L2890.2 994.202 2866.36 994.202 2866.36 997.723C2866.36 1000.83 2866.71 1003.17 2867.39 1004.72 2868.08 1006.28 2869.44 1007.06 2871.48 1007.06 2872.52 1007.06 2873.37 1006.84 2874.03 1006.4 2874.69 1005.96 2875.19 1005.38 2875.52 1004.64 2875.85 1003.9 2876.07 1003.09 2876.18 1002.18 2876.29 1001.28 2876.34 1000.37 2876.34 999.442L2889.87 999.442C2889.87 1004.57 2888.3 1008.31 2885.17 1010.66 2882.03 1013.01 2877.53 1014.18 2871.64 1014.18 2867.85 1014.18 2864.73 1013.73 2862.28 1012.83 2859.83 1011.93 2857.88 1010.58 2856.42 1008.78 2854.97 1006.97 2853.96 1004.74 2853.41 1002.06 2852.86 999.387 2852.59 996.276 2852.59 992.728 2852.59 989.126 2852.92 985.973 2853.58 983.271 2854.24 980.569 2855.32 978.304 2856.84 976.475 2858.35 974.647 2860.34 973.269 2862.82 972.341 2865.29 971.413 2868.31 970.949 2871.89 970.949ZM2829.33 970.949C2834.66 970.949 2838.76 971.863 2841.62 973.692 2844.48 975.52 2845.96 978.318 2846.07 982.084L2846.07 983.476 2832.96 983.476 2832.96 982.166C2832.9 980.911 2832.59 979.805 2832.01 978.85 2831.43 977.894 2830.29 977.417 2828.59 977.417 2827.38 977.417 2826.39 977.717 2825.62 978.318 2824.85 978.918 2824.46 979.846 2824.46 981.102 2824.46 981.975 2824.72 982.725 2825.25 983.353 2825.77 983.981 2826.5 984.568 2827.43 985.113 2828.37 985.659 2829.48 986.205 2830.77 986.751 2832.06 987.297 2833.48 987.897 2835.02 988.552 2837 989.426 2838.73 990.217 2840.22 990.927 2841.7 991.636 2842.92 992.455 2843.89 993.383 2844.85 994.311 2845.56 995.416 2846.03 996.699 2846.5 997.982 2846.73 999.606 2846.73 1001.57 2846.73 1004.03 2846.2 1006.06 2845.12 1007.67 2844.05 1009.28 2842.64 1010.56 2840.88 1011.52 2839.12 1012.47 2837.12 1013.14 2834.9 1013.53 2832.67 1013.91 2830.37 1014.1 2828.01 1014.1 2825.92 1014.1 2823.86 1013.91 2821.82 1013.53 2819.79 1013.14 2817.96 1012.47 2816.34 1011.52 2814.72 1010.56 2813.41 1009.28 2812.42 1007.67 2811.43 1006.06 2810.94 1004.03 2810.94 1001.57L2810.94 1000.26 2824.05 1000.26 2824.05 1001.33C2824.05 1003.07 2824.41 1004.45 2825.12 1005.46 2825.84 1006.47 2827.07 1006.97 2828.83 1006.97 2830.1 1006.97 2831.16 1006.63 2832.01 1005.95 2832.86 1005.27 2833.29 1004.3 2833.29 1003.04 2833.29 1002.23 2833.15 1001.53 2832.88 1000.96 2832.6 1000.38 2832.08 999.838 2831.31 999.319 2830.54 998.801 2829.47 998.241 2828.09 997.641 2826.72 997.04 2824.9 996.249 2822.65 995.266 2820.56 994.393 2818.8 993.588 2817.37 992.851 2815.94 992.114 2814.77 991.309 2813.86 990.435 2812.96 989.562 2812.3 988.552 2811.88 987.406 2811.47 986.26 2811.27 984.813 2811.27 983.066 2811.27 980.61 2811.83 978.604 2812.96 977.048 2814.08 975.493 2815.53 974.265 2817.29 973.364 2819.05 972.464 2820.98 971.836 2823.1 971.481 2825.22 971.126 2827.29 970.949 2829.33 970.949ZM2968.64 964.48 2962.62 991.254 2974.83 991.254ZM3230.43 960.059 3230.43 971.931 3236.62 971.931 3236.62 979.546 3230.43 979.546 3230.43 1001.73C3230.43 1003.43 3230.67 1004.61 3231.13 1005.3 3231.6 1005.98 3232.69 1006.32 3234.39 1006.32 3234.83 1006.32 3235.19 1006.31 3235.47 1006.28 3235.74 1006.25 3236.1 1006.18 3236.54 1006.07L3236.54 1013.2C3235.44 1013.47 3234.28 1013.66 3233.07 1013.77 3231.86 1013.88 3230.49 1013.93 3228.95 1013.93 3224.66 1013.93 3221.53 1013.16 3219.55 1011.6 3217.57 1010.05 3216.58 1007.14 3216.58 1002.88L3216.58 979.546 3211.63 979.546 3211.63 971.931 3216.58 971.931 3216.58 964.89ZM3242.75 954.246 3256.61 954.246 3256.61 964.235 3242.75 964.235ZM3108.72 954.246 3122.58 954.246 3122.58 964.235 3108.72 964.235ZM3088.1 954 3101.96 954 3101.96 1013.2 3088.1 1013.2ZM2958.91 954 2979.36 954 2995.36 1013.2 2979.86 1013.2 2976.89 1000.83 2960.97 1000.83 2958 1013.2 2942.99 1013.2ZM2759 954 2773.76 954 2773.76 993.056C2773.76 994.748 2773.85 996.303 2774.01 997.723 2774.18 999.142 2774.53 1000.37 2775.08 1001.41 2775.63 1002.44 2776.4 1003.26 2777.39 1003.86 2778.38 1004.46 2779.68 1004.76 2781.27 1004.76 2782.92 1004.76 2784.25 1004.46 2785.27 1003.86 2786.29 1003.26 2787.06 1002.44 2787.58 1001.41 2788.1 1000.37 2788.45 999.155 2788.61 997.763 2788.78 996.372 2788.86 994.857 2788.86 993.219L2788.86 954 2803.37 954 2803.37 993.383C2803.37 997.313 2802.92 1000.62 2802.01 1003.29 2801.11 1005.96 2799.72 1008.15 2797.85 1009.84 2795.98 1011.53 2793.66 1012.75 2790.88 1013.48 2788.1 1014.22 2784.87 1014.59 2781.19 1014.59 2773.38 1014.59 2767.73 1012.87 2764.24 1009.43 2760.75 1005.99 2759 1000.59 2759 993.219Z" fill="#2D2D2C" fill-rule="evenodd"/></g></svg>